<svg width="500" height="300" version="1.1" xmlns="http://www.w3.org/2000/svg" desc="Created with imagetracer.js version 1.2.6" ><path fill="rgb(0,0,0)" stroke="rgb(0,0,0)" stroke-width="1" opacity="0" d="M 0 0 L 500 0 L 500 300 L 0 300 L 0 0 Z M 104 65 L 45 99 L 42 102 L 42 176 L 49 181 L 105 213 L 108 213 L 114 210 L 167 179 L 170 176 L 170 142 L 159 147 L 156 151 L 156 168 L 148 174 L 107 197 L 103 196 L 57 170 L 55 166 L 55 112 L 56 110 L 104 81 L 108 81 L 114 84 L 155 108 L 156 111 L 156 135 L 157 137 L 161 137 L 170 131 L 170 103 L 169 100 L 113 67 Q 110 64 104 65 Z M 103 91 L 67 113 L 68 118 L 104 138 Q 110 139 113 136 L 134 123 L 135 124 L 135 155 L 108 171 L 102 170 L 80 157 L 77 155 L 77 132 L 67 126 L 63 129 L 63 161 L 64 164 L 104 187 L 111 186 L 147 165 L 148 164 L 148 115 L 137 107 L 132 108 L 109 122 L 104 122 L 95 117 L 92 113 L 104 107 Q 110 106 112 109 L 115 109 L 122 105 Q 125 105 124 101 L 109 91 L 103 91 Z M 200 126 L 197 127 L 196 130 L 196 148 L 199 150 L 220 150 L 220 145 L 202 145 L 203 141 L 220 141 L 220 135 L 202 135 L 203 132 L 220 132 L 220 127 L 220 126 L 200 126 Z M 224 126 L 224 150 L 246 150 L 248 148 L 248 129 L 245 126 L 224 126 Z M 252 126 L 252 148 L 255 150 L 274 150 L 276 148 L 276 126 L 271 127 L 271 145 L 258 145 L 258 127 L 258 126 L 252 126 Z M 284 126 L 281 127 L 280 130 L 280 148 L 283 150 L 304 150 L 304 145 L 286 145 L 286 132 L 304 132 L 304 127 L 304 126 L 284 126 Z M 312 126 L 309 127 L 308 130 L 308 150 L 314 150 L 314 141 L 327 141 L 327 150 L 332 150 L 332 129 L 329 126 L 312 126 Z M 336 126 L 336 132 L 345 132 L 345 150 L 351 150 L 351 132 L 360 132 L 360 127 L 360 126 L 336 126 Z M 368 126 L 365 127 L 364 130 L 364 148 L 367 150 L 388 150 L 388 145 L 370 145 L 371 141 L 388 141 L 388 135 L 370 135 L 371 132 L 388 132 L 388 127 L 388 126 L 368 126 Z M 396 126 L 393 127 L 392 130 L 392 148 L 395 150 L 416 150 L 416 145 L 398 145 L 398 132 L 416 132 L 416 127 L 416 126 L 396 126 Z M 420 126 L 420 150 L 426 150 L 426 141 L 439 141 L 439 150 L 444 150 L 444 126 L 439 126 L 439 135 L 426 135 L 426 126 L 420 126 Z " /><path fill="rgb(0,0,0)" stroke="rgb(0,0,0)" stroke-width="1" opacity="0" d="M 230 132 L 243 132 L 243 145 L 230 145 L 230 132 Z " /><path fill="rgb(0,0,0)" stroke="rgb(0,0,0)" stroke-width="1" opacity="0" d="M 314 132 L 326.5 132 L 327 135 L 314.5 135 L 314 132 Z " /><path fill="rgb(30,18,130)" stroke="rgb(30,18,130)" stroke-width="1" opacity="0.33725490196078434" d="M 103.5 65 Q 111.5 64 114 68.5 L 112.5 68 Q 109.8 65.2 103.5 66 L 103.5 65 Z " /><path fill="rgb(30,18,130)" stroke="rgb(30,18,130)" stroke-width="1" opacity="0.33725490196078434" d="M 101.5 66 L 100.5 68 L 96.5 70 L 97.5 68 L 101.5 66 Z " /><path fill="rgb(30,18,130)" stroke="rgb(30,18,130)" stroke-width="1" opacity="0.33725490196078434" d="M 115.5 69 L 119 71.5 L 117.5 71 L 115.5 69 Z " /><path fill="rgb(30,18,130)" stroke="rgb(30,18,130)" stroke-width="1" opacity="0.33725490196078434" d="M 94.5 70 L 93.5 72 L 91.5 73 L 92.5 71 L 94.5 70 Z " /><path fill="rgb(30,18,130)" stroke="rgb(30,18,130)" stroke-width="1" opacity="0.33725490196078434" d="M 120.5 72 L 126 75.5 L 124.5 75 Q 120.5 74.5 120.5 72 Z " /><path fill="rgb(30,18,130)" stroke="rgb(30,18,130)" stroke-width="1" opacity="0.33725490196078434" d="M 89.5 73 L 88.5 75 L 79.5 80 L 80.5 78 L 89.5 73 Z " /><path fill="rgb(30,18,130)" stroke="rgb(30,18,130)" stroke-width="1" opacity="0.33725490196078434" d="M 127.5 76 L 131 78.5 L 129.5 78 L 127.5 76 Z " /><path fill="rgb(30,18,130)" stroke="rgb(30,18,130)" stroke-width="1" opacity="0.33725490196078434" d="M 132.5 79 L 138 82.5 L 136.5 82 Q 132.5 81.5 132.5 79 Z " /><path fill="rgb(30,18,130)" stroke="rgb(30,18,130)" stroke-width="1" opacity="0.33725490196078434" d="M 77.5 80 L 76.5 82 L 72.5 84 L 73.5 82 L 77.5 80 Z " /><path fill="rgb(30,18,130)" stroke="rgb(30,18,130)" stroke-width="1" opacity="0.33725490196078434" d="M 104.5 80 Q 111.1 79.4 113 83.5 L 111.5 83 L 104.5 81 L 104.5 80 Z " /><path fill="rgb(30,18,130)" stroke="rgb(30,18,130)" stroke-width="1" opacity="0.33725490196078434" d="M 102.5 81 L 101.5 83 L 97.5 85 L 98.5 83 L 102.5 81 Z " /><path fill="rgb(30,18,130)" stroke="rgb(30,18,130)" stroke-width="1" opacity="0.33725490196078434" d="M 139.5 83 L 143 85.5 L 141.5 85 L 139.5 83 Z " /><path fill="rgb(30,18,130)" stroke="rgb(30,18,130)" stroke-width="1" opacity="0.33725490196078434" d="M 70.5 84 L 69.5 86 L 67.5 87 L 68.5 85 L 70.5 84 Z " /><path fill="rgb(30,18,130)" stroke="rgb(30,18,130)" stroke-width="1" opacity="0.33725490196078434" d="M 114.5 84 L 120 87.5 L 118.5 87 Q 114.5 86.5 114.5 84 Z " /><path fill="rgb(30,18,130)" stroke="rgb(30,18,130)" stroke-width="1" opacity="0.33725490196078434" d="M 95.5 85 L 94.5 87 L 90.5 89 L 91.5 87 L 95.5 85 Z " /><path fill="rgb(30,18,130)" stroke="rgb(30,18,130)" stroke-width="1" opacity="0.33725490196078434" d="M 65.5 87 L 64.5 89 L 60.5 91 L 61.5 89 L 65.5 87 Z " /><path fill="rgb(30,18,130)" stroke="rgb(30,18,130)" stroke-width="1" opacity="0.33725490196078434" d="M 146.5 87 L 150 89.5 L 148.5 89 L 146.5 87 Z " /><path fill="rgb(30,18,130)" stroke="rgb(30,18,130)" stroke-width="1" opacity="0.33725490196078434" d="M 121.5 88 L 125 90.5 L 123.5 90 L 121.5 88 Z " /><path fill="rgb(30,18,130)" stroke="rgb(30,18,130)" stroke-width="1" opacity="0.33725490196078434" d="M 88.5 89 L 87.5 91 L 85.5 92 L 86.5 90 L 88.5 89 Z " /><path fill="rgb(30,18,130)" stroke="rgb(30,18,130)" stroke-width="1" opacity="0.33725490196078434" d="M 151.5 90 L 162 96.5 L 160.5 96 L 152.5 92 L 151.5 90 Z " /><path fill="rgb(30,18,130)" stroke="rgb(30,18,130)" stroke-width="1" opacity="0.33725490196078434" d="M 58.5 91 L 57.5 93 L 55.5 94 L 56.5 92 L 58.5 91 Z " /><path fill="rgb(30,18,130)" stroke="rgb(30,18,130)" stroke-width="1" opacity="0.33725490196078434" d="M 102.5 91 L 104 91.5 L 101.5 93 L 102.5 91 Z " /><path fill="rgb(30,18,130)" stroke="rgb(30,18,130)" stroke-width="1" opacity="0.33725490196078434" d="M 126.5 91 L 132 94.5 L 130.5 94 Q 126.5 93.5 126.5 91 Z " /><path fill="rgb(30,18,130)" stroke="rgb(30,18,130)" stroke-width="1" opacity="0.33725490196078434" d="M 83.5 92 L 82.5 94 L 78.5 96 L 79.5 94 L 83.5 92 Z " /><path fill="rgb(30,18,130)" stroke="rgb(30,18,130)" stroke-width="1" opacity="0.33725490196078434" d="M 99.5 93 L 98.5 95 L 94.5 97 L 95.5 95 L 99.5 93 Z " /><path fill="rgb(30,18,130)" stroke="rgb(30,18,130)" stroke-width="1" opacity="0.33725490196078434" d="M 112.5 93 L 116 95.5 L 114.5 95 L 112.5 93 Z " /><path fill="rgb(30,18,130)" stroke="rgb(30,18,130)" stroke-width="1" opacity="0.33725490196078434" d="M 53.5 94 L 52.5 96 L 48.5 98 L 49.5 96 L 53.5 94 Z " /><path fill="rgb(30,18,130)" stroke="rgb(30,18,130)" stroke-width="1" opacity="0.33725490196078434" d="M 133.5 95 L 139 98.5 L 137.5 98 Q 133.5 97.5 133.5 95 Z " /><path fill="rgb(30,18,130)" stroke="rgb(30,18,130)" stroke-width="1" opacity="0.33725490196078434" d="M 76.5 96 L 75.5 98 L 73.5 99 L 74.5 97 L 76.5 96 Z " /><path fill="rgb(30,18,130)" stroke="rgb(30,18,130)" stroke-width="1" opacity="0.33725490196078434" d="M 117.5 96 L 121 98.5 L 119.5 98 L 117.5 96 Z " /><path fill="rgb(30,18,130)" stroke="rgb(30,18,130)" stroke-width="1" opacity="0.33725490196078434" d="M 92.5 97 L 91.5 99 L 89.5 100 L 90.5 98 L 92.5 97 Z " /><path fill="rgb(30,18,130)" stroke="rgb(30,18,130)" stroke-width="1" opacity="0.33725490196078434" d="M 163.5 97 L 169 100 L 170 103.5 L 169 103.5 L 165.5 99 L 163.5 97 Z " /><path fill="rgb(30,18,130)" stroke="rgb(30,18,130)" stroke-width="1" opacity="0.33725490196078434" d="M 46.5 98 L 45.5 100 L 43 101.5 L 42.5 103 L 42 101.5 L 46.5 98 Z " /><path fill="rgb(30,18,130)" stroke="rgb(30,18,130)" stroke-width="1" opacity="0.33725490196078434" d="M 71.5 99 L 70.5 101 L 66.5 103 L 67.5 101 L 71.5 99 Z " /><path fill="rgb(30,18,130)" stroke="rgb(30,18,130)" stroke-width="1" opacity="0.33725490196078434" d="M 122.5 99 L 123.5 101 L 122.5 99 Z " /><path fill="rgb(30,18,130)" stroke="rgb(30,18,130)" stroke-width="1" opacity="0.33725490196078434" d="M 140.5 99 L 144 101.5 L 142.5 101 L 140.5 99 Z " /><path fill="rgb(30,18,130)" stroke="rgb(30,18,130)" stroke-width="1" opacity="0.33725490196078434" d="M 85.5 101 L 84.5 103 L 82.5 104 L 83.5 102 L 85.5 101 Z " /><path fill="rgb(30,18,130)" stroke="rgb(30,18,130)" stroke-width="1" opacity="0.33725490196078434" d="M 123.5 102 L 121.5 105 L 114.5 109 L 111.5 109 L 111.5 108 L 114.5 108 L 123.5 102 Z " /><path fill="rgb(30,18,130)" stroke="rgb(30,18,130)" stroke-width="1" opacity="0.33725490196078434" d="M 145.5 102 L 151 105.5 L 149.5 105 Q 145.5 104.5 145.5 102 Z " /><path fill="rgb(30,18,130)" stroke="rgb(30,18,130)" stroke-width="1" opacity="0.33725490196078434" d="M 64.5 103 L 63.5 105 L 56.5 109 L 57.5 107 L 64.5 103 Z " /><path fill="rgb(30,18,130)" stroke="rgb(30,18,130)" stroke-width="1" opacity="0.33725490196078434" d="M 80.5 104 L 79.5 106 L 75.5 108 L 76.5 106 L 80.5 104 Z " /><path fill="rgb(30,18,130)" stroke="rgb(30,18,130)" stroke-width="1" opacity="0.33725490196078434" d="M 103.5 106 Q 108.8 104.8 110 107.5 L 108.5 107 Q 102.5 106 100.5 109 L 101.5 107 L 103.5 106 Z " /><path fill="rgb(30,18,130)" stroke="rgb(30,18,130)" stroke-width="1" opacity="0.33725490196078434" d="M 152.5 106 L 153.5 108 L 152.5 106 Z " /><path fill="rgb(30,18,130)" stroke="rgb(30,18,130)" stroke-width="1" opacity="0.33725490196078434" d="M 133.5 107 Q 140.1 106.4 142 110.5 L 140.5 110 L 133.5 108 L 130.5 110 L 131.5 108 L 133.5 107 Z " /><path fill="rgb(30,18,130)" stroke="rgb(30,18,130)" stroke-width="1" opacity="0.33725490196078434" d="M 73.5 108 L 72.5 110 L 68 112.5 L 67.5 116 L 67 112.5 L 73.5 108 Z " /><path fill="rgb(30,18,130)" stroke="rgb(30,18,130)" stroke-width="1" opacity="0.33725490196078434" d="M 98.5 109 L 97.5 111 L 93.5 113 L 94.5 111 L 98.5 109 Z " /><path fill="rgb(30,18,130)" stroke="rgb(30,18,130)" stroke-width="1" opacity="0.33725490196078434" d="M 155.5 109 L 157 110.5 L 157 134.5 L 156 134.5 L 156 110.5 L 155.5 109 Z " /><path fill="rgb(30,18,130)" stroke="rgb(30,18,130)" stroke-width="1" opacity="0.33725490196078434" d="M 128.5 110 L 127.5 112 L 123.5 114 L 124.5 112 L 128.5 110 Z " /><path fill="rgb(30,18,130)" stroke="rgb(30,18,130)" stroke-width="1" opacity="0.33725490196078434" d="M 143.5 111 L 148 114.5 L 147.5 116 L 145.5 113 L 143.5 111 Z " /><path fill="rgb(30,18,130)" stroke="rgb(30,18,130)" stroke-width="1" opacity="0.33725490196078434" d="M 54.5 112 L 55 164.5 L 54 164.5 L 54.5 112 Z " /><path fill="rgb(30,18,130)" stroke="rgb(30,18,130)" stroke-width="1" opacity="0.33725490196078434" d="M 91.5 114 L 93.5 117 L 91.5 114 Z " /><path fill="rgb(30,18,130)" stroke="rgb(30,18,130)" stroke-width="1" opacity="0.33725490196078434" d="M 121.5 114 L 120.5 116 L 116.5 118 L 117.5 116 L 121.5 114 Z " /><path fill="rgb(30,18,130)" stroke="rgb(30,18,130)" stroke-width="1" opacity="0.33725490196078434" d="M 68.5 117 L 71 118.5 L 69.5 118 L 68.5 117 Z " /><path fill="rgb(30,18,130)" stroke="rgb(30,18,130)" stroke-width="1" opacity="0.33725490196078434" d="M 95.5 117 L 101 120.5 L 99.5 120 Q 95.5 119.5 95.5 117 Z " /><path fill="rgb(30,18,130)" stroke="rgb(30,18,130)" stroke-width="1" opacity="0.33725490196078434" d="M 114.5 118 L 113.5 120 L 111.5 121 L 112.5 119 L 114.5 118 Z " /><path fill="rgb(30,18,130)" stroke="rgb(30,18,130)" stroke-width="1" opacity="0.33725490196078434" d="M 72.5 119 L 83 125.5 L 81.5 125 L 73.5 121 L 72.5 119 Z " /><path fill="rgb(30,18,130)" stroke="rgb(30,18,130)" stroke-width="1" opacity="0.33725490196078434" d="M 104.5 122 L 108 122.5 L 104.5 123 L 104.5 122 Z " /><path fill="rgb(30,18,130)" stroke="rgb(30,18,130)" stroke-width="1" opacity="0.33725490196078434" d="M 130.5 124 L 129.5 126 L 127.5 127 L 128.5 125 L 130.5 124 Z " /><path fill="rgb(30,18,130)" stroke="rgb(30,18,130)" stroke-width="1" opacity="0.33725490196078434" d="M 65.5 126 L 70 128.5 L 68.5 128 Q 64.8 127.7 65.5 126 Z " /><path fill="rgb(30,18,130)" stroke="rgb(30,18,130)" stroke-width="1" opacity="0.33725490196078434" d="M 84.5 126 L 95 132.5 L 93.5 132 L 85.5 128 L 84.5 126 Z " /><path fill="rgb(30,18,130)" stroke="rgb(30,18,130)" stroke-width="1" opacity="0.33725490196078434" d="M 199.5 126 L 220 126.5 L 199.5 127 L 197 129.5 L 197 147.5 L 199 149.5 L 196 147.5 L 196 129.5 L 197 127 L 199.5 126 Z " /><path fill="rgb(30,18,130)" stroke="rgb(30,18,130)" stroke-width="1" opacity="0.33725490196078434" d="M 224 126 L 245 126.5 L 225 127 L 224.5 150 L 224 126 Z " /><path fill="rgb(30,18,130)" stroke="rgb(30,18,130)" stroke-width="1" opacity="0.33725490196078434" d="M 252 126 L 257.5 126 L 258 126.5 L 258 144.5 L 257 144.5 L 257 127.5 L 253 127 L 253 147.5 L 255 149.5 L 252 147.5 L 252 126 Z " /><path fill="rgb(30,18,130)" stroke="rgb(30,18,130)" stroke-width="1" opacity="0.33725490196078434" d="M 271.5 126 L 276 126.5 L 271.5 127 L 271.5 126 Z " /><path fill="rgb(30,18,130)" stroke="rgb(30,18,130)" stroke-width="1" opacity="0.33725490196078434" d="M 283.5 126 L 304 126.5 L 283.5 127 L 281 129.5 L 281 147.5 L 282.5 149 L 284 149.5 L 282.5 150 L 280 147.5 L 280 129.5 L 281 127 L 283.5 126 Z " /><path fill="rgb(30,18,130)" stroke="rgb(30,18,130)" stroke-width="1" opacity="0.33725490196078434" d="M 311.5 126 L 329 126.5 L 311.5 127 L 309 129.5 L 308.5 145 L 308 129.5 L 309 127 L 311.5 126 Z " /><path fill="rgb(30,18,130)" stroke="rgb(30,18,130)" stroke-width="1" opacity="0.33725490196078434" d="M 336 126 L 360 126.5 L 337 127 L 337 131 L 346 131 L 346 149.5 L 345 149.5 L 345 132 L 336 132 L 336 126 Z " /><path fill="rgb(30,18,130)" stroke="rgb(30,18,130)" stroke-width="1" opacity="0.33725490196078434" d="M 367.5 126 L 388 126.5 L 367.5 127 L 365 129.5 L 365 147.5 L 366.5 149 L 368 149.5 L 366.5 150 L 364 147.5 L 364 129.5 L 365 127 L 367.5 126 Z " /><path fill="rgb(30,18,130)" stroke="rgb(30,18,130)" stroke-width="1" opacity="0.33725490196078434" d="M 395.5 126 L 416 126.5 L 395.5 127 L 393 129.5 L 393 147.5 L 394.5 149 L 396 149.5 L 394.5 150 L 392 147.5 L 392 129.5 L 393 127 L 395.5 126 Z " /><path fill="rgb(30,18,130)" stroke="rgb(30,18,130)" stroke-width="1" opacity="0.33725490196078434" d="M 420 126 L 426 126 L 426 135 L 438.5 135 L 438.5 136 L 425 136 L 425 127 L 421 127 L 420.5 150 L 420 126 Z " /><path fill="rgb(30,18,130)" stroke="rgb(30,18,130)" stroke-width="1" opacity="0.33725490196078434" d="M 439.5 126 L 444 126.5 L 439.5 127 L 439.5 126 Z " /><path fill="rgb(30,18,130)" stroke="rgb(30,18,130)" stroke-width="1" opacity="0.33725490196078434" d="M 125.5 127 L 124.5 129 L 115.5 134 L 116.5 132 L 125.5 127 Z " /><path fill="rgb(30,18,130)" stroke="rgb(30,18,130)" stroke-width="1" opacity="0.33725490196078434" d="M 246.5 127 L 248 129.5 L 247 129.5 L 246.5 127 Z " /><path fill="rgb(30,18,130)" stroke="rgb(30,18,130)" stroke-width="1" opacity="0.33725490196078434" d="M 330.5 127 L 332 129.5 L 331 129.5 L 330.5 127 Z " /><path fill="rgb(30,18,130)" stroke="rgb(30,18,130)" stroke-width="1" opacity="0.33725490196078434" d="M 63.5 128 L 64 160.5 L 63 160.5 L 63.5 128 Z " /><path fill="rgb(30,18,130)" stroke="rgb(30,18,130)" stroke-width="1" opacity="0.33725490196078434" d="M 71.5 129 L 75 131.5 L 73.5 131 L 71.5 129 Z " /><path fill="rgb(30,18,130)" stroke="rgb(30,18,130)" stroke-width="1" opacity="0.33725490196078434" d="M 169.5 130 L 168.5 132 L 169.5 130 Z " /><path fill="rgb(30,18,130)" stroke="rgb(30,18,130)" stroke-width="1" opacity="0.33725490196078434" d="M 201 131 L 220 131.5 L 202 132 L 202.5 135 L 219.5 135 L 219.5 136 L 201.5 136 L 201 131 Z " /><path fill="rgb(30,18,130)" stroke="rgb(30,18,130)" stroke-width="1" opacity="0.33725490196078434" d="M 229 131 L 243 131.5 L 230 132 L 229.5 145 L 229 131 Z " /><path fill="rgb(30,18,130)" stroke="rgb(30,18,130)" stroke-width="1" opacity="0.33725490196078434" d="M 285 131 L 304 131.5 L 286 132 L 285.5 145 L 285 131 Z " /><path fill="rgb(30,18,130)" stroke="rgb(30,18,130)" stroke-width="1" opacity="0.33725490196078434" d="M 313 131 L 327 131.5 L 314 132 L 314.5 135 L 326.5 135 L 326.5 136 L 313 136 L 313 131 Z " /><path fill="rgb(30,18,130)" stroke="rgb(30,18,130)" stroke-width="1" opacity="0.33725490196078434" d="M 350 131 L 360 131.5 L 351 132 L 350.5 150 L 350 131 Z " /><path fill="rgb(30,18,130)" stroke="rgb(30,18,130)" stroke-width="1" opacity="0.33725490196078434" d="M 369 131 L 388 131.5 L 370 132 L 370.5 135 L 387.5 135 L 387.5 136 L 369.5 136 L 369 131 Z " /><path fill="rgb(30,18,130)" stroke="rgb(30,18,130)" stroke-width="1" opacity="0.33725490196078434" d="M 397 131 L 416 131.5 L 398 132 L 397.5 145 L 397 131 Z " /><path fill="rgb(30,18,130)" stroke="rgb(30,18,130)" stroke-width="1" opacity="0.33725490196078434" d="M 166.5 132 L 165.5 134 L 163.5 135 L 164.5 133 L 166.5 132 Z " /><path fill="rgb(30,18,130)" stroke="rgb(30,18,130)" stroke-width="1" opacity="0.33725490196078434" d="M 96.5 133 L 102 136.5 L 100.5 136 Q 96.5 135.5 96.5 133 Z " /><path fill="rgb(30,18,130)" stroke="rgb(30,18,130)" stroke-width="1" opacity="0.33725490196078434" d="M 113.5 134 L 112.5 136 L 107.5 138 L 107.5 137 L 113.5 134 Z " /><path fill="rgb(30,18,130)" stroke="rgb(30,18,130)" stroke-width="1" opacity="0.33725490196078434" d="M 161.5 135 L 160.5 137 L 157 136.5 L 161.5 135 Z " /><path fill="rgb(30,18,130)" stroke="rgb(30,18,130)" stroke-width="1" opacity="0.33725490196078434" d="M 202.5 140 L 208 140.5 L 202 141 L 201.5 145 L 201 141.5 L 202.5 140 Z " /><path fill="rgb(30,18,130)" stroke="rgb(30,18,130)" stroke-width="1" opacity="0.33725490196078434" d="M 211.5 140 L 220 140.5 L 211.5 141 L 211.5 140 Z " /><path fill="rgb(30,18,130)" stroke="rgb(30,18,130)" stroke-width="1" opacity="0.33725490196078434" d="M 314.5 140 L 325 140.5 L 314 141 L 313.5 150 L 313 141.5 L 314.5 140 Z " /><path fill="rgb(30,18,130)" stroke="rgb(30,18,130)" stroke-width="1" opacity="0.33725490196078434" d="M 370.5 140 L 375 140.5 L 370 141 L 369.5 145 L 369 141.5 L 370.5 140 Z " /><path fill="rgb(30,18,130)" stroke="rgb(30,18,130)" stroke-width="1" opacity="0.33725490196078434" d="M 379.5 140 L 382 140.5 L 379.5 141 L 379.5 140 Z " /><path fill="rgb(30,18,130)" stroke="rgb(30,18,130)" stroke-width="1" opacity="0.33725490196078434" d="M 383.5 140 L 388 140.5 L 383.5 141 L 383.5 140 Z " /><path fill="rgb(30,18,130)" stroke="rgb(30,18,130)" stroke-width="1" opacity="0.33725490196078434" d="M 426.5 140 L 439 140.5 L 426 141 L 425.5 150 L 425 141.5 L 426.5 140 Z " /><path fill="rgb(30,18,130)" stroke="rgb(30,18,130)" stroke-width="1" opacity="0.33725490196078434" d="M 167.5 142 Q 170.8 140.9 170 143.5 L 168.5 143 L 167.5 142 Z " /><path fill="rgb(30,18,130)" stroke="rgb(30,18,130)" stroke-width="1" opacity="0.33725490196078434" d="M 165.5 143 L 164.5 145 L 157.5 149 L 158.5 147 L 165.5 143 Z " /><path fill="rgb(30,18,130)" stroke="rgb(30,18,130)" stroke-width="1" opacity="0.33725490196078434" d="M 208.5 145 L 218 145.5 L 208.5 146 L 208.5 145 Z " /><path fill="rgb(30,18,130)" stroke="rgb(30,18,130)" stroke-width="1" opacity="0.33725490196078434" d="M 233.5 145 L 242 145.5 L 233.5 146 L 233.5 145 Z " /><path fill="rgb(30,18,130)" stroke="rgb(30,18,130)" stroke-width="1" opacity="0.33725490196078434" d="M 263.5 145 L 270 145.5 L 263.5 146 L 263.5 145 Z " /><path fill="rgb(30,18,130)" stroke="rgb(30,18,130)" stroke-width="1" opacity="0.33725490196078434" d="M 292.5 145 L 304 145.5 L 292.5 146 L 292.5 145 Z " /><path fill="rgb(30,18,130)" stroke="rgb(30,18,130)" stroke-width="1" opacity="0.33725490196078434" d="M 382.5 145 L 386 145.5 L 382.5 146 L 382.5 145 Z " /><path fill="rgb(30,18,130)" stroke="rgb(30,18,130)" stroke-width="1" opacity="0.33725490196078434" d="M 405.5 145 L 416 145.5 L 405.5 146 L 405.5 145 Z " /><path fill="rgb(30,18,130)" stroke="rgb(30,18,130)" stroke-width="1" opacity="0.33725490196078434" d="M 247.5 146 L 248 147.5 L 245 149.5 L 247.5 146 Z " /><path fill="rgb(30,18,130)" stroke="rgb(30,18,130)" stroke-width="1" opacity="0.33725490196078434" d="M 275.5 146 L 276 147.5 L 273 149.5 L 275.5 146 Z " /><path fill="rgb(30,18,130)" stroke="rgb(30,18,130)" stroke-width="1" opacity="0.33725490196078434" d="M 308.5 147 L 309 149.5 L 308 149.5 L 308.5 147 Z " /><path fill="rgb(30,18,130)" stroke="rgb(30,18,130)" stroke-width="1" opacity="0.33725490196078434" d="M 156.5 150 L 157 166.5 L 156 166.5 L 156.5 150 Z " /><path fill="rgb(30,18,130)" stroke="rgb(30,18,130)" stroke-width="1" opacity="0.33725490196078434" d="M 77.5 155 L 78.5 157 L 77.5 155 Z " /><path fill="rgb(30,18,130)" stroke="rgb(30,18,130)" stroke-width="1" opacity="0.33725490196078434" d="M 134.5 155 L 133.5 157 L 134.5 155 Z " /><path fill="rgb(30,18,130)" stroke="rgb(30,18,130)" stroke-width="1" opacity="0.33725490196078434" d="M 80.5 157 L 84 159.5 L 82.5 159 L 80.5 157 Z " /><path fill="rgb(30,18,130)" stroke="rgb(30,18,130)" stroke-width="1" opacity="0.33725490196078434" d="M 131.5 157 L 130.5 159 L 126.5 161 L 127.5 159 L 131.5 157 Z " /><path fill="rgb(30,18,130)" stroke="rgb(30,18,130)" stroke-width="1" opacity="0.33725490196078434" d="M 85.5 160 L 96 166.5 L 94.5 166 L 86.5 162 L 85.5 160 Z " /><path fill="rgb(30,18,130)" stroke="rgb(30,18,130)" stroke-width="1" opacity="0.33725490196078434" d="M 124.5 161 L 123.5 163 L 121.5 164 L 122.5 162 L 124.5 161 Z " /><path fill="rgb(30,18,130)" stroke="rgb(30,18,130)" stroke-width="1" opacity="0.33725490196078434" d="M 147.5 162 L 148 163.5 L 144.5 166 L 145.5 164 Q 148 164.7 147.5 162 Z " /><path fill="rgb(30,18,130)" stroke="rgb(30,18,130)" stroke-width="1" opacity="0.33725490196078434" d="M 64.5 163 L 65.5 165 L 64.5 163 Z " /><path fill="rgb(30,18,130)" stroke="rgb(30,18,130)" stroke-width="1" opacity="0.33725490196078434" d="M 119.5 164 L 118.5 166 L 114.5 168 L 115.5 166 L 119.5 164 Z " /><path fill="rgb(30,18,130)" stroke="rgb(30,18,130)" stroke-width="1" opacity="0.33725490196078434" d="M 67.5 165 L 73 168.5 L 71.5 168 Q 67.5 167.5 67.5 165 Z " /><path fill="rgb(30,18,130)" stroke="rgb(30,18,130)" stroke-width="1" opacity="0.33725490196078434" d="M 55.5 166 L 57 168.5 L 55 167.5 L 55.5 166 Z " /><path fill="rgb(30,18,130)" stroke="rgb(30,18,130)" stroke-width="1" opacity="0.33725490196078434" d="M 142.5 166 L 141.5 168 L 137.5 170 L 138.5 168 L 142.5 166 Z " /><path fill="rgb(30,18,130)" stroke="rgb(30,18,130)" stroke-width="1" opacity="0.33725490196078434" d="M 97.5 167 L 101 169.5 L 99.5 169 L 97.5 167 Z " /><path fill="rgb(30,18,130)" stroke="rgb(30,18,130)" stroke-width="1" opacity="0.33725490196078434" d="M 112.5 168 L 111.5 170 L 104.5 172 L 104.5 171 Q 110.6 171.6 112.5 168 Z " /><path fill="rgb(30,18,130)" stroke="rgb(30,18,130)" stroke-width="1" opacity="0.33725490196078434" d="M 155.5 168 L 153.5 171 L 155.5 168 Z " /><path fill="rgb(30,18,130)" stroke="rgb(30,18,130)" stroke-width="1" opacity="0.33725490196078434" d="M 74.5 169 L 78 171.5 L 76.5 171 L 74.5 169 Z " /><path fill="rgb(30,18,130)" stroke="rgb(30,18,130)" stroke-width="1" opacity="0.33725490196078434" d="M 135.5 170 L 134.5 172 L 130.5 174 L 131.5 172 L 135.5 170 Z " /><path fill="rgb(30,18,130)" stroke="rgb(30,18,130)" stroke-width="1" opacity="0.33725490196078434" d="M 60.5 171 L 64 173.5 L 62.5 173 L 60.5 171 Z " /><path fill="rgb(30,18,130)" stroke="rgb(30,18,130)" stroke-width="1" opacity="0.33725490196078434" d="M 151.5 171 L 150.5 173 L 148.5 174 L 149.5 172 L 151.5 171 Z " /><path fill="rgb(30,18,130)" stroke="rgb(30,18,130)" stroke-width="1" opacity="0.33725490196078434" d="M 81.5 173 L 85 175.5 L 83.5 175 L 81.5 173 Z " /><path fill="rgb(30,18,130)" stroke="rgb(30,18,130)" stroke-width="1" opacity="0.33725490196078434" d="M 169.5 173 L 170 175.5 L 157.5 184 L 158.5 182 L 169 175.5 L 169.5 173 Z " /><path fill="rgb(30,18,130)" stroke="rgb(30,18,130)" stroke-width="1" opacity="0.33725490196078434" d="M 42.5 174 L 46 178.5 L 42 175.5 L 42.5 174 Z " /><path fill="rgb(30,18,130)" stroke="rgb(30,18,130)" stroke-width="1" opacity="0.33725490196078434" d="M 65.5 174 L 69 176.5 L 67.5 176 L 65.5 174 Z " /><path fill="rgb(30,18,130)" stroke="rgb(30,18,130)" stroke-width="1" opacity="0.33725490196078434" d="M 128.5 174 L 127.5 176 L 125.5 177 L 126.5 175 L 128.5 174 Z " /><path fill="rgb(30,18,130)" stroke="rgb(30,18,130)" stroke-width="1" opacity="0.33725490196078434" d="M 146.5 174 L 145.5 176 L 141.5 178 L 142.5 176 L 146.5 174 Z " /><path fill="rgb(30,18,130)" stroke="rgb(30,18,130)" stroke-width="1" opacity="0.33725490196078434" d="M 86.5 176 L 92 179.5 L 90.5 179 Q 86.5 178.5 86.5 176 Z " /><path fill="rgb(30,18,130)" stroke="rgb(30,18,130)" stroke-width="1" opacity="0.33725490196078434" d="M 123.5 177 L 122.5 179 L 118.5 181 L 119.5 179 L 123.5 177 Z " /><path fill="rgb(30,18,130)" stroke="rgb(30,18,130)" stroke-width="1" opacity="0.33725490196078434" d="M 72.5 178 L 76 180.5 L 74.5 180 L 72.5 178 Z " /><path fill="rgb(30,18,130)" stroke="rgb(30,18,130)" stroke-width="1" opacity="0.33725490196078434" d="M 139.5 178 L 138.5 180 L 134.5 182 L 135.5 180 L 139.5 178 Z " /><path fill="rgb(30,18,130)" stroke="rgb(30,18,130)" stroke-width="1" opacity="0.33725490196078434" d="M 47.5 179 L 53 182.5 L 51.5 182 Q 47.5 181.5 47.5 179 Z " /><path fill="rgb(30,18,130)" stroke="rgb(30,18,130)" stroke-width="1" opacity="0.33725490196078434" d="M 93.5 180 L 97 182.5 L 95.5 182 L 93.5 180 Z " /><path fill="rgb(30,18,130)" stroke="rgb(30,18,130)" stroke-width="1" opacity="0.33725490196078434" d="M 77.5 181 L 83 184.5 L 81.5 184 Q 77.5 183.5 77.5 181 Z " /><path fill="rgb(30,18,130)" stroke="rgb(30,18,130)" stroke-width="1" opacity="0.33725490196078434" d="M 116.5 181 L 115.5 183 L 113.5 184 L 114.5 182 L 116.5 181 Z " /><path fill="rgb(30,18,130)" stroke="rgb(30,18,130)" stroke-width="1" opacity="0.33725490196078434" d="M 132.5 182 L 131.5 184 L 129.5 185 L 130.5 183 L 132.5 182 Z " /><path fill="rgb(30,18,130)" stroke="rgb(30,18,130)" stroke-width="1" opacity="0.33725490196078434" d="M 54.5 183 L 58 185.5 L 56.5 185 L 54.5 183 Z " /><path fill="rgb(30,18,130)" stroke="rgb(30,18,130)" stroke-width="1" opacity="0.33725490196078434" d="M 100.5 184 Q 102.8 186.8 108 186.5 L 103.5 187 L 100.5 184 Z " /><path fill="rgb(30,18,130)" stroke="rgb(30,18,130)" stroke-width="1" opacity="0.33725490196078434" d="M 111.5 184 L 110.5 186 L 109 185.5 L 111.5 184 Z " /><path fill="rgb(30,18,130)" stroke="rgb(30,18,130)" stroke-width="1" opacity="0.33725490196078434" d="M 155.5 184 L 154.5 186 L 152.5 187 L 153.5 185 L 155.5 184 Z " /><path fill="rgb(30,18,130)" stroke="rgb(30,18,130)" stroke-width="1" opacity="0.33725490196078434" d="M 84.5 185 L 88 187.5 L 86.5 187 L 84.5 185 Z " /><path fill="rgb(30,18,130)" stroke="rgb(30,18,130)" stroke-width="1" opacity="0.33725490196078434" d="M 127.5 185 L 126.5 187 L 122.5 189 L 123.5 187 L 127.5 185 Z " /><path fill="rgb(30,18,130)" stroke="rgb(30,18,130)" stroke-width="1" opacity="0.33725490196078434" d="M 59.5 186 L 65 189.5 L 63.5 189 Q 59.5 188.5 59.5 186 Z " /><path fill="rgb(30,18,130)" stroke="rgb(30,18,130)" stroke-width="1" opacity="0.33725490196078434" d="M 150.5 187 L 149.5 189 L 145.5 191 L 146.5 189 L 150.5 187 Z " /><path fill="rgb(30,18,130)" stroke="rgb(30,18,130)" stroke-width="1" opacity="0.33725490196078434" d="M 89.5 188 L 95 191.5 L 93.5 191 Q 89.5 190.5 89.5 188 Z " /><path fill="rgb(30,18,130)" stroke="rgb(30,18,130)" stroke-width="1" opacity="0.33725490196078434" d="M 120.5 189 L 119.5 191 L 117.5 192 L 118.5 190 L 120.5 189 Z " /><path fill="rgb(30,18,130)" stroke="rgb(30,18,130)" stroke-width="1" opacity="0.33725490196078434" d="M 66.5 190 L 70 192.5 L 68.5 192 L 66.5 190 Z " /><path fill="rgb(30,18,130)" stroke="rgb(30,18,130)" stroke-width="1" opacity="0.33725490196078434" d="M 143.5 191 L 142.5 193 L 140.5 194 L 141.5 192 L 143.5 191 Z " /><path fill="rgb(30,18,130)" stroke="rgb(30,18,130)" stroke-width="1" opacity="0.33725490196078434" d="M 96.5 192 L 102 195.5 L 100.5 195 Q 96.5 194.5 96.5 192 Z " /><path fill="rgb(30,18,130)" stroke="rgb(30,18,130)" stroke-width="1" opacity="0.33725490196078434" d="M 115.5 192 L 114.5 194 L 110.5 196 L 111.5 194 L 115.5 192 Z " /><path fill="rgb(30,18,130)" stroke="rgb(30,18,130)" stroke-width="1" opacity="0.33725490196078434" d="M 71.5 193 L 77 196.5 L 75.5 196 Q 71.5 195.5 71.5 193 Z " /><path fill="rgb(30,18,130)" stroke="rgb(30,18,130)" stroke-width="1" opacity="0.33725490196078434" d="M 138.5 194 L 137.5 196 L 133.5 198 L 134.5 196 L 138.5 194 Z " /><path fill="rgb(30,18,130)" stroke="rgb(30,18,130)" stroke-width="1" opacity="0.33725490196078434" d="M 78.5 197 L 84 200.5 L 82.5 200 Q 78.5 199.5 78.5 197 Z " /><path fill="rgb(30,18,130)" stroke="rgb(30,18,130)" stroke-width="1" opacity="0.33725490196078434" d="M 131.5 198 L 130.5 200 L 128.5 201 L 129.5 199 L 131.5 198 Z " /><path fill="rgb(30,18,130)" stroke="rgb(30,18,130)" stroke-width="1" opacity="0.33725490196078434" d="M 85.5 201 L 89 203.5 L 87.5 203 L 85.5 201 Z " /><path fill="rgb(30,18,130)" stroke="rgb(30,18,130)" stroke-width="1" opacity="0.33725490196078434" d="M 126.5 201 L 125.5 203 L 121.5 205 L 122.5 203 L 126.5 201 Z " /><path fill="rgb(30,18,130)" stroke="rgb(30,18,130)" stroke-width="1" opacity="0.33725490196078434" d="M 90.5 204 L 96 207.5 L 94.5 207 Q 90.5 206.5 90.5 204 Z " /><path fill="rgb(30,18,130)" stroke="rgb(30,18,130)" stroke-width="1" opacity="0.33725490196078434" d="M 119.5 205 L 118.5 207 L 116.5 208 L 117.5 206 L 119.5 205 Z " /><path fill="rgb(30,18,130)" stroke="rgb(30,18,130)" stroke-width="1" opacity="0.33725490196078434" d="M 97.5 208 L 101 210.5 L 99.5 210 L 97.5 208 Z " /><path fill="rgb(30,18,130)" stroke="rgb(30,18,130)" stroke-width="1" opacity="0.33725490196078434" d="M 114.5 208 L 113.5 210 L 107.5 213 L 104.5 213 L 104.5 212 L 107.5 212 L 114.5 208 Z " /><path fill="rgb(23,2,167)" stroke="rgb(23,2,167)" stroke-width="1" opacity="0.9882352941176471" d="M 102.5 66 L 108.5 66 L 114.5 69 L 162.5 97 L 169 102.5 L 170 104.5 L 170 129.5 L 162.5 135 L 157 136 L 157 110.5 L 152.5 106 L 111.5 82 L 104.5 80 L 56 108.5 L 54 112.5 L 54 164.5 L 58.5 171 L 97.5 194 L 103.5 197 L 108.5 197 L 145.5 176 L 156 168.5 L 157 166.5 L 157 149.5 L 158.5 148 L 168.5 143 L 170 144.5 L 170 172.5 L 166.5 178 L 115.5 208 L 107.5 212 L 103.5 212 L 46.5 179 L 43 175.5 L 42 173.5 L 42 103.5 L 44.5 100 L 102.5 66 Z " /><path fill="rgb(23,2,167)" stroke="rgb(23,2,167)" stroke-width="1" opacity="0.9882352941176471" d="M 104.5 91 L 111.5 93 L 124 101.5 L 114.5 108 L 110.5 108 Q 109.3 104.8 103.5 106 L 91 114.5 Q 97 121 107.5 123 L 129.5 110 L 136.5 108 L 147 114.5 L 148 116.5 L 148 161.5 L 147 164 L 112.5 184 Q 109.8 186.8 103.5 186 L 64 162.5 L 64 127.5 L 66.5 127 L 76 132 L 77 134.5 L 77 155.5 L 78.5 157 L 98.5 169 L 104.5 172 L 107.5 172 L 135 155.5 L 134.5 122 L 105.5 138 L 68 117 Q 66.8 112.4 69.5 111 L 104.5 91 Z " /><path fill="rgb(23,2,167)" stroke="rgb(23,2,167)" stroke-width="1" opacity="0.9882352941176471" d="M 199.5 127 L 219.5 127 L 220 131 L 201.5 131 L 201 136 L 219.5 136 L 220 140 L 211.5 140 L 210.5 141 L 207.5 140 Q 202.3 138.8 201 141.5 L 201 145 L 207.5 145 L 208.5 146 L 217.5 146 Q 218.8 143.8 220 146.5 L 219.5 150 L 199.5 150 L 197 147.5 L 197 129.5 L 199.5 127 Z " /><path fill="rgb(23,2,167)" stroke="rgb(23,2,167)" stroke-width="1" opacity="0.9882352941176471" d="M 225 127 L 245.5 127 L 247 128.5 L 248 130.5 L 248 145.5 L 244.5 150 L 225 150 L 225 127 Z M 229 131 L 229 145 L 234 146 L 242 146 L 243 145 L 243 131 L 229 131 Z " /><path fill="rgb(23,2,167)" stroke="rgb(23,2,167)" stroke-width="1" opacity="0.9882352941176471" d="M 253 127 L 257 127.5 L 257 145 L 262.5 145 Q 264 147.5 269.5 146 L 271 144.5 L 271 127 L 276 127.5 L 276 145.5 L 272.5 150 L 255.5 150 L 253 147.5 L 253 127 Z " /><path fill="rgb(23,2,167)" stroke="rgb(23,2,167)" stroke-width="1" opacity="0.9882352941176471" d="M 283.5 127 L 303.5 127 L 304 131 L 285 131 L 285 145 L 304 146 L 303.5 150 L 284.5 150 L 281 147.5 L 281 129.5 L 283.5 127 Z " /><path fill="rgb(23,2,167)" stroke="rgb(23,2,167)" stroke-width="1" opacity="0.9882352941176471" d="M 311.5 127 L 329.5 127 L 331 128.5 L 332 130.5 L 332 150 L 327 150 L 327 141.5 L 325.5 141 L 324.5 140 L 314.5 140 L 313 141.5 L 313 150 Q 307.8 152.1 309 147.5 L 308 145.5 L 309 144.5 L 309 129.5 L 311.5 127 Z M 313 131 L 313 136 L 327 136 L 327 131 L 313 131 Z " /><path fill="rgb(23,2,167)" stroke="rgb(23,2,167)" stroke-width="1" opacity="0.9882352941176471" d="M 337 127 L 359.5 127 L 360 131 L 350 131 L 350 149.5 L 346 150 L 346 131 L 337 131 L 337 127 Z " /><path fill="rgb(23,2,167)" stroke="rgb(23,2,167)" stroke-width="1" opacity="0.9882352941176471" d="M 367.5 127 L 387.5 127 L 388 131 L 369.5 131 L 369 136 L 387.5 136 L 388 140 L 382.5 141 L 379.5 140 L 375.5 141 L 370.5 140 Q 368 141.2 369 145 L 377.5 145 L 378.5 146 L 381.5 145 L 385.5 146 Q 386.8 143.8 388 146.5 L 387.5 150 L 368.5 150 L 365 147.5 L 365 129.5 L 367.5 127 Z " /><path fill="rgb(23,2,167)" stroke="rgb(23,2,167)" stroke-width="1" opacity="0.9882352941176471" d="M 395.5 127 L 415.5 127 L 416 131 L 397 131 L 397 145 L 416 146 L 415.5 150 L 396.5 150 L 393 147.5 L 393 129.5 L 395.5 127 Z " /><path fill="rgb(23,2,167)" stroke="rgb(23,2,167)" stroke-width="1" opacity="0.9882352941176471" d="M 421 127 L 425 127 L 425 136 L 439 136 L 439 127 L 444 127 L 444 149.5 L 439 150 L 439 140 L 426.5 140 L 425 141.5 L 425 150 L 421 149.5 L 421 127 Z " /></svg>