<?xml version="1.0" encoding="UTF-8"?>
<svg version="1.1" xmlns="http://www.w3.org/2000/svg" width="408" height="612">
<path d="M0 0 C0.8765625 0.66128906 1.753125 1.32257813 2.65625 2.00390625 C15.67403781 12.02211344 15.67403781 12.02211344 18 19 C18.66 19 19.32 19 20 19 C23.69671451 22.88600411 26.34920308 27.52239115 28.8125 32.25 C33.45959236 40.97242205 38.60580919 50.02553466 48 54 C48.76570313 54.34804687 49.53140625 54.69609375 50.3203125 55.0546875 C54.25879515 56.44406476 58.11426321 56.44958919 62.2578125 56.65625 C65 57 65 57 68 59 C69.41223488 67.86177389 68.18436982 74.78106644 63 82 C62.4225 82.969375 61.845 83.93875 61.25 84.9375 C56.23794054 91.75946983 51.45773341 97.26306376 44 101.375 C41.28208805 103.26736033 39.36967755 104.62851379 38.48486328 107.91113281 C37.9910242 112.03657438 38.0595116 116.14800443 38.08203125 120.296875 C38.11704523 135.75689491 34.25971683 151.53577873 29 166 C28.6596875 166.96164062 28.319375 167.92328125 27.96875 168.9140625 C25.9167373 174.39161252 23.27487428 179.16566177 20 184 C19.525625 184.825 19.05125 185.65 18.5625 186.5 C17 188 17 188 13.875 188.3125 C11 188 11 188 10 187 C9.91233062 185.64167849 9.89304694 184.27884062 9.90234375 182.91772461 C9.90729858 181.61387062 9.90729858 181.61387062 9.91235352 180.28367615 C9.92065186 179.33283646 9.9289502 178.38199677 9.9375 177.40234375 C9.94317993 175.92985924 9.94317993 175.92985924 9.94897461 174.42762756 C9.96528572 170.22017262 9.9929592 166.01281418 10.02050781 161.80541992 C10.11034568 146.81313458 10.1689514 131.87280959 8 117 C6.1746875 117.433125 6.1746875 117.433125 4.3125 117.875 C-8.29948635 120.61990458 -20.45168601 121.40345379 -33.3125 121.375 C-34.19440002 121.37478851 -35.07630005 121.37457703 -35.98492432 121.37435913 C-50.31158885 121.34013138 -64.02735534 120.37878942 -78 117 C-78.79374023 116.81276367 -79.58748047 116.62552734 -80.40527344 116.43261719 C-85.67186269 115.15833588 -90.8405075 113.65210924 -96 112 C-96.80920898 111.74347656 -97.61841797 111.48695313 -98.45214844 111.22265625 C-113.04846521 106.53118342 -127.34002216 100.80363189 -140 92 C-140.96292969 91.33613281 -141.92585938 90.67226563 -142.91796875 89.98828125 C-148.76974398 85.85718011 -148.76974398 85.85718011 -151 84 C-151 83.34 -151 82.68 -151 82 C-152.98 81.01 -152.98 81.01 -155 80 C-155 79.34 -155 78.68 -155 78 C-156.98 77.01 -156.98 77.01 -159 76 C-159 75.34 -159 74.68 -159 74 C-160.98 73.01 -160.98 73.01 -163 72 C-164.50286552 75.52595372 -165.52733849 78.9528031 -166.375 82.6875 C-169.05414688 93.48327414 -173.15934739 101.20688186 -180 110 C-180.53496094 110.76570312 -181.06992188 111.53140625 -181.62109375 112.3203125 C-182.07613281 112.87460937 -182.53117187 113.42890625 -183 114 C-183.66 114 -184.32 114 -185 114 C-185.22816406 114.53238281 -185.45632812 115.06476563 -185.69140625 115.61328125 C-187.73843835 119.34682338 -190.54594035 122.53261756 -193.27929688 125.78320312 C-198.96480316 132.87525791 -200.46648061 140.37127133 -200.328125 149.3046875 C-200.32625183 150.1504837 -200.32437866 150.99627991 -200.32244873 151.8677063 C-200.31577987 153.63743086 -200.30196998 155.40714199 -200.28125 157.17675781 C-200.24984005 159.88881079 -200.2402456 162.60028233 -200.234375 165.3125 C-200.22521336 167.03906962 -200.21484027 168.76563332 -200.203125 170.4921875 C-200.19887512 171.30154755 -200.19462524 172.11090759 -200.19024658 172.9447937 C-200.14849841 176.21047236 -200.03966132 178.88101605 -199 182 C-199.9375 185.1875 -199.9375 185.1875 -201 188 C-203.75 188.3125 -203.75 188.3125 -207 188 C-223.15929793 170.47825147 -229.10894161 139.72100165 -233 117 C-233.20302734 115.92177979 -233.20302734 115.92177979 -233.41015625 114.82177734 C-238.4890589 87.76289399 -238.26958616 62.10024968 -222.8046875 38.578125 C-217.63225761 31.21075254 -217.63225761 31.21075254 -214 30 C-213.69964844 29.3915625 -213.39929688 28.783125 -213.08984375 28.15625 C-209.70704365 21.46339819 -200.44099007 17.95949669 -193.6953125 15.7109375 C-189.78464738 14.67942873 -186.03314019 14.26446821 -182 14 C-181.896875 13.29875 -181.79375 12.5975 -181.6875 11.875 C-178.85237652 0.0190291 -169.39916159 -8.40936164 -159.4375 -14.58984375 C-113.06798082 -41.07708363 -41.35049019 -32.44518884 0 0 Z " fill="#584135" transform="translate(296,185)"/>
<path d="M0 0 C0.33 0 0.66 0 1 0 C1.12375 0.804375 1.2475 1.60875 1.375 2.4375 C1.58125 3.283125 1.7875 4.12875 2 5 C2.66 5.33 3.32 5.66 4 6 C3.75552124 6.97876099 3.75552124 6.97876099 3.50610352 7.97729492 C2.86869122 11.78424216 2.87627867 15.51686345 2.90234375 19.36328125 C2.9037587 20.15526413 2.90517365 20.94724701 2.90663147 21.76322937 C2.91220543 24.27969219 2.92475307 26.79606431 2.9375 29.3125 C2.94251837 31.02408725 2.94708069 32.73567591 2.95117188 34.44726562 C2.96216632 38.63154508 2.97941293 42.81575719 3 47 C2.34 47 1.68 47 1 47 C1 49.64 1 52.28 1 55 C0.67 55 0.34 55 0 55 C0 36.85 0 18.7 0 0 Z " fill="#C1B7B2" transform="translate(306,317)"/>
<path d="M0 0 C0.66 0.33 1.32 0.66 2 1 C0.68 2.32 -0.64 3.64 -2 5 C-1.67 5.66 -1.34 6.32 -1 7 C-3.36145926 10.34540061 -5.67644454 13.61523134 -8.3125 16.75 C-10.3 18.93125 -10.3 18.93125 -10 22 C-11.32 21.67 -12.64 21.34 -14 21 C-13.34 21 -12.68 21 -12 21 C-11.896875 20.29875 -11.79375 19.5975 -11.6875 18.875 C-9.96111541 11.65557354 -5.21628197 5.21628197 0 0 Z " fill="#988A85" transform="translate(126,178)"/>
<path d="M0 0 C0.99 0.33 1.98 0.66 3 1 C3.58553104 10.14729606 3.37484853 16.44961754 -2 24 C-2.598125 25.010625 -3.19625 26.02125 -3.8125 27.0625 C-4.204375 27.701875 -4.59625 28.34125 -5 29 C-5.5534764 26.92446352 -6 25.15634036 -6 23 C-5.01 22.67 -4.02 22.34 -3 22 C-2.29508733 19.67793475 -1.62787571 17.34406932 -1 15 C-0.34 14.67 0.32 14.34 1 14 C1.02694851 12.04174127 1.04637218 10.08337774 1.0625 8.125 C1.07410156 7.03445312 1.08570313 5.94390625 1.09765625 4.8203125 C1.19744303 2.04822454 1.19744303 2.04822454 0 0 Z " fill="#B4AAA4" transform="translate(361,243)"/>
<path d="M0 0 C-1.45855647 3.68646141 -3.30229045 5.16143971 -6.625 7.25 C-7.44226563 7.77078125 -8.25953125 8.2915625 -9.1015625 8.828125 C-10.04128906 9.40820312 -10.04128906 9.40820312 -11 10 C-11.33 8.68 -11.66 7.36 -12 6 C-10.75945552 4.98829382 -9.5071298 3.99102203 -8.25 3 C-7.55390625 2.443125 -6.8578125 1.88625 -6.140625 1.3125 C-4 0 -4 0 0 0 Z " fill="#7E7068" transform="translate(98,204)"/>
<path d="M0 0 C3.38746512 1.12915504 4.37451366 2.22743073 6.6875 4.875 C7.31011719 5.57367188 7.93273437 6.27234375 8.57421875 6.9921875 C10 9 10 9 10 12 C9.01 11.34 8.02 10.68 7 10 C6.67 10.66 6.34 11.32 6 12 C5.566875 11.2575 5.13375 10.515 4.6875 9.75 C3.0978775 7.03564674 3.0978775 7.03564674 1.3125 4.875 C0 3 0 3 0 0 Z " fill="#9B8F88" transform="translate(303,192)"/>
<path d="M0 0 C0.99 0.66 1.98 1.32 3 2 C2.67 3.32 2.34 4.64 2 6 C2.99 6 3.98 6 5 6 C4.67 6.99 4.34 7.98 4 9 C2.02 9 0.04 9 -2 9 C-1.125 1.125 -1.125 1.125 0 0 Z " fill="#7B695F" transform="translate(309,364)"/>
<path d="M0 0 C2.475 0.99 2.475 0.99 5 2 C4.95875 2.763125 4.9175 3.52625 4.875 4.3125 C4.77919176 7.22718416 4.77919176 7.22718416 7 10 C5.68 9.34 4.36 8.68 3 8 C3 7.34 3 6.68 3 6 C1.68 5.34 0.36 4.68 -1 4 C-0.67 2.68 -0.34 1.36 0 0 Z " fill="#918279" transform="translate(138,257)"/>
<path d="M0 0 C0.33 0 0.66 0 1 0 C1.12375 0.804375 1.2475 1.60875 1.375 2.4375 C1.58125 3.283125 1.7875 4.12875 2 5 C2.66 5.33 3.32 5.66 4 6 C3.7834375 7.051875 3.7834375 7.051875 3.5625 8.125 C2.98521625 11.07556141 2.48304859 14.03270151 2 17 C1.67 17 1.34 17 1 17 C0.1679418 11.27959989 -0.12036664 5.77759884 0 0 Z " fill="#978C85" transform="translate(306,317)"/>
<path d="M0 0 C0.928125 0.5259375 0.928125 0.5259375 1.875 1.0625 C2.57625 1.371875 3.2775 1.68125 4 2 C4.66 1.67 5.32 1.34 6 1 C4.60667426 4.36720387 3.0210714 5.9859524 0 8 C-1.125 2.25 -1.125 2.25 0 0 Z " fill="#83746A" transform="translate(347,273)"/>
<path d="M0 0 C2.64752004 2.57784846 4.94432065 4.91648098 7 8 C5.68 8.33 4.36 8.66 3 9 C1.68 7.35 0.36 5.7 -1 4 C-0.34 4 0.32 4 1 4 C0.67 2.68 0.34 1.36 0 0 Z " fill="#8B7C74" transform="translate(331,229)"/>
<path d="M0 0 C0.66 0.33 1.32 0.66 2 1 C2.625 3.0625 2.625 3.0625 3 5 C1.88625 5.474375 0.7725 5.94875 -0.375 6.4375 C-2.26710994 7.25306463 -4.15712709 8.07856355 -6 9 C-4.47291037 5.56404834 -2.40072955 2.88087546 0 0 Z " fill="#A0958E" transform="translate(80,215)"/>
<path d="M0 0 C0 3 0 3 -1 5 C-0.34 5.33 0.32 5.66 1 6 C0.34 6.598125 -0.32 7.19625 -1 7.8125 C-3.3373846 9.87501834 -3.3373846 9.87501834 -3 13 C-4.32 12.67 -5.64 12.34 -7 12 C-6.34 12 -5.68 12 -5 12 C-4.896875 11.29875 -4.79375 10.5975 -4.6875 9.875 C-3.84996394 6.37257648 -2.60307892 2.60307892 0 0 Z " fill="#B1A6A0" transform="translate(119,187)"/>
<path d="M0 0 C2.96844435 -0.35338623 5.15598218 -0.5417682 7.734375 1.11328125 C9.20348819 2.35503168 10.60704814 3.67337918 12 5 C9 6 9 6 6.73828125 5.00390625 C5.93777344 4.52824219 5.13726562 4.05257813 4.3125 3.5625 C3.50425781 3.08941406 2.69601563 2.61632812 1.86328125 2.12890625 C1.24839844 1.75636719 0.63351563 1.38382812 0 1 C0 0.67 0 0.34 0 0 Z " fill="#A49894" transform="translate(164,281)"/>
<path d="M0 0 C0.66 0.66 1.32 1.32 2 2 C2.99 2 3.98 2 5 2 C3.95125002 4.62187494 3.35068687 5.79371361 0.875 7.25 C0.25625 7.4975 -0.3625 7.745 -1 8 C-1.625 5.125 -1.625 5.125 -2 2 C-1.34 1.34 -0.68 0.68 0 0 Z " fill="#77655C" transform="translate(72,226)"/>
<path d="M0 0 C-0.33 0.99 -0.66 1.98 -1 3 C-4.0625 4.1875 -4.0625 4.1875 -7 5 C-6.625 2.5625 -6.625 2.5625 -6 0 C-3.50907189 -1.24546405 -2.58919267 -0.7767578 0 0 Z M0 -1 C2 0 2 0 2 0 Z " fill="#604C41" transform="translate(79,224)"/>
<path d="M0 0 C0.99 0 1.98 0 3 0 C2.44894091 3.9492568 1.61064629 7.34920174 0 11 C-0.66 9.68 -1.32 8.36 -2 7 C-1.34 7 -0.68 7 0 7 C-0.185625 6.401875 -0.37125 5.80375 -0.5625 5.1875 C-1 3 -1 3 0 0 Z " fill="#988C86" transform="translate(323,345)"/>
<path d="M0 0 C1.32 1.32 2.64 2.64 4 4 C3.34 4.66 2.68 5.32 2 6 C-0.625 5.625 -0.625 5.625 -3 5 C-3 4.01 -3 3.02 -3 2 C-2.34 2 -1.68 2 -1 2 C-0.67 1.34 -0.34 0.68 0 0 Z " fill="#513B30" transform="translate(302,192)"/>
<path d="M0 0 C-1.98 0.33 -3.96 0.66 -6 1 C-6 1.66 -6 2.32 -6 3 C-5.34 3.33 -4.68 3.66 -4 4 C-4.99 4.33 -5.98 4.66 -7 5 C-9.1875 3.5625 -9.1875 3.5625 -11 2 C-3.57142857 -1.57142857 -3.57142857 -1.57142857 0 0 Z " fill="#A39891" transform="translate(109,201)"/>
<path d="M0 0 C5.75 0.75 5.75 0.75 8 3 C6.35 2.67 4.7 2.34 3 2 C3.33 3.32 3.66 4.64 4 6 C3.01 6.33 2.02 6.66 1 7 C0.67 6.34 0.34 5.68 0 5 C0.9375 2.875 0.9375 2.875 2 1 C1.34 0.67 0.68 0.34 0 0 Z " fill="#988880" transform="translate(263,168)"/>
<path d="M0 0 C2.17532857 2.17532857 2.3662254 3.10274469 3 6 C3.33 6.66 3.66 7.32 4 8 C1.50638429 6.79618552 -0.68143083 5.54571278 -3 4 C-3 3.34 -3 2.68 -3 2 C-2.01 2 -1.02 2 0 2 C0 1.34 0 0.68 0 0 Z " fill="#A59B95" transform="translate(148,265)"/>
<path d="M0 0 C1.65 0.33 3.3 0.66 5 1 C3.68 2.32 2.36 3.64 1 5 C0.34 4.67 -0.32 4.34 -1 4 C-0.67 2.68 -0.34 1.36 0 0 Z " fill="#8E827B" transform="translate(340,282)"/>
<path d="M0 0 C0.66 0.33 1.32 0.66 2 1 C1.690625 1.598125 1.38125 2.19625 1.0625 2.8125 C-0.10209704 5.08956772 -0.10209704 5.08956772 -1 8 C-1.66 7.34 -2.32 6.68 -3 6 C-2.63318342 3.06546739 -2.13562754 2.13562754 0 0 Z M1 3 C1.33 3.66 1.66 4.32 2 5 C1.34 4.67 0.68 4.34 0 4 C0.33 3.67 0.66 3.34 1 3 Z " fill="#92837B" transform="translate(134,172)"/>
<path d="M0 0 C2.79872437 2.52788007 4.45773019 4.20411134 5 8 C3.0625 7.375 3.0625 7.375 1 6 C0.25 2.875 0.25 2.875 0 0 Z " fill="#ADA39D" transform="translate(322,215)"/>
</svg>
