<?xml version="1.0" encoding="UTF-8"?>
<svg version="1.1" xmlns="http://www.w3.org/2000/svg" width="408" height="612">
<path d="M0 0 C6.79935547 3.49646572 9.66960488 8.0381616 12.0625 15.1640625 C13.09885882 19.40449733 13.22804786 23.10552642 13.125 27.4375 C13.11597656 28.16904297 13.10695312 28.90058594 13.09765625 29.65429688 C13.07436153 31.43634298 13.0385019 33.21821759 13 35 C14.30324219 34.95359375 15.60648438 34.9071875 16.94921875 34.859375 C21.87839857 34.86322969 26.11887236 35.82733076 30.8125 37.25 C31.99078369 37.59550903 31.99078369 37.59550903 33.19287109 37.94799805 C34.7572452 38.41070251 36.31982801 38.8795154 37.88037109 39.35498047 C39.67186192 39.90014503 41.47003663 40.4232722 43.26953125 40.94140625 C54.22418999 44.28325153 65.58621316 49.38286054 74.421875 56.7734375 C76.1802185 58.14007082 77.98515662 59.06265982 80 60 C80 60.66 80 61.32 80 62 C80.70511719 62.226875 81.41023437 62.45375 82.13671875 62.6875 C85.57774534 64.26483279 88.08481543 66.43800354 90.8125 69 C91.59536377 69.72388916 91.59536377 69.72388916 92.39404297 70.46240234 C96.51741382 74.35733159 100.07786876 78.55563036 103.4765625 83.1015625 C104.87039067 85.10923382 104.87039067 85.10923382 107 86 C108.02137457 87.65365406 109.01612294 89.32376502 110 91 C111.16402344 92.56814453 111.16402344 92.56814453 112.3515625 94.16796875 C115.08456112 97.97196028 117.11260594 101.93887539 119.0625 106.1875 C119.40756592 106.93362549 119.75263184 107.67975098 120.1081543 108.44848633 C125.25098458 119.75687574 130 132.44502466 130 145 C131.216875 144.9175 132.43375 144.835 133.6875 144.75 C136.5365759 144.55684231 137.99889745 144.99947339 140.6027832 146.24316406 C144.52248102 150.75087643 143.67315651 155.72810262 143.59375 161.5 C143.59379028 162.72783203 143.59383057 163.95566406 143.59387207 165.22070312 C143.58851098 167.81645832 143.57090357 170.41221278 143.54199219 173.0078125 C143.50015905 176.98487868 143.50092123 180.96025107 143.5078125 184.9375 C143.49731966 187.45834512 143.48438106 189.9791815 143.46875 192.5 C143.46854858 193.69173828 143.46834717 194.88347656 143.46813965 196.11132812 C143.44427185 197.77325195 143.44427185 197.77325195 143.41992188 199.46875 C143.41150269 200.44263672 143.4030835 201.41652344 143.39440918 202.41992188 C142.93496029 205.4254656 142.06487554 206.80023626 140 209 C137.35978784 210.07021984 134.81654895 210.4459248 132 211 C135.45078683 251.71661189 135.45078683 251.71661189 150.390625 289.1640625 C152 292 152 292 152 294 C152.66 294 153.32 294 154 294 C154.103125 294.639375 154.20625 295.27875 154.3125 295.9375 C154.6528125 296.9584375 154.6528125 296.9584375 155 298 C155.99 298.33 156.98 298.66 158 299 C162.03782279 303.38392189 162.78756799 307.25625681 162.59375 313.17578125 C161.54669778 318.15616781 158.4742498 321.42903661 155 325 C154.47019531 325.5775 153.94039063 326.155 153.39453125 326.75 C152 328 152 328 150 328 C150 328.66 150 329.32 150 330 C145.52941176 334 145.52941176 334 143 334 C142.67 334.99 142.34 335.98 142 337 C139.63671875 339.0078125 139.63671875 339.0078125 136.6875 341.125 C135.72199219 341.82882812 134.75648438 342.53265625 133.76171875 343.2578125 C131 345 131 345 128.70703125 345.5546875 C128.14371094 345.70164062 127.58039063 345.84859375 127 346 C126.67 346.99 126.34 347.98 126 349 C123.875 350.47265625 123.875 350.47265625 121 352.0625 C119.91203125 352.67222656 118.8240625 353.28195312 117.703125 353.91015625 C117.10693359 354.24289551 116.51074219 354.57563477 115.89648438 354.91845703 C113.90297786 356.0553306 111.94283984 357.2374309 109.984375 358.43359375 C100.59872591 364.14217645 91.13892337 368.79605616 81 373 C79.37234028 373.7442102 77.74682101 374.4931502 76.125 375.25 C72.4610637 376.87917993 68.76095682 378.06170362 64.90625 379.15625 C62.07061533 379.97949877 59.26483279 380.87783139 56.45629883 381.78857422 C27.59293099 391.0664593 27.59293099 391.0664593 17 389 C15 386 15 386 15 371 C3.12 371 -8.76 371 -21 371 C-21 376.28 -21 381.56 -21 387 C-23.5477516 389.5477516 -24.51648729 389.32622403 -28.0625 389.375 C-42.52213468 389.09925011 -56.50531254 383.75423514 -70 379 C-70.98355469 378.66097656 -71.96710938 378.32195312 -72.98046875 377.97265625 C-75.67178678 377.02397682 -78.3369244 376.02537469 -81 375 C-81.89307861 374.6589624 -81.89307861 374.6589624 -82.80419922 374.31103516 C-111.96074429 363.07699886 -149.36079861 344.17419769 -168 318 C-169.59712091 313.20863728 -169.58050244 308.74150731 -168 304 C-167.67 303.34 -167.34 302.68 -167 302 C-166.34 302 -165.68 302 -165 302 C-164.72542969 301.40832031 -164.45085937 300.81664062 -164.16796875 300.20703125 C-163.04940704 298.09336113 -161.84383006 296.5125098 -160.3125 294.6875 C-146.83255732 276.95593725 -143.84236204 253.66407306 -141.47265625 232.18359375 C-140.76352575 225.7743187 -139.8741194 219.3885109 -139 213 C-140.8871875 212.8453125 -140.8871875 212.8453125 -142.8125 212.6875 C-145.24171704 212.48838385 -146.62262153 212.27563933 -148.60243225 210.82957458 C-150.56784488 208.25662669 -150.38744944 206.43301738 -150.40405273 203.21508789 C-150.41673691 202.02698013 -150.42942108 200.83887238 -150.44248962 199.61476135 C-150.43955399 198.33036667 -150.43661835 197.04597198 -150.43359375 195.72265625 C-150.4388356 194.40462509 -150.44407745 193.08659393 -150.44947815 191.72862244 C-150.45841271 188.93853185 -150.45598285 186.14872742 -150.44604492 183.35864258 C-150.434559 179.78611365 -150.45475732 176.2145737 -150.48396206 172.64217472 C-150.50674067 169.23144946 -150.49985686 165.82095579 -150.49609375 162.41015625 C-150.50732773 161.1277858 -150.51856171 159.84541534 -150.53013611 158.52418518 C-150.52075516 157.33292526 -150.51137421 156.14166534 -150.50170898 154.91430664 C-150.50154282 153.86634415 -150.50137665 152.81838165 -150.50120544 151.73866272 C-149.87361106 148.30939162 -148.71332564 147.12179048 -146 145 C-143.640625 144.609375 -143.640625 144.609375 -141.25 144.75 C-140.45078125 144.78609375 -139.6515625 144.8221875 -138.828125 144.859375 C-138.22484375 144.90578125 -137.6215625 144.9521875 -137 145 C-136.78085938 143.73027344 -136.56171875 142.46054688 -136.3359375 141.15234375 C-134.33717997 130.11179302 -131.69032902 120.21137026 -127 110 C-126.66097656 109.24847656 -126.32195312 108.49695313 -125.97265625 107.72265625 C-125.04417235 105.77403554 -124.04134313 103.89066554 -123 102 C-122.53335938 101.113125 -122.06671875 100.22625 -121.5859375 99.3125 C-111.87100179 81.63223786 -95.85990983 64.45524638 -78 55 C-76.65421875 54.08154297 -76.65421875 54.08154297 -75.28125 53.14453125 C-59.76275819 43.00208839 -39.71216458 34.32655449 -21 35 C-21.02356567 34.15405273 -21.02356567 34.15405273 -21.04760742 33.29101562 C-21.11061574 30.69411565 -21.14919598 28.09737725 -21.1875 25.5 C-21.21263672 24.613125 -21.23777344 23.72625 -21.26367188 22.8125 C-21.33758128 16.11138093 -20.74869364 10.29218534 -16.28125 4.94140625 C-15.6934375 4.48636719 -15.105625 4.03132813 -14.5 3.5625 C-13.9121875 3.08941406 -13.324375 2.61632812 -12.71875 2.12890625 C-8.83917355 -0.4192701 -4.48423749 -0.83780238 0 0 Z " fill="#D89639" transform="translate(207,86)"/>
<path d="M0 0 C1.23820952 -0.01041829 1.23820952 -0.01041829 2.50143337 -0.02104706 C5.27149292 -0.03936483 8.04070065 -0.02903967 10.81079102 -0.01878357 C12.79501997 -0.02583959 14.77924353 -0.03458326 16.76345825 -0.04489136 C22.15596786 -0.06742944 27.54818459 -0.06443545 32.94072342 -0.05556989 C37.43901159 -0.05046717 41.93724438 -0.05774666 46.43552685 -0.06504196 C57.04471344 -0.08205468 67.65375624 -0.07846086 78.26293945 -0.06175232 C89.21712056 -0.04482384 100.1709034 -0.06067259 111.12504101 -0.0929752 C120.52301329 -0.11964148 129.92086136 -0.12695528 139.31886768 -0.11846012 C144.93498892 -0.11352297 150.55087038 -0.11578932 156.16696167 -0.13624763 C161.44645921 -0.15455854 166.72538211 -0.14870221 172.00484848 -0.12404823 C173.94468776 -0.119026 175.88457049 -0.12256651 177.82437515 -0.13519669 C180.46838194 -0.15105283 183.11047911 -0.13624807 185.75439453 -0.11352539 C186.52598624 -0.12536112 187.29757795 -0.13719685 188.09255123 -0.14939123 C191.88250008 -0.08300284 193.53982215 0.19879826 196.34947205 2.82931614 C198.36093295 6.36494648 198.44374886 8.96306869 198.43969727 13.0146637 C198.46161133 14.3037262 198.48352539 15.5927887 198.50610352 16.9209137 C197.71697454 21.43022211 196.31579988 22.57374724 192.87719727 25.5146637 C190.02310181 26.87953186 190.02310181 26.87953186 186.85620117 27.93067932 C185.66370758 28.334599 184.47121399 28.73851868 183.24258423 29.15467834 C181.94640933 29.57706354 180.65013174 29.99913374 179.35375977 30.4209137 C178.00635026 30.87131584 176.65938243 31.32304123 175.31283569 31.77601624 C171.76863163 32.96434085 168.21875303 34.13471619 164.6673584 35.30134583 C161.10482622 36.47503116 157.5478932 37.66542085 153.99047852 38.85450745 C148.72732381 40.61161084 143.46136293 42.35982704 138.19213867 44.09864807 C136.99840637 44.49849915 135.80467407 44.89835022 134.57476807 45.31031799 C131.97373654 46.15750695 129.38242642 46.95899303 126.75726318 47.72096252 C126.0784075 47.92613747 125.39955181 48.13131241 124.70012474 48.34270477 C122.81329042 48.91182366 120.92027144 49.46032108 119.02694702 50.00746155 C116.04281674 51.43541231 114.22385684 52.54348301 112.56399727 55.44501877 C110.91583297 60.41169736 111.31093896 65.78228094 111.33129883 70.95558167 C111.32255736 72.32591929 111.31206957 73.69624672 111.29997253 75.06655884 C111.27216155 78.77484452 111.26870675 82.48279635 111.26969242 86.19117117 C111.26655907 90.07097913 111.24093211 93.95063767 111.2177124 97.83036804 C111.1771811 105.17189629 111.15681848 112.51333577 111.14373851 119.85495865 C111.12785871 128.21535682 111.08943898 136.57560416 111.04914522 144.93591475 C110.96678548 162.12880928 110.91564417 179.32160637 110.87719727 196.5146637 C98.99719727 196.5146637 87.11719727 196.5146637 74.87719727 196.5146637 C74.84746826 190.33658997 74.84746826 190.33658997 74.81713867 184.03370667 C74.75027243 170.43501195 74.67273184 156.83639575 74.58967018 143.23779106 C74.53956457 134.99188463 74.49312141 126.74598804 74.45532227 118.50001526 C74.42236431 111.3121928 74.38251208 104.12444716 74.33440721 96.93670952 C74.30918001 93.13143828 74.28738761 89.32621775 74.2738533 85.52088547 C74.26099858 81.93726935 74.23890763 78.35382747 74.20981407 74.77030754 C74.19645866 72.83203364 74.19282339 70.89370036 74.1894989 68.9553833 C74.17833542 67.79439621 74.16717194 66.63340912 74.15567017 65.4372406 C74.15013941 64.43248625 74.14460865 63.4277319 74.13891029 62.39253044 C73.8457149 59.16847517 73.07721902 56.51615825 71.87719727 53.5146637 C70.30471858 52.14369214 70.30471858 52.14369214 68.24047852 51.4834137 C67.43046387 51.17017151 66.62044922 50.85692932 65.78588867 50.53419495 C64.82602051 50.19774963 63.86615234 49.86130432 62.87719727 49.5146637 C61.74330566 49.10603088 60.60941406 48.69739807 59.44116211 48.27638245 C56.06884585 47.075876 52.68327213 45.91727082 49.29275513 44.76930237 C47.01978944 43.99945351 44.74903111 43.22334713 42.47851562 42.44630432 C34.24348835 39.63513181 25.98962474 36.88874531 17.71313477 34.2021637 C16.06048194 33.66264901 14.40789317 33.12293808 12.75537109 32.58302307 C9.592758 31.54976773 6.42549292 30.53283955 3.25488281 29.52442932 C1.80717612 29.05302846 0.35965623 28.58105341 -1.08764648 28.1084137 C-1.74338654 27.90466125 -2.39912659 27.70090881 -3.07473755 27.49098206 C-6.9929688 26.19300759 -9.59886295 24.81856159 -12.12280273 21.5146637 C-12.64038086 19.56349182 -12.64038086 19.56349182 -12.65405273 17.5459137 C-12.65920898 16.80985901 -12.66436523 16.07380432 -12.66967773 15.31544495 C-12.65420898 14.55618713 -12.63874023 13.79692932 -12.62280273 13.0146637 C-12.63827148 12.25540588 -12.65374023 11.49614807 -12.66967773 10.71388245 C-12.66452148 9.97782776 -12.65936523 9.24177307 -12.65405273 8.4834137 C-12.64954102 7.81761292 -12.6450293 7.15181213 -12.64038086 6.46583557 C-10.93808698 0.04850882 -5.6784156 -0.06064671 0 0 Z " fill="#36231D" transform="translate(111.122802734375,259.48533630371094)"/>
<path d="M0 0 C2.31 0 4.62 0 7 0 C7 0.66 7 1.32 7 2 C7.99 2 8.98 2 10 2 C10 5.63 10 9.26 10 13 C12.475 13.99 12.475 13.99 15 15 C40.48763595 30.75662277 63.80296892 54.89764749 75 83 C75.40476562 83.79792969 75.80953125 84.59585938 76.2265625 85.41796875 C89.43755349 111.58163526 95.65729993 143.79710329 95 173 C96.65 173.33 98.3 173.66 100 174 C96.89776644 175.00327002 95.12632976 174.9950723 92.05859375 173.92578125 C91.31601318 173.67256104 90.57343262 173.41934082 89.80834961 173.15844727 C89.02596924 172.87928467 88.24358887 172.60012207 87.4375 172.3125 C86.62611572 172.03140381 85.81473145 171.75030762 84.97875977 171.46069336 C82.64890808 170.65030006 80.32428958 169.8261793 78 169 C76.9996875 168.65453125 75.999375 168.3090625 74.96875 167.953125 C72.29397539 167.0120006 69.64617721 166.01886823 67 165 C66.10692139 164.6589624 66.10692139 164.6589624 65.19580078 164.31103516 C36.03925571 153.07699886 -1.36079861 134.17419769 -20 108 C-21.59712091 103.20863728 -21.58050244 98.74150731 -20 94 C-19.505 93.01 -19.505 93.01 -19 92 C-18.34 92 -17.68 92 -17 92 C-16.72542969 91.40832031 -16.45085938 90.81664062 -16.16796875 90.20703125 C-15.04940704 88.09336113 -13.84383006 86.5125098 -12.3125 84.6875 C1.16744268 66.95593725 4.15763796 43.66407306 6.52734375 22.18359375 C7.23647425 15.7743187 8.1258806 9.3885109 9 3 C7.700625 2.87625 6.40125 2.7525 5.0625 2.625 C2.84765625 2.4140625 2.84765625 2.4140625 1 2 C0.67 1.34 0.34 0.68 0 0 Z " fill="#D9973A" transform="translate(59,296)"/>
<path d="M0 0 C0.33 0 0.66 0 1 0 C1.10022461 0.92522461 1.20044922 1.85044922 1.30371094 2.80371094 C4.91706955 41.55388919 4.91706955 41.55388919 19.390625 77.1640625 C21 80 21 80 21 82 C21.66 82 22.32 82 23 82 C23.103125 82.639375 23.20625 83.27875 23.3125 83.9375 C23.539375 84.618125 23.76625 85.29875 24 86 C25.485 86.495 25.485 86.495 27 87 C31.03782279 91.38392189 31.78756799 95.25625681 31.59375 101.17578125 C30.54669778 106.15616781 27.4742498 109.42903661 24 113 C23.47019531 113.5775 22.94039063 114.155 22.39453125 114.75 C21 116 21 116 19 116 C19 116.66 19 117.32 19 118 C14.52941176 122 14.52941176 122 12 122 C11.505 123.485 11.505 123.485 11 125 C8.63671875 127.0078125 8.63671875 127.0078125 5.6875 129.125 C4.72199219 129.82882812 3.75648438 130.53265625 2.76171875 131.2578125 C0 133 0 133 -2.29296875 133.5546875 C-2.85628906 133.70164062 -3.41960937 133.84859375 -4 134 C-4.33 134.99 -4.66 135.98 -5 137 C-7.125 138.47265625 -7.125 138.47265625 -10 140.0625 C-11.08796875 140.67222656 -12.1759375 141.28195312 -13.296875 141.91015625 C-13.89306641 142.24289551 -14.48925781 142.57563477 -15.10351562 142.91845703 C-17.09702214 144.0553306 -19.05716016 145.2374309 -21.015625 146.43359375 C-30.40127409 152.14217645 -39.86107663 156.79605616 -50 161 C-51.62765972 161.7442102 -53.25317899 162.4931502 -54.875 163.25 C-58.52115389 164.87127293 -62.20126708 166.05317714 -66.0390625 167.13671875 C-68.40714224 167.82714833 -70.7435863 168.56145033 -73.0859375 169.33203125 C-73.80322021 169.56543213 -74.52050293 169.79883301 -75.25952148 170.03930664 C-76.69347394 170.50721782 -78.12536296 170.98150836 -79.55493164 171.46264648 C-84.66443127 173.11185624 -84.66443127 173.11185624 -88 172 C-87.34 172 -86.68 172 -86 172 C-85.94054199 171.23260498 -85.88108398 170.46520996 -85.81982422 169.67456055 C-83.90092169 145.87910899 -80.57068509 122.44200926 -72 100 C-71.55011719 98.78957031 -71.10023438 97.57914062 -70.63671875 96.33203125 C-65.89260511 83.84325347 -59.90521499 72.00148775 -53.125 60.5 C-52.7436792 59.84644531 -52.3623584 59.19289063 -51.96948242 58.51953125 C-51.03815241 56.97617242 -50.02627386 55.48192241 -49 54 C-48.34 54 -47.68 54 -47 54 C-46.75121094 53.43410156 -46.50242187 52.86820312 -46.24609375 52.28515625 C-40.59639903 41.92443082 -27.98639163 30.16181611 -18 24 C-17.34 24 -16.68 24 -16 24 C-16 23.34 -16 22.68 -16 22 C-15.34 22 -14.68 22 -14 22 C-14 21.34 -14 20.68 -14 20 C-11.69921875 18.30859375 -11.69921875 18.30859375 -8.6875 16.4375 C-7.20830078 15.50744141 -7.20830078 15.50744141 -5.69921875 14.55859375 C-3 13 -3 13 0 12 C0 8.04 0 4.08 0 0 Z " fill="#D9983B" transform="translate(338,298)"/>
<path d="M0 0 C3.32625726 1.74780931 5.44638974 4.02459145 7.3125 7.3125 C9.47542269 15.76756144 9.10144897 24.34302122 9 33 C6.36 33 3.72 33 1 33 C1 68.97 1 104.94 1 142 C12.735625 141.979375 24.47125 141.95875 36.5625 141.9375 C43.63025274 141.93272328 50.69789344 141.92823978 57.765625 141.9375 C59.04637783 141.93917679 59.04637783 141.93917679 60.35300446 141.94088745 C75.50928639 141.96480627 90.65941666 142.10621878 105.8125 142.4375 C106.76601349 142.45714813 107.71952698 142.47679626 108.70193481 142.49703979 C111.34964469 142.55343821 113.99706934 142.61663825 116.64453125 142.68359375 C117.38689026 142.70031128 118.12924927 142.71702881 118.894104 142.73425293 C136.23190218 143.23190218 136.23190218 143.23190218 140 147 C140.10932553 148.72760238 140.14907896 150.45965772 140.16113281 152.19067383 C140.17074036 153.29884964 140.1803479 154.40702545 140.19024658 155.54878235 C140.1966214 157.35961555 140.1966214 157.35961555 140.203125 159.20703125 C140.20882507 160.43910812 140.21452515 161.671185 140.22039795 162.94059753 C140.22986621 165.55422095 140.23638914 168.1678564 140.24023438 170.78149414 C140.24462474 173.4635983 140.25853287 176.14538178 140.28125 178.82739258 C140.31165 182.68320548 140.32227634 186.53861199 140.328125 190.39453125 C140.3404718 191.59568069 140.3528186 192.79683014 140.36553955 194.03437805 C140.36253845 195.15201035 140.35953735 196.26964264 140.35644531 197.42114258 C140.36009094 198.40407791 140.36373657 199.38701324 140.36749268 200.3997345 C139.9085214 203.6472745 139.57616334 204.91489684 137 207 C134.03 207 131.06 207 128 207 C128 190.83 128 174.66 128 158 C113.70840118 157.82127523 99.41689145 157.65139236 85.125 157.5 C84.00468636 157.48812275 82.88437271 157.4762455 81.73011017 157.46400833 C32.61191677 156.95037974 -16.50457707 156.91425182 -65.625 156.9375 C-66.54777331 156.93792423 -67.47054663 156.93834846 -68.42128277 156.93878555 C-92.28086509 156.94993931 -116.1404338 156.97016584 -140 157 C-139.99885445 157.77431775 -139.99770889 158.5486355 -139.99652863 159.34641743 C-139.99195154 162.89085666 -139.98912616 166.43529526 -139.98632812 169.97973633 C-139.98449524 171.19776192 -139.98266235 172.41578751 -139.98077393 173.67072296 C-139.97583138 182.02335435 -140.107459 190.34335135 -140.5 198.6875 C-140.54769531 199.80576172 -140.59539062 200.92402344 -140.64453125 202.07617188 C-140.75790245 204.71772089 -140.8761944 207.35892357 -141 210 C-141.99 210 -142.98 210 -144 210 C-144 209.34 -144 208.68 -144 208 C-145.9490625 208.0309375 -145.9490625 208.0309375 -147.9375 208.0625 C-149.29165633 208.08399454 -150.64756083 208.07148199 -152 208 C-153 207 -153 207 -153.12025452 204.60191345 C-153.11803391 203.53824051 -153.11581329 202.47456757 -153.11352539 201.37866211 C-153.11344986 200.17749252 -153.11337433 198.97632294 -153.11329651 197.73875427 C-153.10813522 196.4314888 -153.10297394 195.12422333 -153.09765625 193.77734375 C-153.09579198 192.43355868 -153.09436812 191.08977293 -153.09336853 189.74598694 C-153.08954402 186.20317723 -153.07971432 182.6604083 -153.06866455 179.11761475 C-153.05844899 175.50484773 -153.0538706 171.89207416 -153.04882812 168.27929688 C-153.03809198 161.1861812 -153.02101636 154.09309326 -153 147 C-149.47263825 145.52510251 -146.57199204 144.70641261 -142.75 144.4375 C-139.56912027 144.44505015 -139.56912027 144.44505015 -137 143 C-134.95439073 142.83932455 -132.90322053 142.7493367 -130.85229492 142.68579102 C-130.20205416 142.66513266 -129.55181339 142.6444743 -128.88186836 142.62318993 C-126.6857014 142.55630834 -124.4894192 142.49818055 -122.29296875 142.44140625 C-121.52667837 142.42034883 -120.76038799 142.39929142 -119.97087669 142.3775959 C-99.73875892 141.83156289 -79.50456949 141.88441842 -59.2668457 141.93133545 C-54.25016727 141.94180327 -49.23348322 141.94618178 -44.21679688 141.95117188 C-34.47785064 141.96170695 -24.7389281 141.97863473 -15 142 C-15.01474869 141.34237671 -15.02949738 140.68475342 -15.04469299 140.00720215 C-15.23287774 131.50509997 -15.40421687 123.00270734 -15.5625 114.5 C-15.57523327 113.81657658 -15.58796654 113.13315315 -15.60108566 112.42901993 C-16.08779778 85.93129572 -15.82955649 59.49125638 -15 33 C-17.31 33 -19.62 33 -22 33 C-21.91923802 29.22828169 -21.80638565 25.45819404 -21.6875 21.6875 C-21.65366211 20.0797168 -21.65366211 20.0797168 -21.61914062 18.43945312 C-21.58369141 17.41142578 -21.54824219 16.38339844 -21.51171875 15.32421875 C-21.48553467 14.37635498 -21.45935059 13.42849121 -21.43237305 12.4519043 C-20.92694577 9.58572354 -20.12763269 8.88327226 -18 7 C-17.67 6.01 -17.34 5.02 -17 4 C-11.972521 -1.69780953 -7.09276033 -1.61048679 0 0 Z " fill="#BE8235" transform="translate(210,88)"/>
<path d="M0 0 C0.33 0 0.66 0 1 0 C1.74626315 4.53285766 2.03654679 8.49974487 1 13 C-2.53095508 16.58927415 -6.43710728 18.90814752 -11 21 C-11.66 21 -12.32 21 -13 21 C-13 21.66 -13 22.32 -13 23 C-13.66 23 -14.32 23 -15 23 C-15 23.66 -15 24.32 -15 25 C-16.34084249 25.88213322 -17.68485688 26.75961553 -19.0390625 27.62109375 C-28.1685837 34.04085667 -37.6718671 42.92044305 -44 52.125 C-44.66 53.07375 -45.32 54.0225 -46 55 C-46.66 55 -47.32 55 -48 55 C-48.25523437 55.69609375 -48.51046875 56.3921875 -48.7734375 57.109375 C-50.14583765 60.34369382 -51.82883846 63.23015869 -53.625 66.25 C-70.70054047 95.61992961 -80.07101593 127.99854224 -82.87353516 161.74536133 C-82.97843262 162.90189209 -83.08333008 164.05842285 -83.19140625 165.25 C-83.27592041 166.28640625 -83.36043457 167.3228125 -83.44750977 168.390625 C-84.06165154 171.29117615 -84.56926457 172.33264479 -87 174 C-90.6875 174.1875 -90.6875 174.1875 -94 174 C-94.15556704 166.11534384 -93.79633147 158.50169069 -92.75 150.6875 C-92.61505127 149.65915039 -92.48010254 148.63080078 -92.34106445 147.57128906 C-87.89592776 114.55890842 -79.87842042 83.90944856 -61 56 C-60.34 55.01 -59.68 54.02 -59 53 C-58.34 53 -57.68 53 -57 53 C-56.74347656 52.25596924 -56.48695313 51.51193848 -56.22265625 50.74536133 C-54.94282113 47.87161015 -53.65368981 46.28005514 -51.4375 44.07421875 C-50.72746826 43.36354248 -50.01743652 42.65286621 -49.28588867 41.9206543 C-48.53154541 41.18371338 -47.77720215 40.44677246 -47 39.6875 C-46.23341064 38.92928955 -45.46682129 38.1710791 -44.67700195 37.38989258 C-39.98519093 32.79709624 -35.24881807 28.46858833 -29.98046875 24.54296875 C-27.80156286 22.84539907 -25.94869549 20.95609092 -24 19 C-22.31200649 17.55915819 -20.60294811 16.1426746 -18.875 14.75 C-18.00617188 14.04359375 -17.13734375 13.3371875 -16.2421875 12.609375 C-14 11 -14 11 -12 11 C-12 10.34 -12 9.68 -12 9 C-10.23810568 7.58061562 -8.41435143 6.23733457 -6.5625 4.9375 C-3.13481849 2.64887381 -3.13481849 2.64887381 0 0 Z " fill="#BE8234" transform="translate(337,297)"/>
<path d="M0 0 C4.05529241 1.62211696 6.62695715 2.9936998 10.0625 5.5 C12.96461902 7.61063201 15.73856835 9.49356506 19 11 C19 11.66 19 12.32 19 13 C20.09248047 13.38478516 20.09248047 13.38478516 21.20703125 13.77734375 C37.92923267 21.09769206 54.33110288 40.85206117 64 56 C64 56.99 64 57.98 64 59 C64.66 59 65.32 59 66 59 C84.48584037 96.56469995 94.73800929 130.91643926 94 173 C90.87709365 172.51421457 88.00419641 172.0013988 85 171 C84.90501221 169.9891333 84.81002441 168.9782666 84.7121582 167.93676758 C82.20424954 140.14339711 82.20424954 140.14339711 76 113 C75.72752441 112.1037793 75.45504883 111.20755859 75.17431641 110.28417969 C72.06920717 100.24854994 68.72997591 90.40045527 64 81 C63.52820313 80.0203125 63.05640625 79.040625 62.5703125 78.03125 C49.36662374 50.93974352 27.42038576 24.71019288 0 11 C0 7.37 0 3.74 0 0 Z " fill="#BE8234" transform="translate(69,298)"/>
<path d="M0 0 C0.82532415 -0.00155999 1.65064831 -0.00311998 2.50098228 -0.00472724 C5.27622622 -0.00872707 8.05141578 -0.00555151 10.82666016 -0.00241089 C12.81235791 -0.00376538 14.79805542 -0.00554558 16.78375244 -0.00772095 C22.18443668 -0.01228959 27.58510186 -0.01050804 32.98578644 -0.00734186 C38.62984774 -0.00481534 44.27390738 -0.00715662 49.91796875 -0.00872803 C59.39730117 -0.01054886 68.8766258 -0.00814566 78.35595703 -0.00338745 C89.32533326 0.002055 100.29469091 0.00029229 111.2640667 -0.00521386 C120.6713165 -0.00974742 130.07856069 -0.01039434 139.48581123 -0.00777519 C145.10909454 -0.00621376 150.7323691 -0.006015 156.35565186 -0.00931168 C161.64150617 -0.01219391 166.92733646 -0.01020816 172.21318817 -0.00441742 C174.1566743 -0.00309172 176.10016243 -0.00348073 178.04364777 -0.00568008 C180.68960787 -0.00839901 183.33549021 -0.00500127 185.98144531 0 C186.75663198 -0.00223072 187.53181866 -0.00446144 188.33049583 -0.00675976 C191.48841054 0.00487545 193.97154396 0.12059074 196.99072266 1.12698364 C199.75614125 4.75316167 199.21541358 9.03659426 199.11572266 13.37698364 C199.10669922 14.12206177 199.09767578 14.86713989 199.08837891 15.63479614 C199.06490624 17.46566423 199.02903791 19.29636603 198.99072266 21.12698364 C198.66072266 21.12698364 198.33072266 21.12698364 197.99072266 21.12698364 C197.93464844 19.68065552 197.93464844 19.68065552 197.87744141 18.20510864 C197.81169922 16.94182739 197.74595703 15.67854614 197.67822266 14.37698364 C197.59121094 12.49753052 197.59121094 12.49753052 197.50244141 10.58010864 C196.95415737 6.88023772 196.70396773 5.62922714 193.99072266 3.12698364 C191.19174279 2.7284344 188.78265942 2.59106955 185.98144531 2.6257782 C185.15612116 2.6202438 184.330797 2.6147094 183.48046303 2.6090073 C180.70493407 2.5953547 177.9302972 2.61039468 175.15478516 2.62527466 C173.16908383 2.62149315 171.18338513 2.61599451 169.19769287 2.60890198 C163.79690331 2.59490814 158.39643091 2.60614472 152.99565887 2.62261319 C147.35159538 2.63643423 141.70755086 2.63000698 136.06347656 2.6264801 C126.58409496 2.62377565 117.1048398 2.63727386 107.62548828 2.66043091 C96.65605497 2.68704208 85.68683314 2.6887886 74.71737862 2.67704254 C64.17799287 2.66627441 53.63868385 2.67244426 43.0993042 2.68659782 C38.60811557 2.692366 34.11698293 2.69226842 29.62579346 2.68753242 C24.33985579 2.68277049 19.05415057 2.6928318 13.76825714 2.71448708 C11.82477859 2.72006582 9.88127774 2.72051033 7.93779755 2.71553421 C5.29160449 2.70960708 2.64612832 2.72203665 0 2.73930359 C-0.77518667 2.73329354 -1.55037334 2.7272835 -2.34905052 2.72109133 C-6.38339334 2.7633563 -6.38339334 2.7633563 -9.97787476 4.4141531 C-11.79483653 7.43154675 -11.59185906 10.88215699 -11.69677734 14.31448364 C-11.7309375 15.06407349 -11.76509766 15.81366333 -11.80029297 16.58596802 C-11.88262028 18.43245202 -11.94763015 20.27969358 -12.00927734 22.12698364 C-12.33927734 22.12698364 -12.66927734 22.12698364 -13.00927734 22.12698364 C-13.06318092 19.18923901 -13.10290285 16.25248132 -13.13427734 13.31448364 C-13.15103516 12.48110474 -13.16779297 11.64772583 -13.18505859 10.78909302 C-13.19150391 9.98665161 -13.19794922 9.18421021 -13.20458984 8.35745239 C-13.21506348 7.61906128 -13.22553711 6.88067017 -13.23632812 6.11990356 C-13.00927734 4.12698364 -13.00927734 4.12698364 -11.00927734 1.12698364 C-7.29738976 -0.11031222 -3.86524426 -0.01112285 0 0 Z " fill="#B4803B" transform="translate(111.00927734375,257.8730163574219)"/>
<path d="M0 0 C2.56036672 2.22640584 3.3947134 3.68343805 4 7 C4.08847775 8.8923795 4.12198936 10.78762191 4.12025452 12.68206787 C4.12162918 13.84030563 4.12300385 14.9985434 4.12442017 16.19187927 C4.12082489 17.45854935 4.11722961 18.72521942 4.11352539 20.03027344 C4.11324325 21.38059995 4.11340178 22.73092662 4.1139679 24.08125305 C4.11425482 27.74413596 4.10837502 31.40698612 4.10139394 35.06986141 C4.09514296 38.89888785 4.09455522 42.72791504 4.09336853 46.5569458 C4.09026037 53.80646834 4.0820539 61.05597579 4.07201904 68.30549169 C4.06084194 76.55935519 4.05534342 84.81321942 4.05032361 93.0670886 C4.03987087 110.04473595 4.02153177 127.02236254 4 144 C15.88 144 27.76 144 40 144 C40 144.33 40 144.66 40 145 C28.12 145 16.24 145 4 145 C4 150.28 4 155.56 4 161 C2 163 2 163 -0.6796875 163.265625 C-1.73414063 163.26046875 -2.78859375 163.2553125 -3.875 163.25 C-5.44894531 163.25773437 -5.44894531 163.25773437 -7.0546875 163.265625 C-9.91599111 163.0075764 -11.57276909 162.4774449 -14 161 C-12.89591797 161.01740234 -12.89591797 161.01740234 -11.76953125 161.03515625 C-10.79371094 161.04417969 -9.81789062 161.05320312 -8.8125 161.0625 C-7.36810547 161.07990234 -7.36810547 161.07990234 -5.89453125 161.09765625 C-3.13880371 161.00468299 -0.68900295 160.57267638 2 160 C1.8928084 139.72917318 1.78005553 119.45838459 1.66066074 99.18762589 C1.60535518 89.7758127 1.55187754 80.36399572 1.50268555 70.95214844 C1.45981107 62.74990719 1.41352481 54.54769355 1.36312145 46.34549499 C1.33654684 42.00150025 1.31169439 37.65751089 1.29092598 33.31348419 C1.27133009 29.22597498 1.24717745 25.1385182 1.21950912 21.05105591 C1.21015434 19.54984235 1.20247342 18.04861731 1.19658089 16.54738617 C1.18829309 14.49936141 1.17342759 12.4513664 1.15821838 10.40338135 C1.15176583 9.25667088 1.14531328 8.1099604 1.1386652 6.92850113 C1.02075813 4.4383955 0.72651322 2.37143581 0 0 Z " fill="#B57F3A" transform="translate(182,312)"/>
<path d="M0 0 C1.23820952 -0.01041829 1.23820952 -0.01041829 2.50143337 -0.02104706 C5.27149292 -0.03936483 8.04070065 -0.02903967 10.81079102 -0.01878357 C12.79501997 -0.02583959 14.77924353 -0.03458326 16.76345825 -0.04489136 C22.15596786 -0.06742944 27.54818459 -0.06443545 32.94072342 -0.05556989 C37.43901159 -0.05046717 41.93724438 -0.05774666 46.43552685 -0.06504196 C57.04471344 -0.08205468 67.65375624 -0.07846086 78.26293945 -0.06175232 C89.21712056 -0.04482384 100.1709034 -0.06067259 111.12504101 -0.0929752 C120.52301329 -0.11964148 129.92086136 -0.12695528 139.31886768 -0.11846012 C144.93498892 -0.11352297 150.55087038 -0.11578932 156.16696167 -0.13624763 C161.44645921 -0.15455854 166.72538211 -0.14870221 172.00484848 -0.12404823 C173.94468776 -0.119026 175.88457049 -0.12256651 177.82437515 -0.13519669 C180.46838194 -0.15105283 183.11047911 -0.13624807 185.75439453 -0.11352539 C186.52598624 -0.12536112 187.29757795 -0.13719685 188.09255123 -0.14939123 C191.88250008 -0.08300284 193.53982215 0.19879826 196.34947205 2.82931614 C198.36093295 6.36494648 198.44374886 8.96306869 198.43969727 13.0146637 C198.46161133 14.3037262 198.48352539 15.5927887 198.50610352 16.9209137 C197.74221897 21.28596825 196.24084823 22.74271678 192.87719727 25.5146637 C192.87719727 22.5146637 192.87719727 22.5146637 194.87719727 20.5146637 C195.07571828 17.80543569 195.15559204 15.2216319 195.12719727 12.5146637 C195.13493164 11.77731995 195.14266602 11.0399762 195.15063477 10.2802887 C195.28728591 5.93044467 195.28728591 5.93044467 192.87719727 2.5146637 C190.26310502 2.31928006 187.75512833 2.24978581 185.14002991 2.26742554 C184.33189439 2.26501112 183.52375887 2.26259671 182.69113439 2.26010913 C179.96799967 2.25444816 177.24509705 2.26315328 174.52197266 2.27174377 C172.57583045 2.27067148 170.62968855 2.26873358 168.68354797 2.26599121 C163.38608192 2.26113102 158.08869971 2.26881341 152.79124379 2.27894425 C147.25661767 2.28770698 141.72199431 2.28596765 136.18736267 2.2855835 C126.89035636 2.28652103 117.59338262 2.29521657 108.29638672 2.30885315 C97.53777116 2.32457499 86.77919131 2.32985146 76.02056509 2.3291176 C65.68570144 2.32850777 55.35084945 2.3336094 45.0159893 2.34190941 C40.61134182 2.3454458 36.20669847 2.34727317 31.80204964 2.34780312 C26.61715953 2.34880581 21.43229954 2.35489645 16.24741936 2.36496925 C14.34102437 2.36789648 12.43462591 2.36911917 10.52822876 2.36854172 C7.93256964 2.36805291 5.33699557 2.37368822 2.74134827 2.38095093 C1.98104327 2.37940233 1.22073827 2.37785372 0.43739372 2.37625819 C-2.68915406 2.39077523 -5.13307336 2.51808724 -8.12280273 3.5146637 C-9.32902793 7.13333929 -9.23097191 10.4397262 -9.18530273 14.2021637 C-9.18079102 14.90405823 -9.1762793 15.60595276 -9.17163086 16.32911682 C-9.159872 18.05766908 -9.14193727 19.78617735 -9.12280273 21.5146637 C-10.11280273 21.5146637 -11.10280273 21.5146637 -12.12280273 21.5146637 C-12.23092277 18.76360948 -12.31015219 16.01681282 -12.37280273 13.2646637 C-12.40631836 12.48735901 -12.43983398 11.71005432 -12.47436523 10.90919495 C-12.48725586 10.15509338 -12.50014648 9.40099182 -12.51342773 8.6240387 C-12.534375 7.93277893 -12.55532227 7.24151917 -12.5769043 6.52931213 C-11.10963486 0.01968452 -5.62729174 -0.0601007 0 0 Z " fill="#44240E" transform="translate(111.122802734375,259.48533630371094)"/>
<path d="M0 0 C-0.33 0.99 -0.66 1.98 -1 3 C-1.66 3 -2.32 3 -3 3 C-2.67 20.82 -2.34 38.64 -2 57 C-1.01 56.34 -0.02 55.68 1 55 C1 55.66 1 56.32 1 57 C2.98 57 4.96 57 7 57 C7 59.64 7 62.28 7 65 C6.01 65 5.02 65 4 65 C4 64.34 4 63.68 4 63 C2.700625 63.020625 1.40125 63.04125 0.0625 63.0625 C-1.29165633 63.08399454 -2.64756083 63.07148199 -4 63 C-5.75247559 61.24752441 -5.14576396 58.79099682 -5.16113281 56.41040039 C-5.17074036 55.21568619 -5.1803479 54.02097198 -5.19024658 52.79005432 C-5.19449646 51.48906296 -5.19874634 50.18807159 -5.203125 48.84765625 C-5.20887384 47.50866187 -5.2146316 46.16966752 -5.22039795 44.83067322 C-5.23091563 42.02033096 -5.23675336 39.21001738 -5.24023438 36.3996582 C-5.24572312 32.79345251 -5.26975543 29.18762366 -5.29820633 25.58153629 C-5.31680299 22.81492495 -5.32203668 20.04840495 -5.32357025 17.28173637 C-5.32808184 15.30407732 -5.34674252 13.32646708 -5.36553955 11.34889221 C-5.36253845 10.15102585 -5.35953735 8.95315948 -5.35644531 7.71899414 C-5.36009094 6.66055801 -5.36373657 5.60212189 -5.36749268 4.51161194 C-5.24622009 3.68278 -5.12494751 2.85394806 -5 2 C-2 0 -2 0 0 0 Z " fill="#C09259" transform="translate(62,233)"/>
<path d="M0 0 C0.99 0.33 1.98 0.66 3 1 C4.66621616 1.03874921 6.33394172 1.0450286 8 1 C5 3 5 3 2 4.3125 C-1.44194412 6.24859357 -2.30040659 7.49015074 -4 11 C-4.45314855 13.82783492 -4.45314855 13.82783492 -4.39872742 16.87825012 C-4.41126556 18.05469086 -4.42380371 19.23113159 -4.4367218 20.44322205 C-4.43528671 21.72499832 -4.43385162 23.0067746 -4.43237305 24.32739258 C-4.44139398 25.69757978 -4.45172202 27.0677589 -4.46325684 28.43792725 C-4.49081435 32.15034406 -4.5001096 35.8626077 -4.50611091 39.57511353 C-4.51549787 43.4575826 -4.54170151 47.33993741 -4.56611633 51.22233582 C-4.60977621 58.57095984 -4.63832629 65.91956168 -4.66143972 73.26827592 C-4.68849415 81.63589213 -4.7324055 90.00339336 -4.77772844 98.37092745 C-4.87056738 115.5805591 -4.94225152 132.79021557 -5 150 C-5.33 150 -5.66 150 -6 150 C-6.14039114 131.91906917 -6.24607885 113.83828052 -6.31087303 95.75692177 C-6.34176277 87.36071131 -6.38384909 78.96484023 -6.45263672 70.56884766 C-6.51258922 63.24772892 -6.55118462 55.92685608 -6.56453097 48.60549867 C-6.57232819 44.73159923 -6.59054917 40.85840299 -6.63438034 36.98472977 C-6.67537336 33.33198659 -6.68761628 29.68023028 -6.67864609 26.0272789 C-6.68106124 24.06098531 -6.71320981 22.09479707 -6.746521 20.12878418 C-6.68932926 11.86531177 -5.01717129 6.60275286 0 0 Z " fill="#3F230C" transform="translate(227,306)"/>
<path d="M0 0 C7.28695804 8.6850372 11 24.83050064 11 36 C12.27875 35.95875 13.5575 35.9175 14.875 35.875 C17.0546875 35.8046875 17.0546875 35.8046875 19 36 C19.66 36.66 20.32 37.32 21 38 C19.02 38.495 19.02 38.495 17 39 C17 38.34 17 37.68 17 37 C15.205625 37.0309375 15.205625 37.0309375 13.375 37.0625 C9.81995131 37.06882571 6.49444376 36.69888875 3 36 C2.75 28.375 2.75 28.375 5 25 C4.69234489 20.23134587 4.04312113 16.35865841 2 12 C1.01 12.495 1.01 12.495 0 13 C0.01160156 12.37351563 0.02320313 11.74703125 0.03515625 11.1015625 C0.04417969 10.28429687 0.05320312 9.46703125 0.0625 8.625 C0.07990234 7.40683594 0.07990234 7.40683594 0.09765625 6.1640625 C0.14466334 3.95062858 0.14466334 3.95062858 -1 2 C-0.67 1.34 -0.34 0.68 0 0 Z " fill="#DAA860" transform="translate(326,195)"/>
<path d="M0 0 C2.31 0 4.62 0 7 0 C7 0.66 7 1.32 7 2 C7.99 2 8.98 2 10 2 C9.99476318 2.74161377 9.98952637 3.48322754 9.98413086 4.24731445 C9.96336386 7.60236771 9.9503407 10.95740744 9.9375 14.3125 C9.92912109 15.47974609 9.92074219 16.64699219 9.91210938 17.84960938 C9.90888672 18.96787109 9.90566406 20.08613281 9.90234375 21.23828125 C9.89710693 22.26993408 9.89187012 23.30158691 9.88647461 24.36450195 C9.88365 27.10946274 9.88365 27.10946274 11 30 C10.34 30.66 9.68 31.32 9 32 C8.35628015 34.02208548 8.35628015 34.02208548 7.9296875 36.3515625 C7.75566406 37.20234375 7.58164063 38.053125 7.40234375 38.9296875 C7.22832031 39.81914062 7.05429688 40.70859375 6.875 41.625 C6.69324219 42.5221875 6.51148437 43.419375 6.32421875 44.34375 C5.8760054 46.5612266 5.4349076 48.77988214 5 51 C4.34 51 3.68 51 3 51 C2.87239381 46.36557505 3.2300595 42.42090561 4.375 37.9375 C6.06934445 30.52074693 6.75419091 23.12898927 7.35302734 15.55249023 C7.42473145 14.64700439 7.49643555 13.74151855 7.5703125 12.80859375 C7.65949951 11.59901001 7.65949951 11.59901001 7.75048828 10.36499023 C8.01410683 7.86628881 8.4718358 5.4552277 9 3 C7.700625 2.87625 6.40125 2.7525 5.0625 2.625 C2.84765625 2.4140625 2.84765625 2.4140625 1 2 C0.67 1.34 0.34 0.68 0 0 Z " fill="#D8B16F" transform="translate(59,296)"/>
<path d="M0 0 C0.33 0.99 0.66 1.98 1 3 C13.21 3 25.42 3 38 3 C38 3.33 38 3.66 38 4 C26.12 4 14.24 4 2 4 C2 9.28 2 14.56 2 20 C0 22 0 22 -2.6796875 22.265625 C-3.73414063 22.26046875 -4.78859375 22.2553125 -5.875 22.25 C-7.44894531 22.25773437 -7.44894531 22.25773437 -9.0546875 22.265625 C-11.91599111 22.0075764 -13.57276909 21.4774449 -16 20 C-14.89591797 20.01740234 -14.89591797 20.01740234 -13.76953125 20.03515625 C-12.79371094 20.04417969 -11.81789062 20.05320312 -10.8125 20.0625 C-9.36810547 20.07990234 -9.36810547 20.07990234 -7.89453125 20.09765625 C-4.62396939 20.0660089 -4.62396939 20.0660089 0 19 C0 12.73 0 6.46 0 0 Z " fill="#CCAF87" transform="translate(184,453)"/>
<path d="M0 0 C6.90491147 -0.12672146 13.80952344 -0.21431806 20.71533203 -0.2746582 C23.06472988 -0.29981062 25.41404941 -0.33393663 27.76318359 -0.37719727 C31.13919383 -0.43781426 34.51417011 -0.46620295 37.890625 -0.48828125 C38.94179504 -0.51408768 39.99296509 -0.5398941 41.07598877 -0.56648254 C48.34356368 -0.56928115 48.34356368 -0.56928115 51.65893555 2.3059082 C53.42004622 5.84383943 53.56644357 8.55643354 53.5625 12.5 C53.58441406 13.7890625 53.60632813 15.078125 53.62890625 16.40625 C52.8650217 20.77130455 51.36365097 22.22805308 48 25 C48 22 48 22 50 20 C50.19852102 17.29077199 50.27839477 14.70696821 50.25 12 C50.25773437 11.26265625 50.26546875 10.5253125 50.2734375 9.765625 C50.41008865 5.41578097 50.41008865 5.41578097 48 2 C45.85947498 1.66965172 45.85947498 1.66965172 43.36669922 1.68115234 C42.40585419 1.66128265 41.44500916 1.64141296 40.45504761 1.62094116 C39.41542877 1.60938995 38.37580994 1.59783875 37.3046875 1.5859375 C36.24210724 1.56657135 35.17952698 1.5472052 34.08474731 1.5272522 C30.68158057 1.46733916 27.27838022 1.42102402 23.875 1.375 C21.5715996 1.33683103 19.26821364 1.29777995 16.96484375 1.2578125 C11.31002372 1.16162813 5.65511717 1.07661519 0 1 C0 0.67 0 0.34 0 0 Z " fill="#44240D" transform="translate(256,260)"/>
<path d="M0 0 C0.99 0.495 0.99 0.495 2 1 C2 6.28 2 11.56 2 17 C3.29164063 16.95101562 4.58328125 16.90203125 5.9140625 16.8515625 C11.03462399 16.8535682 15.49311744 17.91943033 20.375 19.375 C21.56416016 19.70757812 21.56416016 19.70757812 22.77734375 20.046875 C26.33265503 21.06955337 28.879478 21.919652 32 24 C28.86650268 25.04449911 28.01031744 24.93423645 25 24 C25 23.34 25 22.68 25 22 C23.02 22.33 21.04 22.66 19 23 C19 22.34 19 21.68 19 21 C18.11248047 21.01740234 18.11248047 21.01740234 17.20703125 21.03515625 C12.99343116 21.0832724 9.1082644 21.05641085 5 20 C3.68 19.67 2.36 19.34 1 19 C0.67 12.73 0.34 6.46 0 0 Z " fill="#E7C896" transform="translate(218,104)"/>
<path d="M0 0 C1.8871875 0.0309375 1.8871875 0.0309375 3.8125 0.0625 C4.1425 0.7225 4.4725 1.3825 4.8125 2.0625 C2.82682292 2.02994792 0.84114583 1.99739583 -1.14453125 1.96484375 C-3.39055461 1.97986783 -3.39055461 1.97986783 -6.1875 3.0625 C-7.1775 4.5475 -7.1775 4.5475 -8.1875 6.0625 C-8.8475 6.0625 -9.5075 6.0625 -10.1875 6.0625 C-10.31125 6.68125 -10.435 7.3 -10.5625 7.9375 C-11.1875 10.0625 -11.1875 10.0625 -13.1875 12.0625 C-13.65130081 14.48186028 -13.65130081 14.48186028 -13.8203125 17.2890625 C-13.94599609 18.8359375 -13.94599609 18.8359375 -14.07421875 20.4140625 C-14.15285156 21.49429688 -14.23148438 22.57453125 -14.3125 23.6875 C-14.39886719 24.77546875 -14.48523438 25.8634375 -14.57421875 26.984375 C-14.78675957 29.67655877 -14.99082432 32.36911828 -15.1875 35.0625 C-15.5175 35.0625 -15.8475 35.0625 -16.1875 35.0625 C-16.2457462 31.33339934 -16.28117917 27.60441636 -16.3125 23.875 C-16.32925781 22.81990234 -16.34601563 21.76480469 -16.36328125 20.67773438 C-16.36972656 19.65615234 -16.37617188 18.63457031 -16.3828125 17.58203125 C-16.39328613 16.64464111 -16.40375977 15.70725098 -16.41455078 14.74145508 C-16.0943729 10.96370041 -15.14261528 8.10277013 -12.56640625 5.296875 C-11.96699219 4.80703125 -11.36757812 4.3171875 -10.75 3.8125 C-10.15316406 3.31234375 -9.55632812 2.8121875 -8.94140625 2.296875 C-6.00519835 0.23041243 -3.47848743 -0.05702438 0 0 Z " fill="#B9884C" transform="translate(203.1875,85.9375)"/>
<path d="M0 0 C0.33 0.99 0.66 1.98 1 3 C-0.4375 5.6875 -0.4375 5.6875 -2 8 C-0.68 8.66 0.64 9.32 2 10 C2 10.99 2 11.98 2 13 C1.01 13.33 0.02 13.66 -1 14 C-2.22969878 17.51190809 -2.22969878 17.51190809 -3 21 C-5 20 -5 20 -6 17 C-6.23967948 12.04662417 -6.25929298 8.51858597 -4 4 C-3.34 4 -2.68 4 -2 4 C-1.34 2.68 -0.68 1.36 0 0 Z " fill="#D7973D" transform="translate(44,384)"/>
<path d="M0 0 C0.66 0.99 1.32 1.98 2 3 C1.34 3 0.68 3 0 3 C-0.33 4.98 -0.66 6.96 -1 9 C-0.34 9.33 0.32 9.66 1 10 C0.67 10.33 0.34 10.66 0 11 C-0.39148761 12.51165654 -0.73972457 14.03469632 -1.0625 15.5625 C-1.23910156 16.38878906 -1.41570312 17.21507812 -1.59765625 18.06640625 C-1.73042969 18.70449219 -1.86320312 19.34257812 -2 20 C-2.66 20 -3.32 20 -4 20 C-4 22.31 -4 24.62 -4 27 C-4.84304687 27.06058594 -5.68609375 27.12117188 -6.5546875 27.18359375 C-7.65039062 27.26738281 -8.74609375 27.35117188 -9.875 27.4375 C-11.51082031 27.55931641 -11.51082031 27.55931641 -13.1796875 27.68359375 C-15.94728971 27.83001703 -15.94728971 27.83001703 -18 29 C-17.505 27.515 -17.505 27.515 -17 26 C-14.59454362 24.79727181 -13.05003047 24.89928528 -10.375 24.9375 C-9.14910156 24.95103516 -9.14910156 24.95103516 -7.8984375 24.96484375 C-7.27195312 24.97644531 -6.64546875 24.98804688 -6 25 C-5.88930176 24.42032471 -5.77860352 23.84064941 -5.66455078 23.2434082 C-5.15650262 20.59875581 -4.64082505 17.95564607 -4.125 15.3125 C-3.95097656 14.40048828 -3.77695313 13.48847656 -3.59765625 12.54882812 C-2.73902217 8.17615458 -1.89990691 4.06511613 0 0 Z " fill="#DFBD8D" transform="translate(76,206)"/>
<path d="M0 0 C1.98 0.99 3.96 1.98 6 3 C3.89881651 5.31044853 2.08070748 6.60204854 -0.80078125 7.7890625 C-1.89616211 8.24152344 -1.89616211 8.24152344 -3.01367188 8.703125 C-3.77228516 9.00734375 -4.53089844 9.3115625 -5.3125 9.625 C-6.05951172 9.93695313 -6.80652344 10.24890625 -7.57617188 10.5703125 C-11.7107094 12.25461927 -15.53063581 13.47419245 -20 14 C-19.01 13.67 -18.02 13.34 -17 13 C-17 12.01 -17 11.02 -17 10 C-15.02 10 -13.04 10 -11 10 C-11 9.34 -11 8.68 -11 8 C-9.35 8 -7.7 8 -6 8 C-5.67 6.35 -5.34 4.7 -5 3 C-3.35 2.67 -1.7 2.34 0 2 C0 1.34 0 0.68 0 0 Z " fill="#D7A359" transform="translate(295,449)"/>
<path d="M0 0 C0 1.65 0 3.3 0 5 C-0.763125 5.061875 -1.52625 5.12375 -2.3125 5.1875 C-5.23730584 5.73937308 -5.23730584 5.73937308 -6.5 8.5625 C-6.995 9.366875 -7.49 10.17125 -8 11 C-10.6875 11.3125 -10.6875 11.3125 -13 11 C-13.33 11.99 -13.66 12.98 -14 14 C-17.0625 15.1875 -17.0625 15.1875 -20 16 C-7.40425532 0 -7.40425532 0 0 0 Z " fill="#DAAE6C" transform="translate(125,145)"/>
<path d="M0 0 C0.66 0 1.32 0 2 0 C1.67 0.99 1.34 1.98 1 3 C0.34 3 -0.32 3 -1 3 C-1 21.48 -1 39.96 -1 59 C-1.33 59 -1.66 59 -2 59 C-2.04629419 51.6026924 -2.08185426 44.20541593 -2.10362434 36.80799294 C-2.1140717 33.37324541 -2.12824805 29.93859683 -2.15087891 26.50390625 C-2.17672063 22.55730362 -2.18646493 18.61074137 -2.1953125 14.6640625 C-2.20563507 13.42757965 -2.21595764 12.1910968 -2.22659302 10.91714478 C-2.22674408 9.77611298 -2.22689514 8.63508118 -2.22705078 7.45947266 C-2.231492 6.451315 -2.23593323 5.44315735 -2.24050903 4.40444946 C-2 2 -2 2 0 0 Z " fill="#B68345" transform="translate(60,233)"/>
<path d="M0 0 C0.33 0 0.66 0 1 0 C1.08040527 0.65484375 1.16081055 1.3096875 1.24365234 1.984375 C1.6156705 4.99023924 1.99527988 7.9950994 2.375 11 C2.50132812 12.02996094 2.62765625 13.05992187 2.7578125 14.12109375 C3.33677318 18.66593512 3.94394995 23.07888629 5.1640625 27.5 C5.96472554 30.85230879 5.96532012 31.88639453 5 35 C4.71125 34.071875 4.4225 33.14375 4.125 32.1875 C3.1125 28.90208333 3.1125 28.90208333 1 26 C-0.4558518 17.47090596 -0.11476244 8.61993412 0 0 Z " fill="#E3C591" transform="translate(340,314)"/>
<path d="M0 0 C1 2 1 2 0.3125 5.0625 C-0.120625 6.031875 -0.55375 7.00125 -1 8 C-1.65097656 8.14179688 -2.30195312 8.28359375 -2.97265625 8.4296875 C-5.16767892 8.79045406 -5.16767892 8.79045406 -6.046875 10.84765625 C-6.39492187 11.94400391 -6.39492187 11.94400391 -6.75 13.0625 C-6.99234375 13.79597656 -7.2346875 14.52945313 -7.484375 15.28515625 C-7.65453125 15.85105469 -7.8246875 16.41695312 -8 17 C-9.32 17 -10.64 17 -12 17 C-11.41246271 13.9249292 -10.54526011 12.12098863 -8.49609375 9.765625 C-7.75649414 8.90517578 -7.75649414 8.90517578 -7.00195312 8.02734375 C-6.48568359 7.44082031 -5.96941406 6.85429687 -5.4375 6.25 C-4.91736328 5.64800781 -4.39722656 5.04601562 -3.86132812 4.42578125 C-2.58043726 2.94511841 -1.29103688 1.47182458 0 0 Z " fill="#E9C796" transform="translate(102,163)"/>
<path d="M0 0 C2.88866058 3.38992815 4.25762054 6.88822687 5.75 11.0625 C6.19859375 12.29097656 6.6471875 13.51945313 7.109375 14.78515625 C8 18 8 18 7 21 C3.125 14.25 3.125 14.25 2 12 C1.01 12.495 1.01 12.495 0 13 C0.01160156 12.37351563 0.02320313 11.74703125 0.03515625 11.1015625 C0.04417969 10.28429687 0.05320312 9.46703125 0.0625 8.625 C0.07990234 7.40683594 0.07990234 7.40683594 0.09765625 6.1640625 C0.14466334 3.95062858 0.14466334 3.95062858 -1 2 C-0.67 1.34 -0.34 0.68 0 0 Z " fill="#DDB370" transform="translate(326,195)"/>
<path d="M0 0 C-0.86625 0.4021875 -0.86625 0.4021875 -1.75 0.8125 C-4.05896736 1.92138723 -4.05896736 1.92138723 -5.9375 3.6875 C-8 5 -8 5 -10.5625 4.5625 C-11.366875 4.376875 -12.17125 4.19125 -13 4 C-13.99 4.66 -14.98 5.32 -16 6 C-18.04296875 6.1953125 -18.04296875 6.1953125 -20.1875 6.125 C-22.0746875 6.063125 -22.0746875 6.063125 -24 6 C-21.32132393 3.32132393 -18.3744089 2.80419363 -14.8125 1.875 C-14.16474609 1.69324219 -13.51699219 1.51148437 -12.84960938 1.32421875 C-8.47549225 0.16186595 -4.51331346 -0.17561531 0 0 Z " fill="#E5C08C" transform="translate(184,121)"/>
<path d="M0 0 C4.92815226 1.23203807 8.1829384 3.44011117 12.0703125 6.5625 C13.97278991 7.97973014 15.850965 9.00666826 18 10 C17.67 10.66 17.34 11.32 17 12 C15.68 11.67 14.36 11.34 13 11 C13 10.34 13 9.68 13 9 C12.01 9 11.02 9 10 9 C10 8.34 10 7.68 10 7 C7.36 6.67 4.72 6.34 2 6 C1.34 4.02 0.68 2.04 0 0 Z " fill="#E0B97B" transform="translate(269,136)"/>
<path d="M0 0 C3.8713588 0.53768872 5.97184125 1.577473 9 4 C9.99 4.33 10.98 4.66 12 5 C13.84499398 6.87617698 15.3683599 8.92737609 17 11 C16.01 11.495 16.01 11.495 15 12 C12.68375565 10.38012331 10.37199918 8.75444257 8.0625 7.125 C7.40314453 6.66480469 6.74378906 6.20460938 6.06445312 5.73046875 C1.11328125 2.2265625 1.11328125 2.2265625 0 0 Z " fill="#DDB87D" transform="translate(62,424)"/>
<path d="M0 0 C0 0.66 0 1.32 0 2 C-1.65 2 -3.3 2 -5 2 C-4.67 2.99 -4.34 3.98 -4 5 C-4.78375 5.763125 -5.5675 6.52625 -6.375 7.3125 C-9.07257717 9.90891805 -9.07257717 9.90891805 -11 13 C-11.32150943 8.90075477 -11.41384837 6.65644914 -9.1875 3.125 C-6.06399664 0.09073959 -4.36150758 0 0 0 Z " fill="#D29740" transform="translate(234,309)"/>
<path d="M0 0 C3.36997254 1.4615836 5.60745127 3.3380888 8.1875 5.9375 C9.22970703 6.97197266 9.22970703 6.97197266 10.29296875 8.02734375 C12 10 12 10 13 13 C10 13 10 13 7.3125 10.625 C5 8 5 8 5 6 C4.34 6 3.68 6 3 6 C3 5.34 3 4.68 3 4 C2.01 3.67 1.02 3.34 0 3 C0 2.01 0 1.02 0 0 Z " fill="#DFBB7F" transform="translate(294,153)"/>
<path d="M0 0 C-2.11340464 2.11340464 -3.24985646 2.58435125 -6.02734375 3.5078125 C-6.81947266 3.77207031 -7.61160156 4.03632813 -8.42773438 4.30859375 C-9.67006836 4.71271484 -9.67006836 4.71271484 -10.9375 5.125 C-11.76185547 5.40214844 -12.58621094 5.67929687 -13.43554688 5.96484375 C-19.60618073 8 -19.60618073 8 -23 8 C-23 7.34 -23 6.68 -23 6 C-21.68 6 -20.36 6 -19 6 C-19 5.34 -19 4.68 -19 4 C-18.15695313 3.79503906 -17.31390625 3.59007812 -16.4453125 3.37890625 C-15.34960938 3.10949219 -14.25390625 2.84007812 -13.125 2.5625 C-12.03445312 2.29566406 -10.94390625 2.02882813 -9.8203125 1.75390625 C-2.96698113 -0.07807845 -2.96698113 -0.07807845 0 0 Z " fill="#43240C" transform="translate(265,297)"/>
<path d="M0 0 C7.06536889 1.25353319 12.71456473 3.56203749 19 7 C17.02 7.99 17.02 7.99 15 9 C14.67 8.01 14.34 7.02 14 6 C12.205625 5.8453125 12.205625 5.8453125 10.375 5.6875 C6.4375824 5.21108648 3.45859625 3.98869284 0 2 C0 1.34 0 0.68 0 0 Z " fill="#E0BE88" transform="translate(250,128)"/>
<path d="M0 0 C0.33 0 0.66 0 1 0 C1.28307925 7.24997422 0.50974035 13.90961228 -1 21 C-1.66 21 -2.32 21 -3 21 C-3.15639125 15.93683317 -2.62766071 11.49601562 -1.5 6.5625 C-1.2215625 5.32628906 -0.943125 4.09007812 -0.65625 2.81640625 C-0.4396875 1.88699219 -0.223125 0.95757812 0 0 Z " fill="#DFBD85" transform="translate(65,326)"/>
<path d="M0 0 C0.33 0 0.66 0 1 0 C1.13572155 2.39774745 1.23436868 4.78775245 1.3125 7.1875 C1.35439453 7.86103516 1.39628906 8.53457031 1.43945312 9.22851562 C1.53929382 13.32198414 1.15925343 14.81111803 -1.51953125 17.98828125 C-2.74736328 18.98408203 -2.74736328 18.98408203 -4 20 C-4 17 -4 17 -2 15 C-1.72423013 12.6545346 -1.55028694 10.29642689 -1.4375 7.9375 C-1.09722222 1.09722222 -1.09722222 1.09722222 0 0 Z " fill="#5A3213" transform="translate(308,265)"/>
<path d="M0 0 C1.79068573 2.6860286 2.66055791 4.6626589 3.625 7.6875 C3.88539063 8.49574219 4.14578125 9.30398438 4.4140625 10.13671875 C4.60742188 10.75160156 4.80078125 11.36648438 5 12 C2.69 11.67 0.38 11.34 -2 11 C-1.85892253 9.54119891 -1.71197585 8.08296449 -1.5625 6.625 C-1.48128906 5.81289063 -1.40007812 5.00078125 -1.31640625 4.1640625 C-1 2 -1 2 0 0 Z " fill="#DFAE69" transform="translate(348,357)"/>
<path d="M0 0 C3.63 0 7.26 0 11 0 C3.08972523 3.95513738 -3.23987491 4.25891995 -12 4 C-12 3.01 -12 2.02 -12 1 C-11.67 1.33 -11.34 1.66 -11 2 C-9.31816052 2.23287008 -7.6287584 2.41264166 -5.9375 2.5625 C-4.55884766 2.68818359 -4.55884766 2.68818359 -3.15234375 2.81640625 C-2.08693359 2.90728516 -2.08693359 2.90728516 -1 3 C-0.67 2.01 -0.34 1.02 0 0 Z " fill="#E7C898" transform="translate(236,471)"/>
<path d="M0 0 C1.65 0 3.3 0 5 0 C1.71644638 3.67758005 -1.62778237 5.81389118 -6 8 C-6.66 7.67 -7.32 7.34 -8 7 C-8 5.33333333 -8 3.66666667 -8 2 C-5.69 2.33 -3.38 2.66 -1 3 C-0.67 2.01 -0.34 1.02 0 0 Z " fill="#DEB473" transform="translate(317,440)"/>
<path d="M0 0 C0.66 0 1.32 0 2 0 C2.33 5.61 2.66 11.22 3 17 C2.01 16.67 1.02 16.34 0 16 C0 10.72 0 5.44 0 0 Z " fill="#D6A35F" transform="translate(222,456)"/>
<path d="M0 0 C0 3 0 3 -1.5 4.625 C-5.0002159 6.55011875 -8.02798992 6.66899916 -12 7 C-12.33 6.34 -12.66 5.68 -13 5 C-8.71 3.35 -4.42 1.7 0 0 Z " fill="#CA9546" transform="translate(298,286)"/>
<path d="M0 0 C1.8871875 0.0309375 1.8871875 0.0309375 3.8125 0.0625 C4.1425 0.7225 4.4725 1.3825 4.8125 2.0625 C2.82682292 2.02994792 0.84114583 1.99739583 -1.14453125 1.96484375 C-5.54967514 2.17541468 -7.25772841 4.04655866 -10.1875 7.0625 C-11.83941491 8.41406675 -13.50272656 9.75212066 -15.1875 11.0625 C-14.62486042 7.55740749 -13.53564818 6.10981992 -10.8125 3.875 C-10.20664063 3.36582031 -9.60078125 2.85664062 -8.9765625 2.33203125 C-6.02747273 0.23933654 -3.50403585 -0.05744321 0 0 Z " fill="#E7D3B0" transform="translate(203.1875,85.9375)"/>
<path d="M0 0 C2.31 0.33 4.62 0.66 7 1 C4.6875 3.5 4.6875 3.5 2 6 C1.01 6 0.02 6 -1 6 C-1.33 6.99 -1.66 7.98 -2 9 C-4.0625 9.6875 -4.0625 9.6875 -6 10 C-5.67 9.34 -5.34 8.68 -5 8 C-4.34 8 -3.68 8 -3 8 C-3 7.01 -3 6.02 -3 5 C-2.01 5 -1.02 5 0 5 C0 3.35 0 1.7 0 0 Z " fill="#E4BF85" transform="translate(335,426)"/>
<path d="M0 0 C-1.32 0.33 -2.64 0.66 -4 1 C-4 1.66 -4 2.32 -4 3 C-5.6210103 3.69685498 -7.24696066 4.38222861 -8.875 5.0625 C-9.77992188 5.44535156 -10.68484375 5.82820312 -11.6171875 6.22265625 C-14 7 -14 7 -16 6 C-3.59124088 -1.19708029 -3.59124088 -1.19708029 0 0 Z " fill="#E6CA9B" transform="translate(154,130)"/>
<path d="M0 0 C4.55727842 1.72862285 5.90834857 4.81669715 8 9 C8.039992 10.99960012 8.04346799 13.00047242 8 15 C4.87129072 12.44014695 4.18922116 9.79064245 3 6 C2.02995879 3.98529902 1.03755118 1.98077953 0 0 Z " fill="#D7B98F" transform="translate(210,89)"/>
<path d="M0 0 C1.32 0.33 2.64 0.66 4 1 C3.34 1 2.68 1 2 1 C2 1.66 2 2.32 2 3 C-2.47058824 7 -2.47058824 7 -5 7 C-5.33 7.99 -5.66 8.98 -6 10 C-6.66 9.67 -7.32 9.34 -8 9 C-7.67 8.34 -7.34 7.68 -7 7 C-7.33 6.01 -7.66 5.02 -8 4 C-5.525 4.495 -5.525 4.495 -3 5 C-3 4.01 -3 3.02 -3 2 C-2.01 2 -1.02 2 0 2 C0 1.34 0 0.68 0 0 Z " fill="#E1BC80" transform="translate(355,413)"/>
<path d="M0 0 C0.33 0 0.66 0 1 0 C1.32644414 4.16216275 1.40650982 6.36313462 -0.875 9.9375 C-3 12 -3 12 -5 12 C-4.35550393 8.98782888 -3.34977818 6.48344164 -1.9375 3.75 C-1.57527344 3.04359375 -1.21304688 2.3371875 -0.83984375 1.609375 C-0.56269531 1.07828125 -0.28554688 0.5471875 0 0 Z " fill="#DEB97D" transform="translate(56,364)"/>
<path d="M0 0 C6.64584719 0.34978143 9.83664827 1.80477672 15 6 C13 7 13 7 10.21484375 6.07421875 C9.13332031 5.61660156 8.05179688 5.15898437 6.9375 4.6875 C5.85339844 4.23761719 4.76929687 3.78773438 3.65234375 3.32421875 C1 2 1 2 0 0 Z " fill="#E0BC83" transform="translate(108,452)"/>
<path d="M0 0 C0.33 0.99 0.66 1.98 1 3 C0.0390625 4.578125 0.0390625 4.578125 -1.375 6.25 C-4.16249189 9.87142298 -4.72318933 12.47875905 -5 17 C-5.33 17 -5.66 17 -6 17 C-6.16682272 12.07872966 -6.24828052 8.49656104 -4 4 C-3.34 4 -2.68 4 -2 4 C-1.34 2.68 -0.68 1.36 0 0 Z " fill="#E2C290" transform="translate(44,384)"/>
<path d="M0 0 C0 0.99 0 1.98 0 3 C-1.7902061 3.67057887 -3.58221489 4.3363469 -5.375 5 C-6.37273437 5.37125 -7.37046875 5.7425 -8.3984375 6.125 C-11 7 -11 7 -13 7 C-13 6.01 -13 5.02 -13 4 C-8.71 2.68 -4.42 1.36 0 0 Z " fill="#C99448" transform="translate(251,302)"/>
<path d="M0 0 C2.31 0 4.62 0 7 0 C4.52873606 1.64750929 2.2390557 2.93723705 -0.4375 4.1875 C-1.19933594 4.55230469 -1.96117187 4.91710937 -2.74609375 5.29296875 C-5.28988738 6.09093521 -6.52455813 5.8852947 -9 5 C-8.01 5 -7.02 5 -6 5 C-6 4.01 -6 3.02 -6 2 C-4.02 2 -2.04 2 0 2 C0 1.34 0 0.68 0 0 Z " fill="#E5C493" transform="translate(284,457)"/>
<path d="M0 0 C0.33 0 0.66 0 1 0 C1.08733513 3.08315385 1.14050127 6.16598827 1.1875 9.25 C1.21263672 10.12269531 1.23777344 10.99539063 1.26367188 11.89453125 C1.33834499 18.41598332 1.33834499 18.41598332 -0.51171875 21.609375 C-1.00285156 22.06828125 -1.49398438 22.5271875 -2 23 C-2.66 22.67 -3.32 22.34 -4 22 C-3.34 20.35 -2.68 18.7 -2 17 C-1.34 17 -0.68 17 0 17 C0 11.39 0 5.78 0 0 Z " fill="#D0B081" transform="translate(349,272)"/>
<path d="M0 0 C1.15518918 0.90484792 2.29885406 1.8244206 3.4375 2.75 C4.07558594 3.26046875 4.71367187 3.7709375 5.37109375 4.296875 C7.18810554 6.19667629 7.60423197 7.43586908 8 10 C7.34 10 6.68 10 6 10 C6 9.34 6 8.68 6 8 C5.34 8 4.68 8 4 8 C4 7.34 4 6.68 4 6 C1.03 5.505 1.03 5.505 -2 5 C-2 4.34 -2 3.68 -2 3 C-1.34 3 -0.68 3 0 3 C0 2.01 0 1.02 0 0 Z " fill="#DEB778" transform="translate(307,166)"/>
<path d="M0 0 C0 4.51405601 -1.95545363 8.04721035 -4 12 C-4.33 12.66 -4.66 13.32 -5 14 C-5.66 14 -6.32 14 -7 14 C-6.18836907 8.31858349 -3.46566761 4.45585836 0 0 Z " fill="#E4C998" transform="translate(89,180)"/>
<path d="M0 0 C1.2062252 3.61867559 1.10816918 6.92506251 1.0625 10.6875 C1.05798828 11.38939453 1.05347656 12.09128906 1.04882812 12.81445312 C1.03706927 14.54300538 1.01913454 16.27151365 1 18 C0.01 18 -0.98 18 -2 18 C-1.85946128 15.37461716 -1.71281053 12.74982573 -1.5625 10.125 C-1.52318359 9.37863281 -1.48386719 8.63226563 -1.44335938 7.86328125 C-1.11328125 2.2265625 -1.11328125 2.2265625 0 0 Z " fill="#41260F" transform="translate(101,263)"/>
<path d="M0 0 C-1.41519715 2.0343459 -2.54982123 2.90410393 -4.98046875 3.421875 C-6.98176954 3.66273952 -8.9909944 3.83532741 -11 4 C-7.65667474 -0.27945633 -5.29105716 -0.4070044 0 0 Z " fill="#D8A45F" transform="translate(164,127)"/>
<path d="M0 0 C1.37432457 3.81756824 0.67975039 7.07255329 0 11 C-0.99 11.33 -1.98 11.66 -3 12 C-2.69106068 10.3743193 -2.3777305 8.74947252 -2.0625 7.125 C-1.88847656 6.22007812 -1.71445312 5.31515625 -1.53515625 4.3828125 C-1 2 -1 2 0 0 Z " fill="#E4BF88" transform="translate(61,348)"/>
<path d="M0 0 C0.99 0.66 1.98 1.32 3 2 C3 2.66 3 3.32 3 4 C1.51882199 3.71872579 0.04006751 3.42466268 -1.4375 3.125 C-2.26121094 2.96257812 -3.08492187 2.80015625 -3.93359375 2.6328125 C-4.61550781 2.42398437 -5.29742187 2.21515625 -6 2 C-6.33 1.34 -6.66 0.68 -7 0 C-4.28569464 -1.35715268 -2.88661718 -0.77445827 0 0 Z " fill="#E1BC81" transform="translate(136,461)"/>
<path d="M0 0 C2.31 0 4.62 0 7 0 C7 0.66 7 1.32 7 2 C7.99 2 8.98 2 10 2 C10 3.98 10 5.96 10 8 C9.67 8 9.34 8 9 8 C9 6.35 9 4.7 9 3 C7.700625 2.87625 6.40125 2.7525 5.0625 2.625 C2.84765625 2.4140625 2.84765625 2.4140625 1 2 C0.67 1.34 0.34 0.68 0 0 Z " fill="#DDC599" transform="translate(59,296)"/>
<path d="M0 0 C1.60568666 0.28317926 3.20952047 0.57687791 4.8125 0.875 C6.15248047 1.11863281 6.15248047 1.11863281 7.51953125 1.3671875 C10 2 10 2 13 4 C9.86650268 5.04449911 9.01031744 4.93423645 6 4 C6 3.34 6 2.68 6 2 C4.02 2.33 2.04 2.66 0 3 C0 2.01 0 1.02 0 0 Z " fill="#E3C088" transform="translate(237,124)"/>
<path d="M0 0 C0.66 0.66 1.32 1.32 2 2 C1.875 4.5 1.875 4.5 1 7 C-1.0625 8.3125 -1.0625 8.3125 -3 9 C-2.44271087 5.65626525 -1.64826111 2.96687001 0 0 Z " fill="#DEBB7E" transform="translate(81,194)"/>
<path d="M0 0 C0.33 0.66 0.66 1.32 1 2 C0.0625 4.625 0.0625 4.625 -1 7 C-2.32 7 -3.64 7 -5 7 C-4.60196439 4.11424181 -4.20990931 3.17810487 -1.9375 1.25 C-1.298125 0.8375 -0.65875 0.425 0 0 Z " fill="#DDB77E" transform="translate(95,173)"/>
<path d="M0 0 C0 0.66 0 1.32 0 2 C-2.8125 3.5625 -2.8125 3.5625 -6 5 C-6.99 4.67 -7.98 4.34 -9 4 C-8.34 4 -7.68 4 -7 4 C-6.896875 3.360625 -6.79375 2.72125 -6.6875 2.0625 C-6.460625 1.381875 -6.23375 0.70125 -6 0 C-3 -1 -3 -1 0 0 Z " fill="#DAA964" transform="translate(278,460)"/>
<path d="M0 0 C3.37462715 0.54723683 5.08235 1.0549 8 3 C8 3.99 8 4.98 8 6 C4.63408134 4.55746343 2.48952921 2.66735273 0 0 Z " fill="#DFB878" transform="translate(54,418)"/>
<path d="M0 0 C1.98 0.99 3.96 1.98 6 3 C5.01 3.99 4.02 4.98 3 6 C0 5 0 5 -2 2 C-1.34 2 -0.68 2 0 2 C0 1.34 0 0.68 0 0 Z " fill="#DFB066" transform="translate(295,449)"/>
<path d="M0 0 C2.3125 0.1875 2.3125 0.1875 5 1 C6.8125 3.5625 6.8125 3.5625 8 6 C4.08597051 4.73058503 2.20927127 3.48832306 0 0 Z " fill="#E4C08B" transform="translate(62,424)"/>
<path d="M0 0 C2.475 0.495 2.475 0.495 5 1 C5.33 2.98 5.66 4.96 6 7 C3.95880212 5.38405168 1.95927063 3.7143618 0 2 C0 1.34 0 0.68 0 0 Z " fill="#E1BC84" transform="translate(41,405)"/>
<path d="M0 0 C0 0.66 0 1.32 0 2 C-1.65 2 -3.3 2 -5 2 C-5 2.99 -5 3.98 -5 5 C-6.32 4.34 -7.64 3.68 -9 3 C-5.55930376 0.70620251 -4.27709699 0 0 0 Z " fill="#CD954D" transform="translate(234,309)"/>
<path d="M0 0 C0.66 0.33 1.32 0.66 2 1 C1.375 2.875 1.375 2.875 0 5 C-3.125 6.25 -3.125 6.25 -6 7 C-4.02 4.69 -2.04 2.38 0 0 Z " fill="#E3C595" transform="translate(111,154)"/>
<path d="M0 0 C-0.33 1.32 -0.66 2.64 -1 4 C-3.31 4.33 -5.62 4.66 -8 5 C-3.16129032 0 -3.16129032 0 0 0 Z " fill="#E5C68D" transform="translate(137,137)"/>
<path d="M0 0 C2 1 2 1 2 1 Z M-1 1 C0.65 1.33 2.3 1.66 4 2 C3.01 3.485 3.01 3.485 2 5 C-1.625 5.1875 -1.625 5.1875 -5 5 C-3.68 4.67 -2.36 4.34 -1 4 C-1 3.01 -1 2.02 -1 1 Z " fill="#B88443" transform="translate(343,290)"/>
<path d="M0 0 C1.80125336 2.70188004 3.00243753 4.93057703 4 8 C3.67 8.99 3.34 9.98 3 11 C-1.06153846 4.6 -1.06153846 4.6 -0.75 1.5625 C-0.5025 1.046875 -0.255 0.53125 0 0 Z " fill="#E8C493" transform="translate(330,205)"/>
<path d="M0 0 C0.99 0 1.98 0 3 0 C3 1.65 3 3.3 3 5 C0.03 4.505 0.03 4.505 -3 4 C-1.6875 2 -1.6875 2 0 0 Z " fill="#E1BD86" transform="translate(122,145)"/>
<path d="M0 0 C2.97 1.65 5.94 3.3 9 5 C8.67 5.66 8.34 6.32 8 7 C6.68 6.67 5.36 6.34 4 6 C4 5.34 4 4.68 4 4 C3.01 4 2.02 4 1 4 C0.67 2.68 0.34 1.36 0 0 Z " fill="#E6C896" transform="translate(278,141)"/>
<path d="M0 0 C3.60654039 2.40436026 3.85452932 3.94679607 5 8 C3.0625 7.375 3.0625 7.375 1 6 C0.25 2.875 0.25 2.875 0 0 Z " fill="#E2C88D" transform="translate(319,182)"/>
<path d="M0 0 C2.64 0.99 5.28 1.98 8 3 C8 3.33 8 3.66 8 4 C5.36 4 2.72 4 0 4 C-0.33 3.34 -0.66 2.68 -1 2 C-0.67 1.34 -0.34 0.68 0 0 Z " fill="#D3A24E" transform="translate(281,145)"/>
<path d="M0 0 C0.928125 0.2784375 0.928125 0.2784375 1.875 0.5625 C4.04160178 1.23686176 4.04160178 1.23686176 6 0 C6.33 1.98 6.66 3.96 7 6 C1.125 2.25 1.125 2.25 0 0 Z " fill="#E8C795" transform="translate(47,412)"/>
<path d="M0 0 C0.99 0.33 1.98 0.66 3 1 C2.25 5.75 2.25 5.75 0 8 C0 5.36 0 2.72 0 0 Z " fill="#D6AD64" transform="translate(364,400)"/>
<path d="M0 0 C0.33 0 0.66 0 1 0 C1.66 3.3 2.32 6.6 3 10 C2.01 10 1.02 10 0 10 C0 6.7 0 3.4 0 0 Z " fill="#D6A967" transform="translate(39,394)"/>
</svg>
