<?xml version="1.0" encoding="UTF-8"?>
<svg version="1.1" xmlns="http://www.w3.org/2000/svg" width="408" height="612">
<path d="M0 0 C7.85234252 4.80516482 11.34644119 11.87117762 13.6171875 20.6015625 C13.6171875 21.5915625 13.6171875 22.5815625 13.6171875 23.6015625 C14.6278125 23.6634375 15.6384375 23.7253125 16.6796875 23.7890625 C41.6821263 26.93653263 67.29749712 43.75917479 85.328125 60.5234375 C87.62042553 62.65783624 87.62042553 62.65783624 90.2421875 64.640625 C92.39421049 66.41745977 93.74118362 67.90868576 95.2421875 70.2265625 C96.96297864 72.87126835 97.85581992 73.76065078 100.6171875 75.6015625 C100.6171875 76.5915625 100.6171875 77.5815625 100.6171875 78.6015625 C101.6071875 78.9315625 102.5971875 79.2615625 103.6171875 79.6015625 C107.62839188 84.48005432 110.33972869 89.77191706 113.078125 95.4453125 C114.06333331 97.4657397 115.08634404 99.46843042 116.15625 101.4453125 C119.6999112 108.06014674 121.96862325 114.51906759 123.61743164 121.81518555 C124.98761592 127.23103578 126.93580821 128.80238725 131.6171875 131.6015625 C134.62878046 135.55570877 134.99716528 138.53991652 135.01782227 143.44873047 C135.02480133 144.11786972 135.0317804 144.78700897 135.03897095 145.47642517 C135.05891138 147.68232939 135.05844752 149.88776368 135.05859375 152.09375 C135.07038277 153.64251951 135.08375069 155.19127773 135.09861755 156.74002075 C135.13479304 160.82115803 135.15498549 164.90219553 135.17016602 168.98345947 C135.19497144 175.47850538 135.23543376 181.97333003 135.29206657 188.46817398 C135.30811278 190.71393534 135.31214891 192.95948077 135.31507874 195.20529175 C135.43746346 219.14738468 141.44805678 240.93079429 151.6171875 262.6015625 C152.20741282 263.95273947 152.79176611 265.30651495 153.3671875 266.6640625 C154.07537943 268.32831355 154.80832814 269.98384377 155.6171875 271.6015625 C156.39830573 280.62905749 156.48345667 288.25260992 150.6171875 295.6015625 C148.1796875 298.2265625 148.1796875 298.2265625 145.6171875 300.6015625 C144.60575059 301.77933651 143.60631763 302.96749331 142.6171875 304.1640625 C140.18928859 307.02998441 137.72061519 309.44640438 134.6171875 311.6015625 C133.9571875 311.6015625 133.2971875 311.6015625 132.6171875 311.6015625 C132.6171875 312.2615625 132.6171875 312.9215625 132.6171875 313.6015625 C131.2971875 313.9315625 129.9771875 314.2615625 128.6171875 314.6015625 C128.6171875 315.2615625 128.6171875 315.9215625 128.6171875 316.6015625 C127.04296875 318.00390625 127.04296875 318.00390625 124.9296875 319.5390625 C124.24519531 320.04308594 123.56070312 320.54710937 122.85546875 321.06640625 C117.78135519 324.54655744 112.36127185 327.50249324 107.04296875 330.58984375 C105.16653841 331.69173842 103.29487551 332.80257662 101.44848633 333.95410156 C94.75600387 338.09355844 87.83638033 341.46707864 80.6796875 344.7265625 C79.57689453 345.23832031 78.47410156 345.75007813 77.33789062 346.27734375 C67.28401924 350.89204106 57.13729867 354.61099675 46.4921875 357.6015625 C45.59419434 357.85502441 44.69620117 358.10848633 43.77099609 358.36962891 C37.9499478 359.99384436 32.11446971 361.54820501 26.2421875 362.9765625 C25.57171387 363.14414062 24.90124023 363.31171875 24.21044922 363.484375 C18.73202015 364.77113333 13.79360732 365.36971067 8.4296875 363.4765625 C4.55029083 360.89029806 2.22884945 358.2383909 1.15234375 353.59765625 C0.37038237 347.60976023 0.6171875 341.64375818 0.6171875 335.6015625 C-8.6228125 335.6015625 -17.8628125 335.6015625 -27.3828125 335.6015625 C-27.3828125 340.2215625 -27.3828125 344.8415625 -27.3828125 349.6015625 C-28.16996893 355.89881396 -29.80889832 358.65204521 -34.62890625 362.47265625 C-39.46495227 365.58538966 -44.85064515 365.05342931 -50.26953125 364.08642578 C-53.65845203 363.33975858 -57.01988872 362.52030594 -60.3828125 361.6640625 C-61.61088623 361.35339844 -62.83895996 361.04273438 -64.10424805 360.72265625 C-81.49776772 356.16953136 -98.35530536 349.75762232 -114.3828125 341.6015625 C-115.07455566 341.2509375 -115.76629883 340.9003125 -116.47900391 340.5390625 C-128.31917658 334.49703419 -139.440055 327.77848625 -150.2890625 320.08203125 C-151.96814007 318.89477304 -153.67176352 317.74226182 -155.3828125 316.6015625 C-155.3828125 315.9415625 -155.3828125 315.2815625 -155.3828125 314.6015625 C-156.7028125 314.2715625 -158.0228125 313.9415625 -159.3828125 313.6015625 C-159.3828125 312.9415625 -159.3828125 312.2815625 -159.3828125 311.6015625 C-159.97449219 311.32570313 -160.56617188 311.04984375 -161.17578125 310.765625 C-167.72156485 307.3131586 -172.88863735 301.36606269 -177.3828125 295.6015625 C-177.89457031 294.94671875 -178.40632813 294.291875 -178.93359375 293.6171875 C-183.36769131 286.97228636 -183.90573051 279.35109467 -182.3828125 271.6015625 C-180.95059646 267.72230306 -179.23351834 264.16369052 -177.328125 260.50390625 C-173.89716864 253.86427606 -171.71294119 246.68410056 -169.3828125 239.6015625 C-169.07472656 238.67601562 -168.76664063 237.75046875 -168.44921875 236.796875 C-163.97111534 222.64328392 -162.24611287 208.80356399 -162.27527809 194.03652954 C-162.2788413 190.15970178 -162.25296325 186.28301143 -162.23242188 182.40625 C-162.20810843 177.49499239 -162.19241659 172.58416111 -162.20776367 167.67285156 C-162.21946204 163.68210393 -162.2019433 159.69239781 -162.16531944 155.70181274 C-162.15674527 154.19009641 -162.1587211 152.67827933 -162.1718235 151.16659546 C-162.28589575 136.9512059 -162.28589575 136.9512059 -156.96122742 130.9909668 C-155.3828125 129.6015625 -155.3828125 129.6015625 -152.3828125 127.6015625 C-151.45885366 125.64875789 -151.45885366 125.64875789 -150.83984375 123.33984375 C-150.57494141 122.47536621 -150.31003906 121.61088867 -150.03710938 120.72021484 C-149.75931641 119.79418457 -149.48152344 118.8681543 -149.1953125 117.9140625 C-146.19947237 108.45139541 -142.46646278 100.10457279 -137.3828125 91.6015625 C-136.795 90.60769531 -136.2071875 89.61382812 -135.6015625 88.58984375 C-130.45737229 80.20715198 -124.55024021 72.35942291 -117.3828125 65.6015625 C-116.8259375 65.0034375 -116.2690625 64.4053125 -115.6953125 63.7890625 C-114.3828125 62.6015625 -114.3828125 62.6015625 -112.3828125 62.6015625 C-111.8878125 61.1165625 -111.8878125 61.1165625 -111.3828125 59.6015625 C-106.92566964 55.6015625 -106.92566964 55.6015625 -104.3828125 55.6015625 C-104.0528125 54.6115625 -103.7228125 53.6215625 -103.3828125 52.6015625 C-101.38671875 50.99609375 -101.38671875 50.99609375 -98.9453125 49.4140625 C-98.14222656 48.88425781 -97.33914062 48.35445312 -96.51171875 47.80859375 C-94.3828125 46.6015625 -94.3828125 46.6015625 -92.3828125 46.6015625 C-92.3828125 45.9415625 -92.3828125 45.2815625 -92.3828125 44.6015625 C-89.88418126 43.18243699 -87.38396969 41.7662241 -84.8828125 40.3515625 C-84.18671875 39.95582031 -83.490625 39.56007812 -82.7734375 39.15234375 C-74.63713879 34.5568417 -66.71729632 30.82892015 -57.8203125 27.9140625 C-56.91345703 27.60662109 -56.00660156 27.29917969 -55.07226562 26.98242188 C-50.16229608 25.35526011 -45.53097903 24.13120926 -40.3828125 23.6015625 C-40.18945312 22.77011719 -39.99609375 21.93867187 -39.796875 21.08203125 C-39.53648437 19.99535156 -39.27609375 18.90867187 -39.0078125 17.7890625 C-38.75257813 16.71011719 -38.49734375 15.63117188 -38.234375 14.51953125 C-37.3828125 11.6015625 -37.3828125 11.6015625 -35.3828125 8.6015625 C-34.7228125 8.6015625 -34.0628125 8.6015625 -33.3828125 8.6015625 C-33.3415625 8.0240625 -33.3003125 7.4465625 -33.2578125 6.8515625 C-31.66004708 2.74302284 -27.80706825 1.29585746 -24.04296875 -0.5390625 C-14.9704987 -4.50914184 -8.84138708 -4.38395647 0 0 Z " fill="#BBC6CB" transform="translate(217.3828125,93.3984375)"/>
<path d="M0 0 C7.85234252 4.80516482 11.34644119 11.87117762 13.6171875 20.6015625 C13.6171875 21.5915625 13.6171875 22.5815625 13.6171875 23.6015625 C14.6278125 23.6634375 15.6384375 23.7253125 16.6796875 23.7890625 C41.6821263 26.93653263 67.29749712 43.75917479 85.328125 60.5234375 C87.62042553 62.65783624 87.62042553 62.65783624 90.2421875 64.640625 C92.39421049 66.41745977 93.74118362 67.90868576 95.2421875 70.2265625 C96.96297864 72.87126835 97.85581992 73.76065078 100.6171875 75.6015625 C100.6171875 76.5915625 100.6171875 77.5815625 100.6171875 78.6015625 C101.6071875 78.9315625 102.5971875 79.2615625 103.6171875 79.6015625 C107.62839188 84.48005432 110.33972869 89.77191706 113.078125 95.4453125 C114.06333331 97.4657397 115.08634404 99.46843042 116.15625 101.4453125 C119.6999112 108.06014674 121.96862325 114.51906759 123.61743164 121.81518555 C124.98761592 127.23103578 126.93580821 128.80238725 131.6171875 131.6015625 C134.6171875 136.6015625 134.6171875 136.6015625 133.6171875 148.6015625 C36.5971875 148.6015625 -60.4228125 148.6015625 -160.3828125 148.6015625 C-160.3828125 135.6015625 -160.3828125 135.6015625 -158.0703125 131.9140625 C-155.3828125 129.6015625 -155.3828125 129.6015625 -152.3828125 127.6015625 C-151.45885366 125.64875789 -151.45885366 125.64875789 -150.83984375 123.33984375 C-150.57494141 122.47536621 -150.31003906 121.61088867 -150.03710938 120.72021484 C-149.75931641 119.79418457 -149.48152344 118.8681543 -149.1953125 117.9140625 C-146.19947237 108.45139541 -142.46646278 100.10457279 -137.3828125 91.6015625 C-136.795 90.60769531 -136.2071875 89.61382812 -135.6015625 88.58984375 C-130.45737229 80.20715198 -124.55024021 72.35942291 -117.3828125 65.6015625 C-116.8259375 65.0034375 -116.2690625 64.4053125 -115.6953125 63.7890625 C-114.3828125 62.6015625 -114.3828125 62.6015625 -112.3828125 62.6015625 C-111.8878125 61.1165625 -111.8878125 61.1165625 -111.3828125 59.6015625 C-106.92566964 55.6015625 -106.92566964 55.6015625 -104.3828125 55.6015625 C-104.0528125 54.6115625 -103.7228125 53.6215625 -103.3828125 52.6015625 C-101.38671875 50.99609375 -101.38671875 50.99609375 -98.9453125 49.4140625 C-98.14222656 48.88425781 -97.33914062 48.35445312 -96.51171875 47.80859375 C-94.3828125 46.6015625 -94.3828125 46.6015625 -92.3828125 46.6015625 C-92.3828125 45.9415625 -92.3828125 45.2815625 -92.3828125 44.6015625 C-89.88418126 43.18243699 -87.38396969 41.7662241 -84.8828125 40.3515625 C-84.18671875 39.95582031 -83.490625 39.56007812 -82.7734375 39.15234375 C-74.63713879 34.5568417 -66.71729632 30.82892015 -57.8203125 27.9140625 C-56.91345703 27.60662109 -56.00660156 27.29917969 -55.07226562 26.98242188 C-50.16229608 25.35526011 -45.53097903 24.13120926 -40.3828125 23.6015625 C-40.18945312 22.77011719 -39.99609375 21.93867187 -39.796875 21.08203125 C-39.53648437 19.99535156 -39.27609375 18.90867187 -39.0078125 17.7890625 C-38.75257813 16.71011719 -38.49734375 15.63117188 -38.234375 14.51953125 C-37.3828125 11.6015625 -37.3828125 11.6015625 -35.3828125 8.6015625 C-34.7228125 8.6015625 -34.0628125 8.6015625 -33.3828125 8.6015625 C-33.3415625 8.0240625 -33.3003125 7.4465625 -33.2578125 6.8515625 C-31.66004708 2.74302284 -27.80706825 1.29585746 -24.04296875 -0.5390625 C-14.9704987 -4.50914184 -8.84138708 -4.38395647 0 0 Z " fill="#BBC6CA" transform="translate(217.3828125,93.3984375)"/>
<path d="M0 0 C1.10450916 -0.00573832 1.10450916 -0.00573832 2.23133165 -0.01159257 C4.69387034 -0.02189501 7.15617467 -0.01793563 9.61872864 -0.01396179 C11.38647171 -0.01830993 13.1542129 -0.02349342 14.92195129 -0.02944946 C19.72178158 -0.04284329 24.52153314 -0.04341744 29.32137847 -0.04088616 C33.33201299 -0.03981619 37.34263161 -0.04470077 41.35326272 -0.04949158 C50.82018143 -0.06058922 60.28706047 -0.06102347 69.75398254 -0.05497742 C79.50771158 -0.04894369 89.26129614 -0.06123279 99.01500052 -0.08254749 C107.3973632 -0.1001893 115.77968001 -0.10616057 124.16206056 -0.10290974 C129.16462111 -0.10110003 134.16707873 -0.10370142 139.16962242 -0.11762428 C143.87858659 -0.13023911 148.58732664 -0.12822402 153.29628754 -0.11521339 C155.01914103 -0.11285559 156.74201046 -0.11555361 158.46484566 -0.12383652 C179.05639936 -0.21565002 179.05639936 -0.21565002 186.03205872 5.12788391 C186.54768372 5.79046204 187.06330872 6.45304016 187.59455872 7.13569641 C188.39893372 8.12182922 188.39893372 8.12182922 189.21955872 9.12788391 C192.91166907 14.85485053 192.96031899 19.98309579 192.96955872 26.63569641 C192.9940509 27.55608704 193.01854309 28.47647766 193.04377747 29.42475891 C193.0744447 36.58044628 191.67638973 40.63148422 186.98908997 46.15132141 C178.90457466 53.09801604 169.46048729 53.88094551 159.1719265 54.93719292 C156.93831672 55.16746924 154.70660464 55.41163256 152.47488403 55.65951538 C146.13688587 56.36121921 139.79649925 57.03966449 133.45466614 57.70576477 C129.55873122 58.11593188 125.66495595 58.54307503 121.77199745 58.98054695 C120.29396031 59.14305742 118.81517552 59.29891449 117.33571434 59.44790459 C115.27107189 59.65601477 113.20983594 59.88552518 111.14802551 60.11982727 C109.97604111 60.24401535 108.8040567 60.36820343 107.59655762 60.49615479 C103.92899675 61.43020008 102.65993055 62.07159925 100.59455872 65.26069641 C100.01428676 68.34585095 100.04108082 71.37951167 100.06452942 74.51142883 C100.05579803 75.44674942 100.04706665 76.38207001 100.03807068 77.34573364 C100.01367985 80.43607221 100.01710607 83.52574255 100.02033997 86.61616516 C100.00789988 88.76040797 99.99356708 90.90464057 99.97741699 93.04885864 C99.93935377 98.69226684 99.92419557 104.33549939 99.91462708 109.97901917 C99.89489569 119.02347177 99.83819063 128.06779015 99.78586388 137.1121006 C99.7704591 140.27917265 99.76331594 143.44617826 99.75772095 146.61328125 C99.75070852 148.54157037 99.7436079 150.46985917 99.73640442 152.39814758 C99.73693314 153.28593903 99.73746185 154.17373047 99.73800659 155.08842468 C99.70777607 161.14747905 99.70777607 161.14747905 98.59455872 162.26069641 C96.52193795 162.34836753 94.44635577 162.36765514 92.37190247 162.35835266 C91.11184387 162.35513 89.85178528 162.35190735 88.55354309 162.34858704 C87.21304763 162.34023045 85.87255284 162.33176548 84.53205872 162.32319641 C83.1876593 162.31818301 81.84325812 162.31361983 80.49885559 162.30952454 C77.19737931 162.29769129 73.89599068 162.28120612 70.59455872 162.26069641 C70.5931337 161.06910416 70.59170868 159.8775119 70.59024048 158.64981079 C70.57357444 147.42276232 70.53081267 136.19607649 70.46246815 124.96922016 C70.42817045 119.19726676 70.40308379 113.42557882 70.39900208 107.65351868 C70.39472517 102.08360221 70.36631231 96.51428488 70.32112694 90.94455528 C70.30813258 88.81912411 70.30385108 86.69362131 70.30840492 84.56815529 C70.31329699 81.59171904 70.28727964 78.61704329 70.25398254 75.64082336 C70.26692101 74.32128159 70.26692101 74.32128159 70.28012085 72.9750824 C70.19696526 68.54392504 70.02729801 66.80426714 67.17636108 63.22315979 C64.76209342 61.38804184 63.60590293 60.59321139 60.66487122 60.25679016 C59.50060608 60.10874939 59.50060608 60.10874939 58.31282043 59.9577179 C57.45704407 59.87207581 56.6012677 59.78643372 55.71955872 59.69819641 C54.34114807 59.53396179 54.34114807 59.53396179 52.93489075 59.3664093 C49.4907784 58.96795991 46.04380086 58.61205643 42.59455872 58.26069641 C41.04311051 58.10069439 39.49167918 57.94052869 37.94026184 57.78022766 C27.67405 56.72209753 27.67405 56.72209753 17.40364075 55.70576477 C-11.53225463 52.8798895 -11.53225463 52.8798895 -19.28044128 44.32319641 C-23.41698428 38.36170797 -23.74540481 32.84836602 -23.71794128 25.82319641 C-23.73405457 25.00270813 -23.75016785 24.18221985 -23.76676941 23.33686829 C-23.77187859 16.93506596 -22.87665839 12.09897714 -18.53825378 7.11616516 C-17.87567566 6.56573547 -17.21309753 6.01530579 -16.53044128 5.44819641 C-15.87301941 4.8848761 -15.21559753 4.32155579 -14.53825378 3.74116516 C-9.78403664 0.44107671 -5.73314491 0.00893544 0 0 Z " fill="#414A51" transform="translate(119.40544128417969,266.7393035888672)"/>
<path d="M0 0 C0.99764844 -0.00720654 1.99529688 -0.01441309 3.02317709 -0.02183801 C4.11703539 -0.01446372 5.21089369 -0.00708944 6.33789921 0.00050831 C7.5016015 -0.0034661 8.66530379 -0.0074405 9.86426979 -0.01153535 C13.09514936 -0.01950349 16.32568415 -0.01398637 19.55654395 -0.00278485 C23.04059503 0.00604867 26.52460963 -0.00238392 30.00866032 -0.00864697 C36.83449459 -0.01814228 43.66022326 -0.01152856 50.4860497 0.00061598 C58.43292183 0.01422891 66.37976873 0.01259872 74.32664955 0.01048265 C88.50547505 0.00729163 102.68425034 0.01896647 116.86306095 0.03854847 C130.62479526 0.0575495 144.38647071 0.06463709 158.1482172 0.05905628 C173.12837791 0.05299935 188.10851271 0.05317427 203.08867127 0.06454211 C204.68588769 0.06574942 206.28310412 0.06695541 207.88032055 0.06816006 C208.66620846 0.0687636 209.45209638 0.06936713 210.26179908 0.06998896 C215.80240149 0.07386965 221.34299426 0.07347389 226.88359737 0.07157421 C233.63567396 0.0694527 240.38769897 0.07467287 247.13976102 0.08918776 C250.58540955 0.09643477 254.03098295 0.1005062 257.47663784 0.0959444 C261.21009783 0.09273365 264.94332985 0.10177686 268.6767664 0.1140337 C270.31420776 0.10836471 270.31420776 0.10836471 271.98472875 0.1025812 C272.98498494 0.1084134 273.98524113 0.11424559 275.01580811 0.12025452 C275.87750357 0.12112129 276.73919903 0.12198807 277.62700647 0.12288111 C280.42910181 0.41165256 282.54901275 1.12974764 285.07082462 2.37473011 C286.07082462 4.37473011 286.07082462 4.37473011 285.07082462 16.37473011 C188.05082462 16.37473011 91.03082462 16.37473011 -8.92917538 16.37473011 C-8.92917538 12.08473011 -8.92917538 7.79473011 -8.92917538 3.37473011 C-4.42915811 -0.00028284 -4.42915811 -0.00028284 0 0 Z " fill="#808F96" transform="translate(65.92917537689209,225.62526988983154)"/>
<path d="M0 0 C6.24359152 3.85223084 10.5900606 9.56830775 12.62109375 16.6171875 C13.22807565 21.80688274 13.23158105 26.11871868 11.24609375 30.9921875 C4.01915469 38.21912656 -4.74809652 39.73331157 -14.62890625 39.9296875 C-23.4025468 39.86935795 -31.01100886 37.98508489 -37.37890625 31.6171875 C-40.09036705 27.10770128 -40.02032947 22.74111487 -39.37890625 17.6171875 C-38.30959195 14.46038573 -36.96370792 11.54624058 -35.37890625 8.6171875 C-34.71890625 8.6171875 -34.05890625 8.6171875 -33.37890625 8.6171875 C-33.33765625 8.0396875 -33.29640625 7.4621875 -33.25390625 6.8671875 C-31.65614083 2.75864784 -27.803162 1.31148246 -24.0390625 -0.5234375 C-14.95902029 -4.49683039 -8.85701878 -4.34866109 0 0 Z " fill="#89979D" transform="translate(217.37890625,93.3828125)"/>
<path d="M0 0 C0.47308594 0.39832031 0.94617188 0.79664063 1.43359375 1.20703125 C2.09488281 1.73683594 2.75617188 2.26664062 3.4375 2.8125 C4.07558594 3.33457031 4.71367188 3.85664063 5.37109375 4.39453125 C13.68513542 9.47190291 23.27217316 9.98251752 32.75 11 C34.25179872 11.16896337 35.75350686 11.33873374 37.25512695 11.50927734 C44.64279451 12.340979 52.03608192 13.11299329 59.43359375 13.8515625 C60.74295898 13.98304688 62.05232422 14.11453125 63.40136719 14.25 C65.86616444 14.49412746 68.33164714 14.73146108 70.79785156 14.9609375 C85.2359119 16.36667157 85.2359119 16.36667157 89.15594482 19.99613953 C91.71483065 24.16441826 91.5334017 27.48908908 91.45410156 32.28833008 C91.45468567 33.21564941 91.45526978 34.14296875 91.45587158 35.09838867 C91.45309045 38.15582029 91.42199663 41.21227046 91.390625 44.26953125 C91.38316273 46.39230314 91.37746973 48.51508192 91.37347412 50.63786316 C91.35821681 56.21934091 91.31893376 61.80040093 91.2746582 67.38171387 C91.23370784 73.07928822 91.21546358 78.77693021 91.1953125 84.47460938 C91.15243993 95.64992291 91.0841871 106.82492669 91 118 C90.67 118 90.34 118 90 118 C90 88.96 90 59.92 90 30 C83.07 29.67 76.14 29.34 69 29 C65.11454553 28.60112218 61.29516128 28.17810991 57.4375 27.625 C50.81085817 26.72262291 44.19480235 25.8992529 37.53515625 25.27734375 C36.280979 25.1572998 35.02680176 25.03725586 33.73461914 24.91357422 C31.30397381 24.68508053 28.87215701 24.46862263 26.43920898 24.26611328 C18.83411294 23.53480118 13.04614109 22.33866259 7.01171875 17.359375 C2.64283428 12.0496983 0 7.06107168 0 0 Z " fill="#86939B" transform="translate(99,310)"/>
<path d="M0 0 C0.33 0 0.66 0 1 0 C2.08690669 7.97064906 -2.05946612 14.47881878 -6.30078125 21 C-10.3268652 26.24571198 -15.33718065 28.16146831 -21.75827026 29.02555847 C-22.4696817 29.10993668 -23.18109314 29.19431488 -23.9140625 29.28125 C-24.67373322 29.38000931 -25.43340393 29.47876862 -26.21609497 29.58052063 C-28.68446066 29.8981729 -31.15447585 30.1996364 -33.625 30.5 C-35.33503466 30.71515382 -37.04499518 30.93089766 -38.75488281 31.1472168 C-43.83428333 31.78447978 -48.91645253 32.39680391 -54 33 C-54.73786743 33.08783752 -55.47573486 33.17567505 -56.23596191 33.26617432 C-60.73865368 33.80006528 -65.24325522 34.31373959 -69.75 34.8125 C-70.8529541 34.93625 -71.9559082 35.06 -73.09228516 35.1875 C-79.4213229 35.85630275 -85.63653093 36.1512164 -92 36 C-92.61482759 28.74503442 -92.61482759 28.74503442 -89.88616943 25.43850708 C-86.50257651 22.5797299 -84.69443615 22.20035742 -80.33300781 21.74560547 C-79.35873337 21.63469574 -79.35873337 21.63469574 -78.36477661 21.52154541 C-76.22921678 21.28321054 -74.09180235 21.07550601 -71.953125 20.8671875 C-70.45701461 20.70435272 -68.9611455 20.53928717 -67.46551514 20.37210083 C-63.53185248 19.93710604 -59.59605243 19.52663629 -55.65905762 19.12304688 C-49.37257426 18.47576366 -43.08956736 17.79677509 -36.80757904 17.10739517 C-34.62564092 16.872307 -32.44263294 16.6510179 -30.25909424 16.43136597 C-19.88376359 15.34620763 -10.23838252 14.17996074 -3 6 C-1.07086655 2.81689154 -1.07086655 2.81689154 0 0 Z " fill="#87959C" transform="translate(311,304)"/>
<path d="M0 0 C2 3 2 3 1.5625 5.5 C1.376875 6.325 1.19125 7.15 1 8 C1.33 8.99 1.66 9.98 2 11 C-0.04698414 13.04698414 -4.30411241 12.70045693 -7 13 C-5.63016497 9.83884224 -5.0109362 9.0072908 -2 7 C-0.7811879 3.44327821 -0.7811879 3.44327821 0 0 Z " fill="#D1D7DB" transform="translate(67,214)"/>
<path d="M0 0 C2.31 0 4.62 0 7 0 C7.99 2.64 8.98 5.28 10 8 C9.01 7.67 8.02 7.34 7 7 C7 6.34 7 5.68 7 5 C5.68 4.67 4.36 4.34 3 4 C3 3.34 3 2.68 3 2 C2.01 1.67 1.02 1.34 0 1 C0 0.67 0 0.34 0 0 Z " fill="#D0D5D8" transform="translate(55,403)"/>
<path d="M0 0 C0.33 0 0.66 0 1 0 C1.36923077 6.4 1.36923077 6.4 -0.5 9.4375 C-0.995 9.953125 -1.49 10.46875 -2 11 C-3.25 9.4375 -3.25 9.4375 -4 7 C-2.93237266 4.42998985 -1.53455057 2.3469597 0 0 Z " fill="#848E94" transform="translate(311,304)"/>
<path d="M0 0 C2.31 1.98 4.62 3.96 7 6 C6.01 6.66 5.02 7.32 4 8 C2.35 5.69 0.7 3.38 -1 1 C-0.67 0.67 -0.34 0.34 0 0 Z " fill="#C8CDCF" transform="translate(301,153)"/>
<path d="M0 0 C2 1 2 1 3 3 C0.36 3.66 -2.28 4.32 -5 5 C-4 2 -4 2 -2.0625 0.75 C-1.381875 0.5025 -0.70125 0.255 0 0 Z " fill="#CDD5D8" transform="translate(253,450)"/>
<path d="M0 0 C0.99 0.33 1.98 0.66 3 1 C2.34 2.32 1.68 3.64 1 5 C-0.65 4.67 -2.3 4.34 -4 4 C-2.68 2.68 -1.36 1.36 0 0 Z " fill="#D5DCE0" transform="translate(133,133)"/>
</svg>
