<?xml version="1.0" encoding="UTF-8"?>
<svg version="1.1" xmlns="http://www.w3.org/2000/svg" width="485" height="308">
<path d="M0 0 C1.23169922 0.60714844 1.23169922 0.60714844 2.48828125 1.2265625 C19.05074648 9.87552303 30.70266305 24.47026342 36.69970703 42.05126953 C37.63695041 45.11382174 38.45259004 48.19333672 39.2109375 51.3046875 C39.8014687 54.12143823 39.8014687 54.12143823 42 56 C41.34 56 40.68 56 40 56 C40.20496094 56.81082031 40.40992188 57.62164062 40.62109375 58.45703125 C44.33859783 73.73615091 45.22880273 89.39838086 43 105 C42.9278125 105.67933594 42.855625 106.35867187 42.78125 107.05859375 C42.59453354 108.71570234 42.30731858 110.3609676 42 112 C41.01 112.495 41.01 112.495 40 113 C39.9175 114.155 39.835 115.31 39.75 116.5 C38.07590647 134.05008051 27.74967264 151.22495132 15 163 C-1.8676776 176.54624301 -20.75895739 181.25522516 -42.0625 181.0625 C-43.02349609 181.05798828 -43.98449219 181.05347656 -44.97460938 181.04882812 C-47.31647422 181.03717706 -49.65820181 181.02082025 -52 181 C-52 180.34 -52 179.68 -52 179 C-53.2375 178.9175 -54.475 178.835 -55.75 178.75 C-72.22622308 176.86478952 -84.59641589 168.33804627 -96 157 C-97.00546875 156.06414062 -97.00546875 156.06414062 -98.03125 155.109375 C-102.28213607 150.81984451 -104.78813959 145.82890409 -107.375 140.4375 C-107.72143555 139.71675293 -108.06787109 138.99600586 -108.42480469 138.25341797 C-109.98618147 134.8338932 -111.15999743 131.78272477 -111.6015625 128.03515625 C-111.73304687 127.03355469 -111.86453125 126.03195313 -112 125 C-112.66 124.67 -113.32 124.34 -114 124 C-114.47698805 121.59947188 -114.80900506 119.30279636 -115.0625 116.875 C-115.14411377 116.12581299 -115.22572754 115.37662598 -115.30981445 114.60473633 C-118.31838918 85.04991406 -118.49914932 56.05910562 -105 29 C-104.53078125 28.05898437 -104.0615625 27.11796875 -103.578125 26.1484375 C-101.47448568 22.16191113 -99.39676257 19.03282372 -96 16 C-95.67 15.34 -95.34 14.68 -95 14 C-94.34 14 -93.68 14 -93 14 C-93 13.34 -93 12.68 -93 12 C-91.34467377 10.98133771 -89.67739862 9.98189187 -88 9 C-87.67 8.34 -87.34 7.68 -87 7 C-85.26524003 5.91900081 -83.48672691 4.90741438 -81.6875 3.9375 C-80.72199219 3.41027344 -79.75648437 2.88304688 -78.76171875 2.33984375 C-76 1 -76 1 -73.70703125 0.44140625 C-73.14371094 0.29574219 -72.58039063 0.15007812 -72 0 C-71.67 -0.66 -71.34 -1.32 -71 -2 C-68.6900046 -2.74351203 -66.35110407 -3.39900203 -64 -4 C-63.02804688 -4.28101563 -62.05609375 -4.56203125 -61.0546875 -4.8515625 C-40.95579079 -9.74048332 -18.47516422 -9.22633049 0 0 Z " fill="#F9F9F9" transform="translate(190,68)"/>
<path d="M0 0 C3.24533049 1.61956264 6.63699067 2.78099377 10.04296875 4.01953125 C10.04296875 4.67953125 10.04296875 5.33953125 10.04296875 6.01953125 C10.88859375 6.18453125 11.73421875 6.34953125 12.60546875 6.51953125 C16.6893303 8.30157993 18.4318243 10.36614765 21.1953125 13.7734375 C22.99473541 16.03025276 22.99473541 16.03025276 24.984375 17.984375 C32.59496093 25.74389607 42.04296875 40.73130879 42.04296875 52.01953125 C42.70296875 52.34953125 43.36296875 52.67953125 44.04296875 53.01953125 C43.71296875 53.34953125 43.38296875 53.67953125 43.04296875 54.01953125 C43.27152699 55.65460176 43.57620062 57.27932569 43.91796875 58.89453125 C44.19253906 60.22097656 44.19253906 60.22097656 44.47265625 61.57421875 C45.03033938 64.13578857 45.03033938 64.13578857 46.04296875 67.01953125 C46.15230411 69.89881829 46.20702363 72.75314588 46.2109375 75.6328125 C46.2142659 76.47998337 46.2175943 77.32715424 46.22102356 78.19999695 C46.22608585 79.99294492 46.2284321 81.78590231 46.22827148 83.57885742 C46.23045212 86.31119495 46.24859892 89.04312484 46.26757812 91.77539062 C46.27051343 93.51952987 46.27249731 95.26367103 46.2734375 97.0078125 C46.28062302 97.82051102 46.28780853 98.63320953 46.29521179 99.47053528 C46.27692765 104.05057715 45.78746964 107.70646131 44.04296875 112.01953125 C44.70296875 112.01953125 45.36296875 112.01953125 46.04296875 112.01953125 C45.75035156 112.51453125 45.45773437 113.00953125 45.15625 113.51953125 C43.64890417 116.90444821 42.9959403 120.4136632 42.23046875 124.01953125 C37.67925776 144.04400929 27.25529773 160.97304055 9.79296875 172.33203125 C-10.40052631 184.06416747 -34.42156269 185.91943326 -56.91650391 180.56298828 C-67.49260045 177.74623895 -76.57541689 173.13798237 -84.95703125 166.01953125 C-86.14232422 165.01986328 -86.14232422 165.01986328 -87.3515625 164 C-96.13218928 155.93738018 -101.59962877 145.40085872 -105.16796875 134.12890625 C-105.85677807 131.84342306 -105.85677807 131.84342306 -107.95703125 130.01953125 C-107.62703125 129.68953125 -107.29703125 129.35953125 -106.95703125 129.01953125 C-107.94703125 128.35953125 -108.93703125 127.69953125 -109.95703125 127.01953125 C-108.96703125 127.01953125 -107.97703125 127.01953125 -106.95703125 127.01953125 C-107.16199219 126.2203125 -107.36695313 125.42109375 -107.578125 124.59765625 C-110.44160863 112.92450766 -111.03516142 101.86931399 -111.08203125 89.89453125 C-111.08678467 88.86150879 -111.09153809 87.82848633 -111.09643555 86.76416016 C-111.09426025 85.79397949 -111.09208496 84.82379883 -111.08984375 83.82421875 C-111.08871582 82.94749512 -111.08758789 82.07077148 -111.08642578 81.16748047 C-110.95703125 79.01953125 -110.95703125 79.01953125 -109.95703125 77.01953125 C-110.61703125 76.68953125 -111.27703125 76.35953125 -111.95703125 76.01953125 C-111.29703125 76.01953125 -110.63703125 76.01953125 -109.95703125 76.01953125 C-109.91835937 75.21515625 -109.91835937 75.21515625 -109.87890625 74.39453125 C-108.8704311 60.4592382 -104.3892277 47.76191206 -98.95703125 35.01953125 C-98.65023437 34.13652344 -98.3434375 33.25351563 -98.02734375 32.34375 C-96.76018842 29.59208059 -95.15487912 28.08542578 -92.95703125 26.01953125 C-91.83079008 24.59925976 -90.7267234 23.16114625 -89.64453125 21.70703125 C-86.38394432 17.4507382 -82.82743901 13.7174951 -78.95703125 10.01953125 C-78.49941406 9.51550781 -78.04179687 9.01148437 -77.5703125 8.4921875 C-75.52222513 6.6226259 -73.38106384 5.55149421 -70.89453125 4.33203125 C-70.01667969 3.89503906 -69.13882813 3.45804688 -68.234375 3.0078125 C-65.95703125 2.01953125 -65.95703125 2.01953125 -63.95703125 2.01953125 C-63.62703125 1.35953125 -63.29703125 0.69953125 -62.95703125 0.01953125 C-46.20620411 -8.11193824 -16.67482222 -8.35305353 0 0 Z " fill="#F9F9F9" transform="translate(353.95703125,65.98046875)"/>
<path d="M0 0 C10.98944701 7.76947671 17.47814456 19.32019232 20.34765625 32.38671875 C22.99805973 51.18249675 19.32938993 69.95705758 7.8671875 85.32421875 C1.80167286 91.85725784 -6.31380018 96.18144581 -15.21484375 96.984375 C-25.74323883 97.29263882 -34.11118091 95.2147416 -42.49609375 88.6484375 C-51.9728214 79.54683032 -56.44745509 66.61501517 -57.18359375 53.7109375 C-57.24804688 52.63328125 -57.3125 51.555625 -57.37890625 50.4453125 C-57.92433596 33.06428584 -53.1301525 16.7131189 -41.18359375 3.7109375 C-30.28682822 -6.4038842 -12.67828237 -7.48449586 0 0 Z " fill="#2F2E2F" transform="translate(176.18359375,105.2890625)"/>
<path d="M0 0 C9.93613753 8.4457169 15.26251651 22.78065169 16.42626953 35.55932617 C17.29754969 53.50737589 15.28846238 69.62099635 3.53125 83.95703125 C-2.28125552 90.23189516 -9.04686417 93.63531311 -17.5703125 94.17578125 C-27.8409344 94.43575232 -35.28460797 93.55189094 -44.0625 87.8125 C-56.86885219 74.42404089 -58.30474888 57.60453434 -58.08984375 40.0234375 C-57.6462917 25.71943572 -52.59342732 12.25374801 -42.8046875 1.66015625 C-30.98148948 -8.56343263 -12.63356061 -8.98763372 0 0 Z " fill="#2F2E2F" transform="translate(339.8125,107.0625)"/>
<path d="M0 0 C0 3 0 3 -2.625 5.91796875 C-3.74249406 7.01550756 -4.86785643 8.10507895 -6 9.1875 C-6.57234375 9.74630859 -7.1446875 10.30511719 -7.734375 10.88085938 C-9.14962788 12.26073093 -10.57397155 13.63126734 -12 15 C-12.66 14.67 -13.32 14.34 -14 14 C-12.60919892 12.41224451 -11.21211596 10.82999061 -9.8125 9.25 C-8.64654297 7.92742187 -8.64654297 7.92742187 -7.45703125 6.578125 C-5.11544754 4.12113732 -2.69841735 2.05137234 0 0 Z " fill="#979796" transform="translate(277,75)"/>
<path d="M0 0 C0 3 0 3 -1.75 5.04296875 C-2.4925 5.75066406 -3.235 6.45835938 -4 7.1875 C-4.7425 7.90292969 -5.485 8.61835937 -6.25 9.35546875 C-7.11625 10.16951172 -7.11625 10.16951172 -8 11 C-8.66 10.67 -9.32 10.34 -10 10 C-8.625 7.5 -8.625 7.5 -7 5 C-6.34 5 -5.68 5 -5 5 C-5 4.34 -5 3.68 -5 3 C-2.5 1.375 -2.5 1.375 0 0 Z " fill="#9E9E9E" transform="translate(102,77)"/>
<path d="M0 0 C0 0.66 0 1.32 0 2 C-5.61 1.67 -11.22 1.34 -17 1 C-17 0.67 -17 0.34 -17 0 C-14.9174133 -0.19561869 -12.83388144 -0.38119313 -10.75 -0.5625 C-9.58984375 -0.66691406 -8.4296875 -0.77132812 -7.234375 -0.87890625 C-4.48128523 -0.98198087 -2.580018 -0.86213473 0 0 Z " fill="#363636" transform="translate(168,199)"/>
<path d="M0 0 C1.98 0 3.96 0 6 0 C5.67 0.66 5.34 1.32 5 2 C3.35 1.67 1.7 1.34 0 1 C0 0.67 0 0.34 0 0 Z " fill="#D9D9D9" transform="translate(314,250)"/>
<path d="M0 0 C4 1 4 1 4 1 Z " fill="#D8D8D8" transform="translate(321,250)"/>
<path d="M0 0 C0.66 0.33 1.32 0.66 2 1 C1.01 1 0.02 1 -1 1 C-0.67 0.67 -0.34 0.34 0 0 Z " fill="#A0A0A0" transform="translate(163,249)"/>
<path d="M0 0 C0 3 0 3 0 3 Z " fill="#969696" transform="translate(277,239)"/>
<path d="M0 0 C2 1 2 1 2 1 Z " fill="#4D4D4D" transform="translate(25,298)"/>
<path d="M0 0 C2 1 2 1 2 1 Z " fill="#CACACA" transform="translate(478,258)"/>
<path d="M0 0 C2 1 2 1 2 1 Z " fill="#CACACA" transform="translate(153,250)"/>
<path d="M0 0 C2 1 2 1 2 1 Z " fill="#737373" transform="translate(335,249)"/>
<path d="M0 0 C2 1 2 1 2 1 Z " fill="#CDCDCD" transform="translate(281,242)"/>
<path d="M0 0 C2 1 2 1 2 1 Z " fill="#737373" transform="translate(25,194)"/>
<path d="M0 0 C2 1 2 1 2 1 Z " fill="#CACACA" transform="translate(478,178)"/>
<path d="M0 0 C2 1 2 1 2 1 Z " fill="#737373" transform="translate(25,130)"/>
<path d="M0 0 C2 1 2 1 2 1 Z " fill="#737373" transform="translate(25,122)"/>
<path d="M0 0 C2 1 2 1 2 1 Z " fill="#CACACA" transform="translate(478,90)"/>
<path d="" fill="#B6B6B6" transform="translate(0,0)"/>
<path d="" fill="#B6B6B6" transform="translate(0,0)"/>
<path d="M0 0 C2 1 2 1 2 1 Z " fill="#CACACA" transform="translate(478,74)"/>
<path d="M0 0 C2 1 2 1 2 1 Z " fill="#9E9E9E" transform="translate(478,42)"/>
<path d="M0 0 C2 1 2 1 2 1 Z " fill="#9E9E9E" transform="translate(478,34)"/>
<path d="M0 0 C2 1 2 1 2 1 Z " fill="#4D4D4D" transform="translate(25,34)"/>
<path d="M0 0 C2 1 2 1 2 1 Z " fill="#4D4D4D" transform="translate(479,2)"/>
<path d="" fill="#ADADAD" transform="translate(0,0)"/>
<path d="" fill="#ADADAD" transform="translate(0,0)"/>
<path d="" fill="#565656" transform="translate(0,0)"/>
<path d="" fill="#ADADAD" transform="translate(0,0)"/>
<path d="" fill="#ADADAD" transform="translate(0,0)"/>
<path d="" fill="#ADADAD" transform="translate(0,0)"/>
<path d="" fill="#ADADAD" transform="translate(0,0)"/>
<path d="" fill="#ADADAD" transform="translate(0,0)"/>
<path d="" fill="#ADADAD" transform="translate(0,0)"/>
<path d="" fill="#ADADAD" transform="translate(0,0)"/>
<path d="" fill="#ADADAD" transform="translate(0,0)"/>
<path d="" fill="#565656" transform="translate(0,0)"/>
<path d="" fill="#ADADAD" transform="translate(0,0)"/>
<path d="" fill="#ADADAD" transform="translate(0,0)"/>
<path d="" fill="#ADADAD" transform="translate(0,0)"/>
<path d="" fill="#ADADAD" transform="translate(0,0)"/>
<path d="" fill="#ADADAD" transform="translate(0,0)"/>
<path d="" fill="#565656" transform="translate(0,0)"/>
<path d="" fill="#ADADAD" transform="translate(0,0)"/>
<path d="" fill="#ADADAD" transform="translate(0,0)"/>
<path d="" fill="#ADADAD" transform="translate(0,0)"/>
<path d="" fill="#ADADAD" transform="translate(0,0)"/>
<path d="" fill="#ADADAD" transform="translate(0,0)"/>
<path d="" fill="#ADADAD" transform="translate(0,0)"/>
<path d="" fill="#ADADAD" transform="translate(0,0)"/>
<path d="" fill="#ADADAD" transform="translate(0,0)"/>
<path d="" fill="#ADADAD" transform="translate(0,0)"/>
<path d="" fill="#ADADAD" transform="translate(0,0)"/>
<path d="" fill="#ADADAD" transform="translate(0,0)"/>
<path d="" fill="#ADADAD" transform="translate(0,0)"/>
<path d="" fill="#ADADAD" transform="translate(0,0)"/>
<path d="" fill="#ADADAD" transform="translate(0,0)"/>
<path d="" fill="#ADADAD" transform="translate(0,0)"/>
<path d="" fill="#ADADAD" transform="translate(0,0)"/>
<path d="" fill="#ADADAD" transform="translate(0,0)"/>
<path d="" fill="#ADADAD" transform="translate(0,0)"/>
<path d="" fill="#ADADAD" transform="translate(0,0)"/>
<path d="" fill="#ADADAD" transform="translate(0,0)"/>
<path d="" fill="#ADADAD" transform="translate(0,0)"/>
<path d="" fill="#ADADAD" transform="translate(0,0)"/>
<path d="" fill="#ADADAD" transform="translate(0,0)"/>
<path d="" fill="#ADADAD" transform="translate(0,0)"/>
<path d="" fill="#B3B3B3" transform="translate(0,0)"/>
<path d="" fill="#ADADAD" transform="translate(0,0)"/>
<path d="" fill="#ADADAD" transform="translate(0,0)"/>
<path d="" fill="#ADADAD" transform="translate(0,0)"/>
<path d="" fill="#ADADAD" transform="translate(0,0)"/>
<path d="" fill="#ADADAD" transform="translate(0,0)"/>
<path d="" fill="#ADADAD" transform="translate(0,0)"/>
<path d="" fill="#ADADAD" transform="translate(0,0)"/>
<path d="" fill="#ADADAD" transform="translate(0,0)"/>
<path d="" fill="#ADADAD" transform="translate(0,0)"/>
<path d="" fill="#ADADAD" transform="translate(0,0)"/>
<path d="" fill="#ADADAD" transform="translate(0,0)"/>
<path d="" fill="#ADADAD" transform="translate(0,0)"/>
<path d="" fill="#ADADAD" transform="translate(0,0)"/>
<path d="" fill="#ADADAD" transform="translate(0,0)"/>
<path d="" fill="#B3B3B3" transform="translate(0,0)"/>
<path d="" fill="#ADADAD" transform="translate(0,0)"/>
<path d="" fill="#ADADAD" transform="translate(0,0)"/>
<path d="" fill="#ADADAD" transform="translate(0,0)"/>
<path d="" fill="#ADADAD" transform="translate(0,0)"/>
<path d="" fill="#ADADAD" transform="translate(0,0)"/>
<path d="" fill="#ADADAD" transform="translate(0,0)"/>
<path d="" fill="#ADADAD" transform="translate(0,0)"/>
<path d="" fill="#ADADAD" transform="translate(0,0)"/>
<path d="" fill="#ADADAD" transform="translate(0,0)"/>
<path d="" fill="#ADADAD" transform="translate(0,0)"/>
<path d="" fill="#ADADAD" transform="translate(0,0)"/>
<path d="" fill="#ADADAD" transform="translate(0,0)"/>
<path d="" fill="#ADADAD" transform="translate(0,0)"/>
<path d="" fill="#ADADAD" transform="translate(0,0)"/>
<path d="" fill="#ADADAD" transform="translate(0,0)"/>
<path d="" fill="#ADADAD" transform="translate(0,0)"/>
<path d="" fill="#ADADAD" transform="translate(0,0)"/>
<path d="" fill="#ADADAD" transform="translate(0,0)"/>
<path d="" fill="#ADADAD" transform="translate(0,0)"/>
<path d="" fill="#ADADAD" transform="translate(0,0)"/>
<path d="" fill="#ADADAD" transform="translate(0,0)"/>
<path d="" fill="#ADADAD" transform="translate(0,0)"/>
<path d="" fill="#ADADAD" transform="translate(0,0)"/>
<path d="" fill="#ADADAD" transform="translate(0,0)"/>
<path d="" fill="#ADADAD" transform="translate(0,0)"/>
<path d="" fill="#ADADAD" transform="translate(0,0)"/>
<path d="" fill="#ADADAD" transform="translate(0,0)"/>
<path d="" fill="#ADADAD" transform="translate(0,0)"/>
<path d="" fill="#ADADAD" transform="translate(0,0)"/>
<path d="" fill="#ADADAD" transform="translate(0,0)"/>
<path d="" fill="#ADADAD" transform="translate(0,0)"/>
<path d="" fill="#ADADAD" transform="translate(0,0)"/>
<path d="" fill="#ADADAD" transform="translate(0,0)"/>
<path d="" fill="#ADADAD" transform="translate(0,0)"/>
<path d="" fill="#ADADAD" transform="translate(0,0)"/>
<path d="" fill="#ADADAD" transform="translate(0,0)"/>
<path d="" fill="#ADADAD" transform="translate(0,0)"/>
<path d="" fill="#ADADAD" transform="translate(0,0)"/>
<path d="" fill="#ADADAD" transform="translate(0,0)"/>
<path d="" fill="#ADADAD" transform="translate(0,0)"/>
<path d="" fill="#ADADAD" transform="translate(0,0)"/>
<path d="" fill="#ADADAD" transform="translate(0,0)"/>
<path d="" fill="#ADADAD" transform="translate(0,0)"/>
<path d="" fill="#ADADAD" transform="translate(0,0)"/>
<path d="" fill="#ADADAD" transform="translate(0,0)"/>
<path d="" fill="#ADADAD" transform="translate(0,0)"/>
<path d="" fill="#ADADAD" transform="translate(0,0)"/>
<path d="" fill="#ADADAD" transform="translate(0,0)"/>
<path d="" fill="#ADADAD" transform="translate(0,0)"/>
<path d="" fill="#ADADAD" transform="translate(0,0)"/>
<path d="" fill="#ADADAD" transform="translate(0,0)"/>
<path d="" fill="#ADADAD" transform="translate(0,0)"/>
<path d="" fill="#ADADAD" transform="translate(0,0)"/>
<path d="" fill="#ADADAD" transform="translate(0,0)"/>
<path d="" fill="#ADADAD" transform="translate(0,0)"/>
<path d="" fill="#ADADAD" transform="translate(0,0)"/>
<path d="" fill="#ADADAD" transform="translate(0,0)"/>
<path d="" fill="#ADADAD" transform="translate(0,0)"/>
<path d="" fill="#ADADAD" transform="translate(0,0)"/>
<path d="" fill="#ADADAD" transform="translate(0,0)"/>
<path d="" fill="#ADADAD" transform="translate(0,0)"/>
<path d="" fill="#ADADAD" transform="translate(0,0)"/>
<path d="" fill="#ADADAD" transform="translate(0,0)"/>
<path d="" fill="#ADADAD" transform="translate(0,0)"/>
<path d="" fill="#ADADAD" transform="translate(0,0)"/>
<path d="" fill="#ADADAD" transform="translate(0,0)"/>
<path d="" fill="#ADADAD" transform="translate(0,0)"/>
<path d="" fill="#ADADAD" transform="translate(0,0)"/>
<path d="" fill="#ADADAD" transform="translate(0,0)"/>
<path d="" fill="#ADADAD" transform="translate(0,0)"/>
<path d="" fill="#ADADAD" transform="translate(0,0)"/>
<path d="" fill="#ADADAD" transform="translate(0,0)"/>
<path d="" fill="#ADADAD" transform="translate(0,0)"/>
<path d="" fill="#ADADAD" transform="translate(0,0)"/>
<path d="" fill="#ADADAD" transform="translate(0,0)"/>
<path d="" fill="#ADADAD" transform="translate(0,0)"/>
<path d="" fill="#ADADAD" transform="translate(0,0)"/>
<path d="" fill="#ADADAD" transform="translate(0,0)"/>
<path d="" fill="#ADADAD" transform="translate(0,0)"/>
<path d="" fill="#ADADAD" transform="translate(0,0)"/>
<path d="" fill="#ADADAD" transform="translate(0,0)"/>
<path d="" fill="#ADADAD" transform="translate(0,0)"/>
<path d="" fill="#ADADAD" transform="translate(0,0)"/>
<path d="" fill="#565656" transform="translate(0,0)"/>
<path d="" fill="#ADADAD" transform="translate(0,0)"/>
<path d="" fill="#ADADAD" transform="translate(0,0)"/>
<path d="" fill="#565656" transform="translate(0,0)"/>
<path d="" fill="#ADADAD" transform="translate(0,0)"/>
<path d="" fill="#ADADAD" transform="translate(0,0)"/>
<path d="" fill="#565656" transform="translate(0,0)"/>
<path d="" fill="#ADADAD" transform="translate(0,0)"/>
<path d="" fill="#ADADAD" transform="translate(0,0)"/>
<path d="" fill="#ADADAD" transform="translate(0,0)"/>
<path d="" fill="#ADADAD" transform="translate(0,0)"/>
<path d="" fill="#ADADAD" transform="translate(0,0)"/>
<path d="" fill="#565656" transform="translate(0,0)"/>
</svg>
