<?xml version="1.0" encoding="UTF-8"?>
<svg version="1.1" xmlns="http://www.w3.org/2000/svg" width="408" height="612">
<path d="M0 0 C1.94139099 0.00052039 3.8827825 -0.00000422 5.82417297 -0.00151062 C9.86406471 -0.00142162 13.90375388 0.00886063 17.94360352 0.02709961 C23.08735171 0.04982979 28.2308062 0.05031452 33.37459087 0.04358196 C37.37348481 0.04022067 41.37231337 0.04691178 45.37119484 0.0567112 C47.26675892 0.06052286 49.16233033 0.06172844 51.05789757 0.06012535 C75.78252066 0.05662635 98.41255248 4.1931716 117.42578125 21.36328125 C118.18375 22.01683594 118.94171875 22.67039062 119.72265625 23.34375 C129.36158095 32.20158942 135.65231097 43.93633492 139.42578125 56.36328125 C139.68927368 57.11744827 139.95276611 57.8716153 140.22424316 58.64863586 C143.62249352 69.71794454 142.89869862 81.32216335 142.89453125 92.78125 C142.90164533 95.16718217 142.90934612 97.55311265 142.91760254 99.93904114 C142.93100544 104.92758951 142.93263551 109.91597975 142.92675781 114.90454102 C142.9208734 121.25442863 142.95142221 127.60354862 142.99187469 133.95328808 C143.01789989 138.87882986 143.02061556 143.8041906 143.01698303 148.72979164 C143.01866119 151.06864661 143.0281759 153.40751115 143.04612732 155.74629784 C143.22746014 182.29419239 136.87194492 203.08909892 118.17578125 222.7265625 C105.78540754 234.52594799 88.75865455 243.36328125 71.42578125 243.36328125 C71.75578125 250.62328125 72.08578125 257.88328125 72.42578125 265.36328125 C74.71515625 265.6571875 74.71515625 265.6571875 77.05078125 265.95703125 C104.03432929 269.68665819 134.04236603 278.08167226 154.42578125 297.36328125 C154.42578125 298.02328125 154.42578125 298.68328125 154.42578125 299.36328125 C155.29203125 299.73453125 155.29203125 299.73453125 156.17578125 300.11328125 C158.75518104 301.54628113 160.48699717 303.14752801 162.42578125 305.36328125 C162.42578125 306.02328125 162.42578125 306.68328125 162.42578125 307.36328125 C163.41578125 307.69328125 164.40578125 308.02328125 165.42578125 308.36328125 C166.96434874 310.39979597 168.33180296 312.39121655 169.67578125 314.55078125 C170.06983154 315.17791016 170.46388184 315.80503906 170.86987305 316.45117188 C186.60801474 341.9171324 186.60801474 341.9171324 185.01953125 353.265625 C184.725625 354.30396484 184.725625 354.30396484 184.42578125 355.36328125 C180.35461208 356.74921118 176.98561523 357.48927697 172.671875 357.42578125 C171.87322021 357.41675781 171.07456543 357.40773438 170.25170898 357.3984375 C169.34787476 357.38103516 169.34787476 357.38103516 168.42578125 357.36328125 C170.04049499 364.40329534 171.65830257 371.4425937 173.27807617 378.48144531 C173.82660903 380.86670541 174.3744815 383.25211748 174.92163086 385.63769531 C177.76675833 398.04046915 180.61481029 410.43752438 183.79338074 422.75994873 C185.200286 428.25996279 186.35118074 433.78944998 187.42578125 439.36328125 C187.6578125 440.52859375 187.88984375 441.69390625 188.12890625 442.89453125 C188.39960937 444.3640625 188.39960937 444.3640625 188.67578125 445.86328125 C188.96195312 447.36375 188.96195312 447.36375 189.25390625 448.89453125 C189.310625 449.70921875 189.36734375 450.52390625 189.42578125 451.36328125 C186.60587204 454.18319046 184.53930148 454.33177555 180.60255432 454.44316101 C178.9692643 454.41268425 178.9692643 454.41268425 177.30297852 454.3815918 C176.06391251 454.36215012 174.8248465 454.34270844 173.54823303 454.32267761 C172.88804735 454.31044851 172.22786167 454.29821941 171.54767036 454.28561974 C168.01832991 454.22445933 164.48865486 454.19419936 160.95898438 454.15820312 C156.48241793 454.1105263 152.00647892 454.05419325 147.53051758 453.96557617 C143.90133939 453.89453689 140.27287718 453.85416649 136.64307976 453.83295631 C135.27208342 453.81952707 133.90114175 453.79537664 132.53055 453.75946617 C122.31187327 453.49936523 115.405771 455.63941629 106.42578125 460.36328125 C103.46150977 461.50858013 100.47460046 462.47040254 97.42578125 463.36328125 C96.73194336 463.57065918 96.03810547 463.77803711 95.32324219 463.99169922 C85.84088975 466.7492109 76.27417465 468.89884715 66.55078125 470.61328125 C65.63731934 470.77626709 64.72385742 470.93925293 63.78271484 471.10717773 C50.52295729 473.34248908 37.271928 473.5700482 23.86328125 473.55078125 C23.02062714 473.54984467 22.17797302 473.54890808 21.30978394 473.54794312 C-3.69817805 473.48770156 -32.19896803 472.19405275 -54.94482422 460.65307617 C-69.44345077 453.50484976 -84.89376183 454.40925313 -100.65026855 454.53564453 C-106.5697446 454.57570867 -112.48937534 454.55204314 -118.40889549 454.53264809 C-120.4592103 454.53127727 -122.50892529 454.54556816 -124.55915833 454.56278992 C-125.8020311 454.56551407 -127.04490387 454.56823822 -128.32543945 454.57104492 C-129.41476273 454.57883469 -130.504086 454.58662445 -131.62641907 454.59465027 C-134.65591755 454.35686882 -136.83586889 453.64455841 -139.57421875 452.36328125 C-139.9510844 445.93861921 -138.53366143 440.31521489 -136.94921875 434.11328125 C-136.38985058 431.85858706 -135.83262828 429.60335963 -135.27734375 427.34765625 C-134.99181641 426.18943359 -134.70628906 425.03121094 -134.41210938 423.83789062 C-133.09215676 418.36424096 -131.89715712 412.86468078 -130.69921875 407.36328125 C-128.35408988 396.66308556 -125.84481309 386.0079869 -123.26171875 375.36328125 C-123.0847345 374.63238281 -122.90775024 373.90148437 -122.72540283 373.1484375 C-119.76255757 360.9282977 -119.76255757 360.9282977 -118.57421875 357.36328125 C-119.21488281 357.38648438 -119.85554688 357.4096875 -120.515625 357.43359375 C-125.98408971 357.54768988 -130.40520152 357.16120029 -135.57421875 355.36328125 C-137.0804059 340.60264714 -127.83806268 324.88984019 -119.82421875 313.11328125 C-119.24075684 312.25259033 -119.24075684 312.25259033 -118.64550781 311.37451172 C-117.67653258 309.99721286 -116.63135558 308.67413092 -115.57421875 307.36328125 C-114.91421875 307.36328125 -114.25421875 307.36328125 -113.57421875 307.36328125 C-113.31125 306.77804687 -113.04828125 306.1928125 -112.77734375 305.58984375 C-102.88107649 287.27532317 -75.67566731 277.53825478 -57.16308594 271.69042969 C-46.30827669 268.48254488 -33.95729198 265.36328125 -22.57421875 265.36328125 C-22.57421875 258.10328125 -22.57421875 250.84328125 -22.57421875 243.36328125 C-25.87421875 243.03328125 -29.17421875 242.70328125 -32.57421875 242.36328125 C-46.59357136 239.14261916 -59.03984796 232.06271878 -69.57421875 222.36328125 C-70.20457031 221.82445312 -70.83492188 221.285625 -71.484375 220.73046875 C-77.46942088 215.30439071 -81.44907575 208.22514363 -85.57421875 201.36328125 C-86.00992188 200.66332031 -86.445625 199.96335938 -86.89453125 199.2421875 C-94.91952016 185.0562819 -94.16882137 168.23007976 -94.10546875 152.51953125 C-94.10817044 150.1369206 -94.11205845 147.75431103 -94.11706543 145.3717041 C-94.1229286 140.40280556 -94.11450059 135.43419663 -94.09570312 130.46533203 C-94.07291605 124.13795153 -94.08605627 117.81125003 -94.10999298 111.48389435 C-94.12453725 106.5712586 -94.11980558 101.65878036 -94.10948181 96.74613953 C-94.10683832 94.41485003 -94.10999919 92.08354561 -94.11940002 89.75227356 C-94.17004192 73.66950101 -93.59962286 58.41784178 -85.76171875 43.92578125 C-85.4147998 43.26239746 -85.06788086 42.59901367 -84.71044922 41.91552734 C-81.85439379 36.59317485 -78.64608562 31.84064523 -74.57421875 27.36328125 C-73.51847656 26.15285156 -73.51847656 26.15285156 -72.44140625 24.91796875 C-53.29343065 4.25332182 -26.88766121 -0.1445515 0 0 Z " fill="#FBAA69" transform="translate(179.57421875,49.63671875)"/>
<path d="M0 0 C6.31078192 14.6740997 8.03861569 27.20438066 2.97265625 42.7109375 C1.95946191 46.1370806 1.42604762 49.45707769 1 53 C1.71091797 53.3403125 2.42183594 53.680625 3.15429688 54.03125 C5.95988237 55.37592832 8.76430715 56.7229957 11.5680542 58.07150269 C12.85547305 58.69023896 14.14327432 59.30818014 15.43145752 59.92532349 C23.27937555 63.68665412 31.07578896 67.5265918 38.8046875 71.52734375 C40.25050954 72.27045766 41.69647171 73.01329901 43.14257812 73.75585938 C45.25028523 74.83832597 47.35389769 75.92632877 49.44799805 77.03491211 C51.4027228 78.06937854 53.36774634 79.08129503 55.3359375 80.08984375 C56.45532715 80.67628662 57.5747168 81.26272949 58.72802734 81.86694336 C63.85749022 83.64323326 67.57172541 82.62021448 72.4453125 80.50390625 C73.67672278 79.86604378 74.90306302 79.2183276 76.125 78.5625 C77.53275155 77.83250514 78.94166852 77.10475463 80.3515625 76.37890625 C81.09954102 75.99234863 81.84751953 75.60579102 82.61816406 75.20751953 C86.8705614 73.05168135 91.18801559 71.03324571 95.5 69 C104.39694234 64.7884631 113.21368282 60.43675112 122 56 C124.66561785 54.66455764 127.33274049 53.33216261 130 52 C129.6390625 50.93265625 129.278125 49.8653125 128.90625 48.765625 C123.72477711 32.51262884 121.98570551 15.61045188 130 0 C132.33294775 -0.04241723 134.66702567 -0.04092937 137 0 C137.33 0.33 137.66 0.66 138 1 C137.9140625 2.85546875 137.9140625 2.85546875 137.625 5.1875 C137.53476562 5.94417969 137.44453125 6.70085937 137.3515625 7.48046875 C137.09803747 9.29739814 136.80089886 11.10842874 136.4765625 12.9140625 C134.14428667 28.01650437 138.22498593 41.17122678 146 54 C146 54.66 146 55.32 146 56 C146.99 56.33 147.98 56.66 149 57 C150.19048145 58.45756337 151.3792496 59.91660635 152.55419922 61.38671875 C155.01366984 64.13109259 157.97860346 66.01865489 161.0625 68 C162.05866333 68.64618286 162.05866333 68.64618286 163.07495117 69.30541992 C176.67668555 77.99727586 190.91852926 83.30817107 207 85 C207.19335938 86.07121094 207.38671875 87.14242187 207.5859375 88.24609375 C207.84850255 89.64331489 208.11154825 91.04044578 208.375 92.4375 C208.50132812 93.14455078 208.62765625 93.85160156 208.7578125 94.58007812 C209.10622243 96.40052 209.547043 98.20271648 210 100 C210.66 100.33 211.32 100.66 212 101 C212.66853321 103.11940854 213.22559326 105.27417609 213.734375 107.4375 C213.97228256 108.43311195 213.97228256 108.43311195 214.21499634 109.44883728 C214.73448501 111.63078774 215.24227713 113.81528457 215.75 116 C216.1055056 117.50352051 216.4617932 119.00685632 216.81884766 120.51000977 C217.54033546 123.55150999 218.25759925 126.59395953 218.97167969 129.63720703 C219.89443189 133.56293973 220.83750065 137.4834823 221.7890625 141.40234375 C222.05879883 142.51416016 222.32853516 143.62597656 222.60644531 144.77148438 C223.10272247 146.81586878 223.59943594 148.86014735 224.09667969 150.90429688 C225.54315516 156.91144897 226.83101183 162.93299092 228 169 C228.23203125 170.1653125 228.4640625 171.330625 228.703125 172.53125 C228.88359375 173.5109375 229.0640625 174.490625 229.25 175.5 C229.53617187 177.00046875 229.53617187 177.00046875 229.828125 178.53125 C229.88484375 179.3459375 229.9415625 180.160625 230 181 C227.18009079 183.81990921 225.11352023 183.9684943 221.17677307 184.07987976 C220.08791306 184.05956192 218.99905304 184.03924408 217.87719727 184.01831055 C216.63813126 183.99886887 215.39906525 183.97942719 214.12245178 183.95939636 C213.4622661 183.94716726 212.80208042 183.93493816 212.12188911 183.92233849 C208.59254866 183.86117808 205.06287361 183.83091811 201.53320312 183.79492188 C197.05663668 183.74724505 192.58069767 183.690912 188.10473633 183.60229492 C184.47555814 183.53125564 180.84709593 183.49088524 177.21729851 183.46967506 C175.84630217 183.45624582 174.4753605 183.43209539 173.10476875 183.39618492 C162.88609202 183.13608398 155.97998975 185.27613504 147 190 C144.03572852 191.14529888 141.04881921 192.10712129 138 193 C137.30616211 193.20737793 136.61232422 193.41475586 135.89746094 193.62841797 C126.4151085 196.38592965 116.8483934 198.5355659 107.125 200.25 C106.21153809 200.41298584 105.29807617 200.57597168 104.35693359 200.74389648 C91.09717604 202.97920783 77.84614675 203.20676695 64.4375 203.1875 C63.59484589 203.18656342 62.75219177 203.18562683 61.88400269 203.18466187 C36.8760407 203.12442031 8.37525072 201.8307715 -14.37060547 190.28979492 C-28.86923202 183.14156851 -44.31954308 184.04597188 -60.0760498 184.17236328 C-65.99552585 184.21242742 -71.91515659 184.18876189 -77.83467674 184.16936684 C-79.88499155 184.16799602 -81.93470654 184.18228691 -83.98493958 184.19950867 C-85.22781235 184.20223282 -86.47068512 184.20495697 -87.7512207 184.20776367 C-88.84054398 184.21555344 -89.92986725 184.2233432 -91.05220032 184.23136902 C-94.0816988 183.99358757 -96.26165014 183.28127716 -99 182 C-99.37686141 175.57541024 -97.95975451 169.95188985 -96.375 163.75 C-95.82466646 161.53438869 -95.27657176 159.31822034 -94.73046875 157.1015625 C-94.30386963 155.37147949 -94.30386963 155.37147949 -93.86865234 153.60644531 C-92.10760573 146.29498365 -90.52095595 138.94399348 -88.91748047 131.59667969 C-88.56194092 129.97487793 -88.56194092 129.97487793 -88.19921875 128.3203125 C-87.99127686 127.36398926 -87.78333496 126.40766602 -87.5690918 125.42236328 C-87 123 -87 123 -86 120 C-85.34 120 -84.68 120 -84 120 C-83.67 117.36 -83.34 114.72 -83 112 C-82.01 112 -81.02 112 -80 112 C-80 109.36 -80 106.72 -80 104 C-79.34 104 -78.68 104 -78 104 C-78 100.7 -78 97.4 -78 94 C-77.34 94 -76.68 94 -76 94 C-76.185625 92.700625 -76.37125 91.40125 -76.5625 90.0625 C-76.87890625 87.84765625 -76.87890625 87.84765625 -77 86 C-75.28090731 84.28090731 -72.78782622 84.58069673 -70.4375 84.3125 C-50.00607086 81.25336799 -29.11098903 70.13773708 -15.75 54.40625 C-7.17541358 42.61619367 -5.01115965 28.23281687 -6 14 C-6.49438493 11.23651502 -7.20039726 8.69865926 -8 6 C-8.125 3 -8.125 3 -8 1 C-5.29120665 -0.35439668 -2.99066732 -0.06501451 0 0 Z " fill="#CE8819" transform="translate(139,320)"/>
<path d="M0 0 C29.7 0 59.4 0 90 0 C90.33 7.92 90.66 15.84 91 24 C94.526875 24.1546875 94.526875 24.1546875 98.125 24.3125 C124.47285571 25.86300396 155.51750714 36.57061487 175 55 C175 55.66 175 56.32 175 57 C175.5775 57.2475 176.155 57.495 176.75 57.75 C179.32939979 59.18299988 181.06121592 60.78424676 183 63 C183 63.66 183 64.32 183 65 C183.99 65.33 184.98 65.66 186 66 C187.53856749 68.03651472 188.90602171 70.0279353 190.25 72.1875 C190.64405029 72.81462891 191.03810059 73.44175781 191.4440918 74.08789062 C207.18223349 99.55385115 207.18223349 99.55385115 205.59375 110.90234375 C205.29984375 111.94068359 205.29984375 111.94068359 205 113 C199.51324804 114.86783046 194.77807024 115.2358396 189 115 C189.33 116.19625 189.66 117.3925 190 118.625 C190.89265823 122.15791497 191.18296045 125.34079109 191 129 C190.34 128.67 189.68 128.34 189 128 C187.38962091 122.81100071 186.77458325 118.41000193 187 113 C185.28103516 113.05994141 185.28103516 113.05994141 183.52734375 113.12109375 C165.01330926 113.08449671 145.50911604 101.95960515 132 90 C130.63859885 88.35618053 129.29998507 86.69280665 128 85 C127.360625 84.443125 126.72125 83.88625 126.0625 83.3125 C116.64983438 72.75890521 114.32254531 57.56484854 115 44 C115.40920871 41.36327258 115.92396825 38.808351 116.5625 36.21875 C117.04596613 33.76688603 117.07022232 31.49289229 117 29 C114.69 28.67 112.38 28.34 110 28 C109.5196682 29.58298026 109.04078388 31.16639978 108.5625 32.75 C108.29566406 33.63171875 108.02882813 34.5134375 107.75390625 35.421875 C103.34784232 50.48924388 106.07361404 65.43197294 111 80 C105.14935298 83.31638911 99.24008624 86.43299607 93.1875 89.36328125 C92.37490723 89.75895798 91.56231445 90.1546347 90.72509766 90.56230164 C89.01473391 91.39452128 87.3037884 92.22554625 85.59228516 93.05541992 C83.03283745 94.29657609 80.47525171 95.54150008 77.91796875 96.78710938 C74.57978191 98.41214988 71.23698091 100.02710925 67.890625 101.63525391 C64.63505319 103.20096186 61.39871415 104.79930133 58.171875 106.42333984 C56.65634435 107.17174058 55.14072361 107.9199589 53.625 108.66796875 C52.94163574 109.02055252 52.25827148 109.37313629 51.55419922 109.73640442 C47.15042299 111.8830595 44.70954867 112.11270192 40 111 C37.35818481 109.91960144 37.35818481 109.91960144 34.67236328 108.56323242 C33.6575589 108.05567917 32.64275452 107.54812592 31.59719849 107.02519226 C30.51582611 106.4741835 29.43445374 105.92317474 28.3203125 105.35546875 C27.19358124 104.78927322 26.06684998 104.2230777 24.90597534 103.63972473 C21.91739041 102.1361491 18.93246003 100.62575885 15.94909668 99.11187744 C12.93378764 97.5838424 9.91400028 96.06471515 6.89453125 94.54492188 C2.45619842 92.30944385 -1.97996597 90.06978428 -6.41357422 87.82495117 C-10.93544638 85.53588154 -15.46437396 83.26168655 -20 81 C-19.4264225 76.2302503 -18.42745705 71.93565705 -16.9375 67.375 C-13.25195355 54.59033886 -15.25180514 44.38861191 -19 32 C-19.34387665 30.66934688 -19.68317115 29.33735125 -20 28 C-23.96 28.495 -23.96 28.495 -28 29 C-27.7834375 29.76441406 -27.566875 30.52882813 -27.34375 31.31640625 C-22.88657124 48.46416342 -24.39829626 64.09563163 -32.9375 79.67578125 C-43.89914434 97.34312848 -67.4176398 108.30436159 -87 113 C-90.02181439 113.49593059 -92.94054538 113.79257935 -96 114 C-96 116.64 -96 119.28 -96 122 C-96.66 122 -97.32 122 -98 122 C-98 125.3 -98 128.6 -98 132 C-98.66 132 -99.32 132 -100 132 C-100 134.64 -100 137.28 -100 140 C-100.99 140 -101.98 140 -103 140 C-102.95875 140.94875 -102.9175 141.8975 -102.875 142.875 C-103 146 -103 146 -105 148 C-104.49446942 140.96690016 -103.29410105 134.37495799 -101.5 127.5625 C-101.27441406 126.67884766 -101.04882812 125.79519531 -100.81640625 124.88476562 C-99.95946065 121.55079088 -99.0889466 118.26683979 -98 115 C-98.64066406 115.02320313 -99.28132813 115.04640625 -99.94140625 115.0703125 C-105.40987096 115.18440863 -109.83098277 114.79791904 -115 113 C-116.50618715 98.23936589 -107.26384393 82.52655894 -99.25 70.75 C-98.66653809 69.88930908 -98.66653809 69.88930908 -98.07128906 69.01123047 C-97.10231383 67.63393161 -96.05713683 66.31084967 -95 65 C-94.34 65 -93.68 65 -93 65 C-92.73703125 64.41476562 -92.4740625 63.82953125 -92.203125 63.2265625 C-81.68443577 43.7601571 -52.67661737 34.36334543 -33.12109375 28.41015625 C-24.89785658 26.06065991 -16.91591482 24.7171555 -8.375 24.375 C-5.61125 24.25125 -2.8475 24.1275 0 24 C0 16.08 0 8.16 0 0 Z " fill="#F0AB2B" transform="translate(159,292)"/>
<path d="M0 0 C24.83155686 -1.48989341 54.59976897 12.666319 73.6875 27.8125 C74.450625 28.534375 75.21375 29.25625 76 30 C76 30.66 76 31.32 76 32 C76.5775 32.2475 77.155 32.495 77.75 32.75 C80.32939979 34.18299988 82.06121592 35.78424676 84 38 C84 38.66 84 39.32 84 40 C85.485 40.495 85.485 40.495 87 41 C88.53856749 43.03651472 89.90602171 45.0279353 91.25 47.1875 C91.64405029 47.81462891 92.03810059 48.44175781 92.4440918 49.08789062 C108.18223349 74.55385115 108.18223349 74.55385115 106.59375 85.90234375 C106.29984375 86.94068359 106.29984375 86.94068359 106 88 C100.51324804 89.86783046 95.77807024 90.2358396 90 90 C90.33 91.19625 90.66 92.3925 91 93.625 C91.89265823 97.15791497 92.18296045 100.34079109 92 104 C91.34 103.67 90.68 103.34 90 103 C88.38962091 97.81100071 87.77458325 93.41000193 88 88 C86.28103516 88.05994141 86.28103516 88.05994141 84.52734375 88.12109375 C66.01330926 88.08449671 46.50911604 76.95960515 33 65 C31.63859885 63.35618053 30.29998507 61.69280665 29 60 C28.360625 59.443125 27.72125 58.88625 27.0625 58.3125 C17.64983438 47.75890521 15.32254531 32.56484854 16 19 C16.40920871 16.36327258 16.92396825 13.808351 17.5625 11.21875 C18.16121502 8.55932162 18.16121502 8.55932162 18 4 C12.06 3.01 6.12 2.02 0 1 C0 0.67 0 0.34 0 0 Z " fill="#F0AB2B" transform="translate(258,317)"/>
<path d="M0 0 C29.7 0 59.4 0 90 0 C90 7.92 90 15.84 90 24 C76.98046875 24.12890625 76.98046875 24.12890625 71.26171875 23.50390625 C63.45377321 22.7492075 55.63100458 22.85089147 47.79443359 22.86962891 C45.13763689 22.87497457 42.48101024 22.86966423 39.82421875 22.86328125 C31.61305426 22.86040357 23.48564126 22.93917958 15.30810547 23.78564453 C10.21558309 24.11562495 5.10320206 24 0 24 C0 16.08 0 8.16 0 0 Z " fill="#DE812F" transform="translate(159,292)"/>
<path d="M0 0 C0.8910997 -0.0127597 1.7821994 -0.02551941 2.70030212 -0.03866577 C4.14718163 -0.04200424 4.14718163 -0.04200424 5.62329102 -0.04541016 C6.61216812 -0.05206696 7.60104523 -0.05872375 8.61988831 -0.06558228 C10.7138584 -0.07571937 12.80786086 -0.08039897 14.90185547 -0.08007812 C18.11097269 -0.08445055 21.31871429 -0.12075738 24.52758789 -0.15869141 C26.55948421 -0.1645594 28.59138709 -0.16852891 30.62329102 -0.17041016 C32.06713417 -0.19196671 32.06713417 -0.19196671 33.54014587 -0.21395874 C34.43439774 -0.20780548 35.3286496 -0.20165222 36.25 -0.1953125 C37.03672592 -0.19816254 37.82345184 -0.20101257 38.63401794 -0.20394897 C40.68969727 0.29052734 40.68969727 0.29052734 42.43983459 2.13339233 C44.15090485 5.08652442 44.17965475 6.9308189 43.68969727 10.29052734 C42.36969727 11.61052734 41.04969727 12.93052734 39.68969727 14.29052734 C34.73969727 14.29052734 29.78969727 14.29052734 24.68969727 14.29052734 C24.68969727 27.49052734 24.68969727 40.69052734 24.68969727 54.29052734 C21.58049117 55.84513039 18.05886699 56.01773427 14.68969727 55.29052734 C11.94337092 52.73010231 11.68466596 51.23364289 11.34912109 47.43994141 C11.34959379 45.89526361 11.36640846 44.35053261 11.39672852 42.80615234 C11.40097336 41.99055847 11.4052182 41.1749646 11.40959167 40.33465576 C11.42635011 37.7362735 11.46399629 35.13867415 11.50219727 32.54052734 C11.51724781 30.77621565 11.53093557 29.01189177 11.54321289 27.24755859 C11.57624426 22.9282477 11.62800641 18.60952015 11.68969727 14.29052734 C10.0094043 14.37753906 10.0094043 14.37753906 8.29516602 14.46630859 C6.82255139 14.51320715 5.34989175 14.55870722 3.87719727 14.60302734 C2.77021484 14.66586914 2.77021484 14.66586914 1.64086914 14.72998047 C-0.51733398 14.77880859 -0.51733398 14.77880859 -4.31030273 14.29052734 C-7.09293402 11.14260855 -7.3378697 9.83267769 -7.12280273 5.60302734 C-5.94943154 0.81928326 -4.66792667 0.04527932 0 0 Z " fill="#AA7319" transform="translate(184.310302734375,432.70947265625)"/>
<path d="M0 0 C0.33 0 0.66 0 1 0 C1.72847271 3.27503839 2.12773474 6.31234864 2.14044189 9.66531372 C2.14615204 10.57343307 2.15186218 11.48155243 2.15774536 12.41719055 C2.15886322 13.40116318 2.15998108 14.3851358 2.16113281 15.39892578 C2.16609772 16.44512589 2.17106262 17.49132599 2.17617798 18.56922913 C2.19077332 22.02793031 2.1975981 25.48658559 2.203125 28.9453125 C2.20887965 31.35562135 2.21463734 33.76593018 2.22039795 36.17623901 C2.23090119 41.23175265 2.23674795 46.28725042 2.24023438 51.34277344 C2.24571043 57.80197826 2.26972255 64.26097137 2.29820633 70.72010994 C2.3168877 75.70114746 2.32204129 80.68213461 2.32357025 85.66320419 C2.32658608 88.04329457 2.33457821 90.42338428 2.34775543 92.80344009 C2.36492688 96.1440231 2.36290823 99.48409706 2.35644531 102.82470703 C2.3656601 103.79653427 2.37487488 104.76836151 2.3843689 105.76963806 C2.34342083 112.57112702 1.06874838 118.52954495 -1 125 C-1.33 125 -1.66 125 -2 125 C-1.89289612 108.8496323 -1.78015939 92.69931537 -1.66066074 76.54903507 C-1.60531151 69.05069115 -1.55182679 61.55234247 -1.50268555 54.05395508 C-1.45986447 47.52066512 -1.41359182 40.98741045 -1.36312145 34.45417494 C-1.3365037 30.99280267 -1.31165031 27.53143748 -1.29092598 24.07002449 C-1.26776301 20.21208148 -1.23689622 16.35422171 -1.20532227 12.49633789 C-1.1995668 11.34044159 -1.19381134 10.18454529 -1.18788147 8.99362183 C-1.17809265 7.94889206 -1.16830383 6.90416229 -1.15821838 5.82777405 C-1.15176583 4.9142772 -1.14531328 4.00078035 -1.1386652 3.05960178 C-1 1 -1 1 0 0 Z " fill="#F1C79D" transform="translate(320,113)"/>
<path d="M0 0 C1.0049994 3.12666479 0.85756596 4.87305133 0 8 C-0.09048543 9.76106255 -0.12788545 11.52518923 -0.12939453 13.28857422 C-0.13249634 14.35719696 -0.13559814 15.4258197 -0.13879395 16.52682495 C-0.13682007 17.69101959 -0.13484619 18.85521423 -0.1328125 20.0546875 C-0.13422241 21.27970978 -0.13563232 22.50473206 -0.13708496 23.76687622 C-0.13886587 27.10804675 -0.13565832 30.44912428 -0.12897491 33.7902832 C-0.12500062 35.87467447 -0.12248652 37.95906318 -0.12030029 40.04345703 C-0.09763618 58.87355471 0.01602964 77.7024575 0.31939697 96.53033447 C0.35609721 98.82045357 0.39012874 101.11061719 0.42132568 103.40081787 C0.58696643 115.0807525 0.84366532 126.48603435 3 138 C3.99 138.33 4.98 138.66 6 139 C7.4477922 141.89558441 8 143.74188938 8 147 C8.66 147 9.32 147 10 147 C10.33 148.98 10.66 150.96 11 153 C1.02815588 143.80183344 -2.71693324 128.62932684 -3.36642456 115.4473877 C-3.55930441 108.97024381 -3.53064756 102.49483229 -3.49609375 96.015625 C-3.49624908 93.62343298 -3.49774373 91.23124072 -3.50050354 88.83905029 C-3.50187983 83.85336018 -3.48945533 78.86796046 -3.46655273 73.88232422 C-3.43810894 67.51876416 -3.44093286 61.15568344 -3.45364285 54.79208755 C-3.46062265 49.86246706 -3.45278545 44.93295583 -3.44038582 40.0033493 C-3.43589807 37.6575945 -3.43551087 35.31182787 -3.43945122 32.96607208 C-3.4604064 9.52989447 -3.4604064 9.52989447 0 0 Z " fill="#F2CDA6" transform="translate(89,106)"/>
<path d="M0 0 C1.94139099 0.00052039 3.8827825 -0.00000422 5.82417297 -0.00151062 C9.86406471 -0.00142162 13.90375388 0.00886063 17.94360352 0.02709961 C23.08735171 0.04982979 28.2308062 0.05031452 33.37459087 0.04358196 C37.37348481 0.04022067 41.37231337 0.04691178 45.37119484 0.0567112 C47.26675892 0.06052286 49.16233033 0.06172844 51.05789757 0.06012535 C70.05510907 0.05743689 86.45534999 2.20225199 103.42578125 11.36328125 C102.10578125 12.02328125 100.78578125 12.68328125 99.42578125 13.36328125 C99.09578125 12.37328125 98.76578125 11.38328125 98.42578125 10.36328125 C97.10578125 10.36328125 95.78578125 10.36328125 94.42578125 10.36328125 C94.42578125 11.02328125 94.42578125 11.68328125 94.42578125 12.36328125 C92.77578125 12.36328125 91.12578125 12.36328125 89.42578125 12.36328125 C89.34328125 11.57953125 89.26078125 10.79578125 89.17578125 9.98828125 C88.69818199 7.32409346 88.69818199 7.32409346 86.86328125 6.17578125 C79.70838635 3.79081628 73.47363534 3.07906253 65.97070312 3.13623047 C64.95516357 3.13593842 63.93962402 3.13564636 62.89331055 3.13534546 C59.56029505 3.13673091 56.22750736 3.15225515 52.89453125 3.16796875 C50.57426068 3.17170167 48.25398853 3.17454732 45.93371582 3.17654419 C39.84443769 3.18415867 33.75525586 3.2037884 27.66601562 3.22595215 C21.44532575 3.24645769 15.22462022 3.25555596 9.00390625 3.265625 C-3.18884426 3.28703635 -15.38152348 3.32114588 -27.57421875 3.36328125 C-27.57421875 4.02328125 -27.57421875 4.68328125 -27.57421875 5.36328125 C-31.53421875 5.36328125 -35.49421875 5.36328125 -39.57421875 5.36328125 C-28.97968569 -1.69974079 -12.22045245 -0.06569871 0 0 Z " fill="#EED2AC" transform="translate(179.57421875,49.63671875)"/>
<path d="M0 0 C2.14840474 3.22260711 2.60723087 5.28393576 3.25 9.0625 C3.44078125 10.12597656 3.6315625 11.18945312 3.828125 12.28515625 C3.88484375 13.18105469 3.9415625 14.07695312 4 15 C1.16854794 17.83145206 -0.91791976 17.96227589 -4.87033081 18.10006714 C-5.98030426 18.08879791 -7.09027771 18.07752869 -8.23388672 18.06591797 C-9.49554657 18.05615936 -10.75720642 18.04640076 -12.05709839 18.03634644 C-12.72863827 18.02898342 -13.40017815 18.02162041 -14.09206772 18.01403427 C-16.20274883 17.99194617 -18.31333926 17.97790922 -20.42410278 17.96633911 C-26.42397427 17.93280935 -32.42369581 17.89120031 -38.42333984 17.82861328 C-42.09783675 17.79085753 -45.77218004 17.76790989 -49.44684219 17.75430679 C-50.84305226 17.74627913 -52.23924235 17.73270795 -53.63534164 17.71337509 C-55.59252919 17.68674661 -57.54996279 17.68062536 -59.50732422 17.67529297 C-60.61888885 17.66561493 -61.73045349 17.65593689 -62.8757019 17.64596558 C-66.45047908 18.0510467 -68.82049262 19.38012591 -72 21 C-72.99 20.67 -73.98 20.34 -75 20 C-74.34 20 -73.68 20 -73 20 C-73 19.01 -73 18.02 -73 17 C-69.5719445 14.91423674 -66.92725623 14.76121125 -62.94970703 14.78881836 C-61.72808868 14.79219711 -60.50647034 14.79557587 -59.24783325 14.79905701 C-57.9311264 14.81251663 -56.61441956 14.82597626 -55.2578125 14.83984375 C-53.8878522 14.84611937 -52.51788679 14.85135773 -51.1479187 14.85560608 C-47.54327041 14.8688955 -43.93879222 14.89331344 -40.33422852 14.92095947 C-34.57246856 14.96409786 -28.81066551 14.99389966 -23.04879379 15.0170002 C-21.04251883 15.02716786 -19.03628441 15.04451897 -17.03005981 15.06199646 C-15.80213715 15.06852737 -14.57421448 15.07505829 -13.30908203 15.08178711 C-12.23304718 15.09004013 -11.15701233 15.09829315 -10.04837036 15.10679626 C-6.48828428 15.04808072 -6.48828428 15.04808072 -1 14 C-0.67 9.38 -0.34 4.76 0 0 Z " fill="#E0CDB0" transform="translate(365,486)"/>
<path d="M0 0 C0.33 0 0.66 0 1 0 C1.33 4.62 1.66 9.24 2 14 C24.44 14 46.88 14 70 14 C70.495 15.485 70.495 15.485 71 17 C73.64 17 76.28 17 79 17 C79 17.66 79 18.32 79 19 C79.64066406 19.10957031 80.28132813 19.21914063 80.94140625 19.33203125 C86.3561691 20.32460328 91.03322639 21.62458653 96 24 C96 24.66 96 25.32 96 26 C91.87357694 25.65066233 88.64578283 24.96984498 84.90039062 23.18310547 C69.1504494 15.76561867 53.72386615 15.9136912 36.71795654 16.10369873 C30.82834407 16.16026261 24.93830419 16.14035946 19.04850769 16.13042831 C17.01142483 16.13276358 14.97506161 16.15158113 12.93811035 16.17385864 C11.70492065 16.17981049 10.47173096 16.18576233 9.20117188 16.19189453 C8.12089722 16.2027005 7.04062256 16.21350647 5.9276123 16.22463989 C2.90492861 15.99270504 0.73202792 15.27780127 -2 14 C-2.21192221 8.80790596 -1.5912689 4.873261 0 0 Z " fill="#E0CBAB" transform="translate(42,488)"/>
<path d="M0 0 C3.34977161 2.68981661 4.5686645 6.29505136 6.0625 10.1875 C6.32490479 10.86151855 6.58730957 11.53553711 6.85766602 12.22998047 C11.81814977 25.18192073 11.81814977 25.18192073 10 31 C4.51324804 32.86783046 -0.22192976 33.2358396 -6 33 C-5.67 34.19625 -5.34 35.3925 -5 36.625 C-4.10734177 40.15791497 -3.81703955 43.34079109 -4 47 C-4.66 46.67 -5.32 46.34 -6 46 C-7.74451341 40.47570753 -8.20612487 35.77149626 -8 30 C-4.04 29.67 -0.08 29.34 4 29 C4 22.4 4 15.8 4 9 C3.01 8.67 2.02 8.34 1 8 C0.67 5.36 0.34 2.72 0 0 Z " fill="#EDBA5A" transform="translate(354,374)"/>
<path d="M0 0 C0.33 0 0.66 0 1 0 C1.33 3.63 1.66 7.26 2 11 C6.95 11 11.9 11 17 11 C18.4783226 13.95664519 18.06032783 16.74229737 18 20 C17.34 20 16.68 20 16 20 C16 23.3 16 26.6 16 30 C15.34 30 14.68 30 14 30 C14 32.64 14 35.28 14 38 C13.01 38 12.02 38 11 38 C11.04125 38.94875 11.0825 39.8975 11.125 40.875 C11 44 11 44 9 46 C9.50553058 38.96690016 10.70589895 32.37495799 12.5 25.5625 C12.72558594 24.67884766 12.95117188 23.79519531 13.18359375 22.88476562 C14.04053935 19.55079088 14.9110534 16.26683979 16 13 C15.03900391 13.03480469 15.03900391 13.03480469 14.05859375 13.0703125 C8.59012904 13.18440863 4.16901723 12.79791904 -1 11 C-1.125 3.375 -1.125 3.375 0 0 Z " fill="#D8B06F" transform="translate(45,394)"/>
<path d="M0 0 C4.50847691 -0.09592504 8.80498008 0.16690601 13.27856445 0.703125 C25.11073553 1.9938687 36.98680079 2.27083078 48.875 2.5625 C50.54558044 2.60583058 52.21615345 2.64944868 53.88671875 2.69335938 C57.92440145 2.79887676 61.96216371 2.90054118 66 3 C66.495 3.99 66.495 3.99 67 5 C18.92810311 5.48116312 18.92810311 5.48116312 0 1 C0 0.67 0 0.34 0 0 Z " fill="#DDBB84" transform="translate(155,518)"/>
<path d="M0 0 C20.10241049 -1.20614463 41.72156617 8.59095187 59 18 C58.01 18.495 58.01 18.495 57 19 C56.38125 18.67 55.7625 18.34 55.125 18 C52.53373721 16.78058222 51.64299594 17.06216273 49 18 C48.01 18.33 47.02 18.66 46 19 C46 18.34 46 17.68 46 17 C45.34 16.67 44.68 16.34 44 16 C44.33 15.67 44.66 15.34 45 15 C43.68 14.67 42.36 14.34 41 14 C40.505 12.02 40.505 12.02 40 10 C36.7 10 33.4 10 30 10 C30 9.01 30 8.02 30 7 C28.93072266 6.81824219 28.93072266 6.81824219 27.83984375 6.6328125 C23.68286694 5.90548143 19.61800916 5.17978448 15.5625 4 C10.4479673 2.5643417 5.2450338 1.80957829 0 1 C0 0.67 0 0.34 0 0 Z " fill="#F4D591" transform="translate(258,317)"/>
<path d="M0 0 C0.66 0.33 1.32 0.66 2 1 C1.38125 1.0825 0.7625 1.165 0.125 1.25 C-2.16352629 1.79948083 -2.16352629 1.79948083 -3.125 3.9375 C-3.558125 4.9584375 -3.558125 4.9584375 -4 6 C-6 8 -6 8 -8.5 8.3125 C-9.7375 8.6528125 -9.7375 8.6528125 -11 9 C-12.37466625 11.47636012 -12.37466625 11.47636012 -13 14 C-13.99 13.67 -14.98 13.34 -16 13 C-17.98736771 13.53035828 -17.98736771 13.53035828 -20 14.4375 C-22.67416223 15.56692836 -24.02545489 16 -27 16 C-19.22566863 9.25803242 -9.82026991 3.2734233 0 0 Z " fill="#EFC46E" transform="translate(105,328)"/>
<path d="M0 0 C2.97 0 5.94 0 9 0 C3.13119563 5.35847356 -6.19722037 6.69930228 -13.6875 8.6875 C-14.50283203 8.91244141 -15.31816406 9.13738281 -16.15820312 9.36914062 C-20.54917565 10.53699023 -24.4120078 11.27424186 -29 11 C-29 10.34 -29 9.68 -29 9 C-21.00044527 6.97785501 -13.24430867 5.47912816 -5 5 C-5 4.01 -5 3.02 -5 2 C-3.35 2 -1.7 2 0 2 C0 1.34 0 0.68 0 0 Z " fill="#E1C28C" transform="translate(281,507)"/>
<path d="M0 0 C-0.99 0.33 -1.98 0.66 -3 1 C-3 1.66 -3 2.32 -3 3 C-7.40914783 4.10228696 -11.48382401 4.07654536 -16 4 C-16 4.99 -16 5.98 -16 7 C-16.61488281 6.96519531 -17.22976562 6.93039062 -17.86328125 6.89453125 C-18.67152344 6.86746094 -19.47976562 6.84039062 -20.3125 6.8125 C-21.11300781 6.77769531 -21.91351563 6.74289062 -22.73828125 6.70703125 C-25.5366718 7.06951707 -26.10794204 8.00113232 -28 10 C-29.90234375 10.546875 -29.90234375 10.546875 -31.9375 10.75 C-32.60652344 10.82734375 -33.27554688 10.9046875 -33.96484375 10.984375 C-36.14364205 11.00110282 -37.90404215 10.56067077 -40 10 C-10.04622496 -0.40061633 -10.04622496 -0.40061633 0 0 Z " fill="#F3D592" transform="translate(147,317)"/>
<path d="M0 0 C11.45234608 -1.16860674 23.20407418 4.58342925 33 10 C31.02 10.99 31.02 10.99 29 12 C28.67 11.01 28.34 10.02 28 9 C26.68 9 25.36 9 24 9 C24 9.66 24 10.32 24 11 C22.35 11 20.7 11 19 11 C18.9175 10.21625 18.835 9.4325 18.75 8.625 C18.29088621 5.94543403 18.29088621 5.94543403 16.40625 4.9375 C13.24127078 3.70439121 10.07698321 3.0527188 6.75 2.375 C5.48671875 2.11460938 4.2234375 1.85421875 2.921875 1.5859375 C1.95765625 1.39257812 0.9934375 1.19921875 0 1 C0 0.67 0 0.34 0 0 Z " fill="#F7C89D" transform="translate(250,51)"/>
<path d="M0 0 C0.66 0.33 1.32 0.66 2 1 C1.2575 1.66 0.515 2.32 -0.25 3 C-2.44405589 5.16332682 -3.67863073 7.19543048 -4.9375 10 C-6.91253579 14.26191935 -9.30005045 16.14795555 -13 19 C-13.7425 19.928125 -14.485 20.85625 -15.25 21.8125 C-15.8275 22.534375 -16.405 23.25625 -17 24 C-17.66 24 -18.32 24 -19 24 C-17.50328459 19.50985376 -15.16631659 15.52151236 -12 12 C-11.34 12 -10.68 12 -10 12 C-9.75507812 11.42765625 -9.51015625 10.8553125 -9.2578125 10.265625 C-7.78889901 7.61975598 -6.04651756 5.85146861 -3.875 3.75 C-3.15054688 3.04359375 -2.42609375 2.3371875 -1.6796875 1.609375 C-1.12539062 1.07828125 -0.57109375 0.5471875 0 0 Z " fill="#F2CD84" transform="translate(76,345)"/>
<path d="M0 0 C1.15754586 2.82955655 1.0405176 3.89421223 -0.07421875 6.8046875 C-4.09714425 14.46090892 -7.65437046 21.00690544 -14 27 C-14 26.01 -14 25.02 -14 24 C-13.34 24 -12.68 24 -12 24 C-11.67 21.36 -11.34 18.72 -11 16 C-10.34 16 -9.68 16 -9 16 C-9 14.68 -9 13.36 -9 12 C-7.68 12 -6.36 12 -5 12 C-4.67 10.02 -4.34 8.04 -4 6 C-3.34 6 -2.68 6 -2 6 C-2 5.01 -2 4.02 -2 3 C-1.34 3 -0.68 3 0 3 C0 2.01 0 1.02 0 0 Z " fill="#F3B480" transform="translate(317,238)"/>
<path d="M0 0 C1.85772162 0.08984301 3.71247985 0.24611861 5.5625 0.4375 C7.08037109 0.59025391 7.08037109 0.59025391 8.62890625 0.74609375 C9.80259766 0.87177734 9.80259766 0.87177734 11 1 C11 1.33 11 1.66 11 2 C1.25134921 3.94048973 -8.00465638 5.51998897 -18 5 C-17.67 4.01 -17.34 3.02 -17 2 C-15.85660156 1.93941406 -14.71320313 1.87882813 -13.53515625 1.81640625 C-12.04425695 1.73201572 -10.55337225 1.64736698 -9.0625 1.5625 C-8.30775391 1.52318359 -7.55300781 1.48386719 -6.77539062 1.44335938 C-3.08055813 1.55961976 -3.08055813 1.55961976 0 0 Z " fill="#DBB577" transform="translate(241,517)"/>
<path d="M0 0 C0.89871826 0.02502594 1.79743652 0.05005188 2.72338867 0.07583618 C5.56601567 0.15735906 8.40787573 0.25420637 11.25 0.3515625 C13.18877176 0.40987142 15.12757408 0.46717309 17.06640625 0.5234375 C21.79470402 0.66283599 26.52237652 0.81597056 31.25 0.9765625 C31.25 1.3065625 31.25 1.6365625 31.25 1.9765625 C18.05 1.9765625 4.85 1.9765625 -8.75 1.9765625 C-8.75 2.6365625 -8.75 3.2965625 -8.75 3.9765625 C-12.71 3.9765625 -16.67 3.9765625 -20.75 3.9765625 C-14.29290689 -0.32816624 -7.48524686 -0.28169242 0 0 Z " fill="#F3AC72" transform="translate(160.75,51.0234375)"/>
<path d="M0 0 C0.66 0 1.32 0 2 0 C2 0.66 2 1.32 2 2 C4.64 2 7.28 2 10 2 C10 2.66 10 3.32 10 4 C10.96099609 4.16435547 10.96099609 4.16435547 11.94140625 4.33203125 C17.3561691 5.32460328 22.03322639 6.62458653 27 9 C27 9.66 27 10.32 27 11 C20.56176532 10.4374358 15.0440213 8.30475962 9.0625 5.9375 C8.09248047 5.56044922 7.12246094 5.18339844 6.12304688 4.79492188 C3.74602857 3.86987534 1.37188683 2.93810818 -1 2 C-0.67 1.34 -0.34 0.68 0 0 Z " fill="#DAB87D" transform="translate(111,503)"/>
<path d="M0 0 C1.20079193 0.00022659 1.20079193 0.00022659 2.42584229 0.00045776 C3.28014832 0.01078033 4.13445435 0.02110291 5.01464844 0.03173828 C5.89683044 0.03456818 6.77901245 0.03739807 7.68792725 0.04031372 C10.50009842 0.05149117 13.31194884 0.07659127 16.12402344 0.10205078 C18.032873 0.11208373 19.94172756 0.12120903 21.85058594 0.12939453 C26.52518833 0.15142254 31.19955153 0.18593567 35.87402344 0.22705078 C35.87402344 0.55705078 35.87402344 0.88705078 35.87402344 1.22705078 C23.66402344 1.22705078 11.45402344 1.22705078 -1.12597656 1.22705078 C-1.45597656 2.21705078 -1.78597656 3.20705078 -2.12597656 4.22705078 C-4.50097656 5.47705078 -4.50097656 5.47705078 -7.12597656 6.22705078 C-8.11597656 5.89705078 -9.10597656 5.56705078 -10.12597656 5.22705078 C-9.46597656 5.22705078 -8.80597656 5.22705078 -8.12597656 5.22705078 C-8.12597656 4.23705078 -8.12597656 3.24705078 -8.12597656 2.22705078 C-5.28240971 0.6179743 -3.26135366 -0.02064148 0 0 Z " fill="#C48A2B" transform="translate(300.1259765625,500.77294921875)"/>
<path d="M0 0 C1.88521438 2.82782157 2.5177814 4.48529632 3.2890625 7.7109375 C3.61777344 9.08378906 3.61777344 9.08378906 3.953125 10.484375 C4.17484375 11.43828125 4.3965625 12.3921875 4.625 13.375 C4.85445313 14.32117188 5.08390625 15.26734375 5.3203125 16.2421875 C6.35022095 20.60703758 7.13167772 24.49380752 7 29 C3.6880328 26.79202186 3.58261141 26.56034526 2.83203125 22.9296875 C2.57583008 21.70765625 2.57583008 21.70765625 2.31445312 20.4609375 C2.14880859 19.60757812 1.98316406 18.75421875 1.8125 17.875 C1.63525391 17.04484375 1.45800781 16.2146875 1.27539062 15.359375 C0.21617871 10.14101821 -0.17820487 5.32156602 0 0 Z " fill="#DDBB82" transform="translate(350,421)"/>
<path d="M0 0 C0.33 0 0.66 0 1 0 C1.33 3.63 1.66 7.26 2 11 C6.95 11 11.9 11 17 11 C17 13.31 17 15.62 17 18 C16.34 18.33 15.68 18.66 15 19 C15.33 17.02 15.66 15.04 16 13 C15.03900391 13.03480469 15.03900391 13.03480469 14.05859375 13.0703125 C8.59012904 13.18440863 4.16901723 12.79791904 -1 11 C-1.125 3.375 -1.125 3.375 0 0 Z " fill="#F3DFAF" transform="translate(45,394)"/>
<path d="M0 0 C5.28 0 10.56 0 16 0 C16 0.33 16 0.66 16 1 C11.32798795 2.20568053 6.78503708 2.09382426 2 2 C2.33 3.19625 2.66 4.3925 3 5.625 C3.89265823 9.15791497 4.18296045 12.34079109 4 16 C3.34 15.67 2.68 15.34 2 15 C0.28156688 9.46282661 0 6.05251031 0 0 Z " fill="#E9CE9B" transform="translate(346,405)"/>
<path d="M0 0 C2.3047478 3.90353681 3.12330078 8.12962342 4.125 12.5 C4.30675781 13.25925781 4.48851562 14.01851563 4.67578125 14.80078125 C5.50987256 18.38172964 6 21.27373579 6 25 C5.34 25 4.68 25 4 25 C3.566875 23.39125 3.566875 23.39125 3.125 21.75 C2.23494157 18.22929671 2.23494157 18.22929671 0.9375 16.21875 C-0.41140719 13.02633632 -0.18880048 10.19522612 -0.125 6.75 C-0.10695313 5.48671875 -0.08890625 4.2234375 -0.0703125 2.921875 C-0.04710937 1.95765625 -0.02390625 0.9934375 0 0 Z " fill="#E2C08B" transform="translate(357,450)"/>
<path d="M0 0 C0.99 0.33 1.98 0.66 3 1 C3.33333333 2.33333333 3.66666667 3.66666667 4 5 C4.99 5.33 5.98 5.66 7 6 C7 6.66 7 7.32 7 8 C8.32 8.66 9.64 9.32 11 10 C11 10.99 11 11.98 11 13 C7.28954753 11.42219077 4.70093616 9.09296752 1.75 6.375 C0.85796875 5.55773437 -0.0340625 4.74046875 -0.953125 3.8984375 C-1.62859375 3.27195312 -2.3040625 2.64546875 -3 2 C-2.01 1.34 -1.02 0.68 0 0 Z " fill="#F5C59B" transform="translate(109,266)"/>
<path d="M0 0 C2.16801831 3.25202747 2.57570793 5.30704951 3.1875 9.125 C3.45626953 10.73761719 3.45626953 10.73761719 3.73046875 12.3828125 C3.81941406 13.24648438 3.90835937 14.11015625 4 15 C3 16 3 16 0.71484375 16.09765625 C-0.65994141 16.08025391 -0.65994141 16.08025391 -2.0625 16.0625 C-2.98160156 16.05347656 -3.90070313 16.04445313 -4.84765625 16.03515625 C-5.55792969 16.02355469 -6.26820313 16.01195312 -7 16 C-7 15.67 -7 15.34 -7 15 C-5.02 14.67 -3.04 14.34 -1 14 C-0.67 9.38 -0.34 4.76 0 0 Z " fill="#D8B275" transform="translate(365,486)"/>
<path d="M0 0 C2.97 0 5.94 0 9 0 C6.17433131 2.82566869 4.70992211 3.76551722 1.125 5.1875 C0.28195312 5.53167969 -0.56109375 5.87585938 -1.4296875 6.23046875 C-4.09209351 7.02757207 -6.2378985 7.14355008 -9 7 C-8.01 6.67 -7.02 6.34 -6 6 C-6 5.34 -6 4.68 -6 4 C-4.35 3.67 -2.7 3.34 -1 3 C-0.67 2.01 -0.34 1.02 0 0 Z " fill="#F6CFA8" transform="translate(270,284)"/>
<path d="M0 0 C2 2 2 2 2 5 C2.99 5.33 3.98 5.66 5 6 C6.4477922 8.89558441 7 10.74188938 7 14 C7.66 14 8.32 14 9 14 C9.33 15.98 9.66 17.96 10 20 C6.66990964 16.98844003 4.73727315 14.01469324 2.75 10 C1.96882813 8.453125 1.96882813 8.453125 1.171875 6.875 C0 4 0 4 0 0 Z " fill="#F6D4B0" transform="translate(90,239)"/>
<path d="M0 0 C0.33 0 0.66 0 1 0 C1.39051536 13.21243649 1.39051536 13.21243649 -1 19 C-1.99 19.66 -2.98 20.32 -4 21 C-3.54034292 13.69303751 -2.11670277 7.00242552 0 0 Z " fill="#E1C187" transform="translate(50,453)"/>
<path d="M0 0 C0.625 1.8125 0.625 1.8125 1 4 C0.01 5.485 0.01 5.485 -1 7 C-1.66 7 -2.32 7 -3 7 C-3.33 9.97 -3.66 12.94 -4 16 C-4.99 16.33 -5.98 16.66 -7 17 C-7.33 17.99 -7.66 18.98 -8 20 C-9 17 -9 17 -8.39501953 15.20654297 C-7.89397705 14.23418701 -7.89397705 14.23418701 -7.3828125 13.2421875 C-7.02316406 12.53449219 -6.66351563 11.82679687 -6.29296875 11.09765625 C-5.90753906 10.36417969 -5.52210937 9.63070312 -5.125 8.875 C-4.55845703 7.76318359 -4.55845703 7.76318359 -3.98046875 6.62890625 C-1.18268327 1.18268327 -1.18268327 1.18268327 0 0 Z " fill="#F6CCA7" transform="translate(99,85)"/>
<path d="M0 0 C0.66 0.33 1.32 0.66 2 1 C1.38125 1.0825 0.7625 1.165 0.125 1.25 C-2.16352629 1.79948083 -2.16352629 1.79948083 -3.125 3.9375 C-3.558125 4.9584375 -3.558125 4.9584375 -4 6 C-6 8 -6 8 -8.875 8.0625 C-10.421875 8.0315625 -10.421875 8.0315625 -12 8 C-14.26566343 8.43941523 -14.26566343 8.43941523 -16 9 C-13.34189385 5.83694895 -10.14902107 4.45854378 -6.4375 2.75 C-5.28121094 2.20859375 -4.12492187 1.6671875 -2.93359375 1.109375 C-1.96550781 0.74328125 -0.99742188 0.3771875 0 0 Z " fill="#F3D28D" transform="translate(105,328)"/>
<path d="M0 0 C5.88442739 4.16215596 9.75843083 9.56864391 13 16 C12.67 16.66 12.34 17.32 12 18 C10 16.1875 10 16.1875 8 14 C8 13.01 8 12.02 8 11 C7.01 10.67 6.02 10.34 5 10 C3.4375 7.1875 3.4375 7.1875 2 4 C1.608125 3.21625 1.21625 2.4325 0.8125 1.625 C0.544375 1.08875 0.27625 0.5525 0 0 Z " fill="#F6DABA" transform="translate(300,75)"/>
<path d="M0 0 C0.33 0 0.66 0 1 0 C1.33 4.95 1.66 9.9 2 15 C0.68 14.67 -0.64 14.34 -2 14 C-2.21192221 8.80790596 -1.5912689 4.873261 0 0 Z " fill="#DDC18B" transform="translate(42,488)"/>
<path d="M0 0 C4.3573226 1.47130373 7.71934134 3.83080615 11.3125 6.625 C11.86228516 7.04523438 12.41207031 7.46546875 12.97851562 7.8984375 C14.32292168 8.92720039 15.66201413 9.9629009 17 11 C16.67 11.66 16.34 12.32 16 13 C15.13375 12.21625 14.2675 11.4325 13.375 10.625 C10.43599886 8.13976388 7.65816128 7.19102925 4 6 C3.67 5.01 3.34 4.02 3 3 C1.50014391 1.33289654 1.50014391 1.33289654 0 0 Z " fill="#F7DEA4" transform="translate(317,336)"/>
<path d="M0 0 C0 0.66 0 1.32 0 2 C-4.62 2.66 -9.24 3.32 -14 4 C-14 3.34 -14 2.68 -14 2 C-12.04200486 1.66468585 -10.08359226 1.33180857 -8.125 1 C-6.48917969 0.7215625 -6.48917969 0.7215625 -4.8203125 0.4375 C-2 0 -2 0 0 0 Z M-17 4 C-16.01 4.33 -15.02 4.66 -14 5 C-14.33 5.99 -14.66 6.98 -15 8 C-15.99 8 -16.98 8 -18 8 C-18.33 7.01 -18.66 6.02 -19 5 C-18.34 4.67 -17.68 4.34 -17 4 Z " fill="#E7AB41" transform="translate(158,316)"/>
<path d="M0 0 C3.36179774 1.44077046 5.59156268 3.24750021 8 6 C8 6.66 8 7.32 8 8 C8.99 8.33 9.98 8.66 11 9 C12.1875 11.5625 12.1875 11.5625 13 14 C7.66991406 10.97481609 5.04585148 8.297133 2 3 C1.34 2.01 0.68 1.02 0 0 Z " fill="#F3D79F" transform="translate(334,349)"/>
<path d="M0 0 C0.35892399 3.23031588 0.33374337 4.5673697 -1.6875 7.1875 C-4.0586896 9.04599996 -6.15400288 10.05133429 -9 11 C-8.00561175 7.61907996 -4.22088617 0 0 0 Z " fill="#F6CCA6" transform="translate(109,74)"/>
<path d="M0 0 C2.51954654 2.25890379 3.87332733 4.417897 5.25 7.5 C5.60578125 8.2734375 5.9615625 9.046875 6.328125 9.84375 C7 12 7 12 6 15 C4 12 4 12 4 9 C3.01 8.67 2.02 8.34 1 8 C0.67 5.36 0.34 2.72 0 0 Z " fill="#F1D38E" transform="translate(354,374)"/>
<path d="M0 0 C-1.32 0.33 -2.64 0.66 -4 1 C-4 1.99 -4 2.98 -4 4 C-7.96 4 -11.92 4 -16 4 C-11.17353323 0.78235549 -5.80178176 -0.36261136 0 0 Z " fill="#F7D2AF" transform="translate(156,51)"/>
<path d="M0 0 C-0.99 0.33 -1.98 0.66 -3 1 C-3 1.66 -3 2.32 -3 3 C-7.61073111 4.29676812 -11.33840089 3.71109139 -16 3 C-16 2.67 -16 2.34 -16 2 C-10.61972975 0.80911014 -5.54708616 -0.2919519 0 0 Z " fill="#F4D697" transform="translate(147,317)"/>
<path d="M0 0 C2.97 0 5.94 0 9 0 C5.92307254 2.6815279 3.80265337 3.42087807 -0.25 3.6875 C-1.14203125 3.75324219 -2.0340625 3.81898438 -2.953125 3.88671875 C-3.62859375 3.92410156 -4.3040625 3.96148437 -5 4 C-5 3.34 -5 2.68 -5 2 C-3.35 2 -1.7 2 0 2 C0 1.34 0 0.68 0 0 Z " fill="#D2A964" transform="translate(281,507)"/>
<path d="M0 0 C1.70401547 2.60614131 2.00613718 3.89975932 1.8125 7.0625 C0.96785467 10.11621772 0.26171226 10.94556056 -2 13 C-1.85851011 11.3954444 -1.71164314 9.79136233 -1.5625 8.1875 C-1.48128906 7.29417969 -1.40007813 6.40085937 -1.31640625 5.48046875 C-1 3 -1 3 0 0 Z " fill="#E2C18F" transform="translate(45,474)"/>
<path d="M0 0 C2.33294775 -0.04241723 4.66702567 -0.04092937 7 0 C8 1 8 1 8.0625 3.5625 C8.041875 4.366875 8.02125 5.17125 8 6 C6.35 5.67 4.7 5.34 3 5 C3 3.68 3 2.36 3 1 C2.01 0.67 1.02 0.34 0 0 Z " fill="#CE8C26" transform="translate(269,320)"/>
<path d="M0 0 C0 0.66 0 1.32 0 2 C-0.66 2 -1.32 2 -2 2 C-2.33 2.99 -2.66 3.98 -3 5 C-5.06640625 5.73046875 -5.06640625 5.73046875 -7.5625 6.1875 C-8.38878906 6.34605469 -9.21507813 6.50460938 -10.06640625 6.66796875 C-11.02353516 6.83232422 -11.02353516 6.83232422 -12 7 C-8.96533294 3.76116573 -4.61110165 0 0 0 Z " fill="#F7CFAA" transform="translate(132,58)"/>
<path d="M0 0 C3.63475376 -0.20193076 5.92116745 0.01365642 9 2 C10.37086915 3.29470975 11.71340837 4.62150897 13 6 C8.14036821 5.39254603 4.2594482 3.27241033 0 1 C0 0.67 0 0.34 0 0 Z " fill="#F8D3AF" transform="translate(127,283)"/>
<path d="M0 0 C1.06528748 2.73019786 1.07998186 3.79298812 0.00390625 6.578125 C-0.47175781 7.45984375 -0.94742187 8.3415625 -1.4375 9.25 C-1.91058594 10.14203125 -2.38367188 11.0340625 -2.87109375 11.953125 C-3.24363281 12.62859375 -3.61617188 13.3040625 -4 14 C-5.43088528 11.13822943 -4.59991697 9.06624227 -4 6 C-3.34 6 -2.68 6 -2 6 C-2 5.01 -2 4.02 -2 3 C-1.34 3 -0.68 3 0 3 C0 2.01 0 1.02 0 0 Z " fill="#F7D7B6" transform="translate(317,238)"/>
<path d="M0 0 C1.15006091 3.37299744 0.85199953 5.34853215 -0.3125 8.6875 C-0.57675781 9.47511719 -0.84101562 10.26273437 -1.11328125 11.07421875 C-2 13 -2 13 -4 14 C-3.46148032 8.72250715 -2.22656164 4.74354436 0 0 Z " fill="#F4DCA5" transform="translate(50,380)"/>
<path d="M0 0 C1.76462683 3.08809695 2 4.23312136 2 8 C1.01 8.495 1.01 8.495 0 9 C-0.66 9.99 -1.32 10.98 -2 12 C-1.85831863 10.56208484 -1.71148957 9.1246763 -1.5625 7.6875 C-1.48128906 6.88699219 -1.40007813 6.08648437 -1.31640625 5.26171875 C-1 3 -1 3 0 0 Z " fill="#E4C391" transform="translate(53,440)"/>
<path d="M0 0 C1 2 1 2 0.3125 5.5 C-1 9 -1 9 -3.125 10.4375 C-3.74375 10.623125 -4.3625 10.80875 -5 11 C-4.46884894 6.48521602 -2.63379708 3.65333143 0 0 Z " fill="#F1D698" transform="translate(56,369)"/>
<path d="M0 0 C0.66 0.33 1.32 0.66 2 1 C-0.20841794 4.37074318 -2.39325122 6.19662561 -6 8 C-6.99 8 -7.98 8 -9 8 C-6.03 5.36 -3.06 2.72 0 0 Z " fill="#F7DEC1" transform="translate(118,65)"/>
<path d="M0 0 C3.5 0.25 3.5 0.25 5.5 2.25 C1.51803543 3.30404945 -1.48195309 3.09098656 -5.5 2.25 C-3.5 0.25 -3.5 0.25 0 0 Z " fill="#E9AA3C" transform="translate(125.5,322.75)"/>
<path d="M0 0 C1.7290774 -0.02725341 3.45828176 -0.04650987 5.1875 -0.0625 C6.15042969 -0.07410156 7.11335937 -0.08570313 8.10546875 -0.09765625 C10.85576513 -0.00486622 13.32479591 0.37888315 16 1 C16 1.33 16 1.66 16 2 C13.36 2.33 10.72 2.66 8 3 C8 2.34 8 1.68 8 1 C5.36 1 2.72 1 0 1 C0 0.67 0 0.34 0 0 Z " fill="#F6A939" transform="translate(224,315)"/>
<path d="M0 0 C5.57142857 5.14285714 5.57142857 5.14285714 6 9 C2.56225537 7.85408512 1.82586841 7.04311402 0 4 C0 2.68 0 1.36 0 0 Z " fill="#F2D190" transform="translate(347,363)"/>
<path d="M0 0 C4.71403788 0.47939368 8.66579301 0.96834048 13 3 C10.02222003 3.99259332 8.92084236 4.01418361 5.9375 3.5625 C2.33292944 2.95285955 2.33292944 2.95285955 0 3 C0 2.01 0 1.02 0 0 Z " fill="#F4D693" transform="translate(288,324)"/>
<path d="M0 0 C0.33 0.99 0.66 1.98 1 3 C-0.21484375 4.82421875 -0.21484375 4.82421875 -1.9375 6.6875 C-2.50339844 7.31011719 -3.06929688 7.93273437 -3.65234375 8.57421875 C-4.09707031 9.04472656 -4.54179687 9.51523437 -5 10 C-5.66 9.34 -6.32 8.68 -7 8 C-6.01 7.67 -5.02 7.34 -4 7 C-4 5.68 -4 4.36 -4 3 C-3.01 2.67 -2.02 2.34 -1 2 C-0.67 1.34 -0.34 0.68 0 0 Z " fill="#F6D5B2" transform="translate(309,255)"/>
<path d="M0 0 C1.31611677 0.95336021 2.62778961 1.91285774 3.9375 2.875 C4.66839844 3.40867187 5.39929688 3.94234375 6.15234375 4.4921875 C8 6 8 6 9 8 C8.4225 7.690625 7.845 7.38125 7.25 7.0625 C5.15705816 6.07416636 3.25464725 5.4831387 1 5 C0.67 3.35 0.34 1.7 0 0 Z " fill="#E7AC44" transform="translate(326,343)"/>
<path d="M0 0 C0.625 1.8125 0.625 1.8125 1 4 C0.01 5.485 0.01 5.485 -1 7 C-1.66 7 -2.32 7 -3 7 C-3.66 8.32 -4.32 9.64 -5 11 C-4.46884894 6.48521602 -2.63379708 3.65333143 0 0 Z " fill="#F9DDBB" transform="translate(99,85)"/>
<path d="M0 0 C2.31 0 4.62 0 7 0 C6 2 6 2 3.625 3.1875 C1 4 1 4 -2 3 C-1.34 3 -0.68 3 0 3 C0 2.01 0 1.02 0 0 Z " fill="#DDBF86" transform="translate(292,503)"/>
<path d="M0 0 C2.50298434 2.93828597 3.46930939 5.17902761 4 9 C2.35 8.67 0.7 8.34 -1 8 C-0.835 7.236875 -0.67 6.47375 -0.5 5.6875 C0.09145396 2.96403764 0.09145396 2.96403764 0 0 Z " fill="#F9D7B6" transform="translate(313,93)"/>
<path d="M0 0 C3.68754757 0.49831724 5.60490662 1.10067643 8 4 C6.68 4.33 5.36 4.66 4 5 C3.67 4.01 3.34 3.02 3 2 C2.01 2 1.02 2 0 2 C0 1.34 0 0.68 0 0 Z " fill="#F6CFAC" transform="translate(275,58)"/>
<path d="M0 0 C-0.66 0 -1.32 0 -2 0 C-2 0.99 -2 1.98 -2 3 C-4.97 2.505 -4.97 2.505 -8 2 C-8 1.34 -8 0.68 -8 0 C-4.94736336 -0.98120464 -3.05263664 -0.98120464 0 0 Z " fill="#EBC275" transform="translate(133,321)"/>
<path d="M0 0 C1.80330533 3.60661066 2.46599103 6.08393425 3 10 C2.01 9.67 1.02 9.34 0 9 C0 6.03 0 3.06 0 0 Z " fill="#F6D2AD" transform="translate(317,102)"/>
<path d="M0 0 C6.875 3.75 6.875 3.75 8 6 C5.69 5.67 3.38 5.34 1 5 C0.67 3.35 0.34 1.7 0 0 Z " fill="#F8D4B3" transform="translate(288,65)"/>
<path d="M0 0 C0.99 0.495 0.99 0.495 2 1 C2 1.66 2 2.32 2 3 C3.32 3.33 4.64 3.66 6 4 C6 4.66 6 5.32 6 6 C4.35 5.67 2.7 5.34 1 5 C0.67 3.35 0.34 1.7 0 0 Z " fill="#EBB44D" transform="translate(348,368)"/>
<path d="M0 0 C0.66 0.33 1.32 0.66 2 1 C1.67 1.99 1.34 2.98 1 4 C-1.5625 5.1875 -1.5625 5.1875 -4 6 C-3.6875 4.125 -3.6875 4.125 -3 2 C-2.01 1.34 -1.02 0.68 0 0 Z " fill="#EBAC36" transform="translate(60,367)"/>
</svg>
