<?xml version="1.0" encoding="UTF-8"?>
<svg version="1.1" xmlns="http://www.w3.org/2000/svg" width="408" height="612">
<path d="M0 0 C2.07301503 -0.00457234 4.14602854 -0.00988101 6.21903992 -0.0158844 C10.54672433 -0.02477525 14.87422382 -0.02243918 19.2019043 -0.01245117 C24.70544177 -0.00097743 30.20833604 -0.0211697 35.71178913 -0.05036831 C39.98876396 -0.06885312 44.26558819 -0.06841337 48.542593 -0.06273079 C50.56966236 -0.06257902 52.59674288 -0.06850208 54.62377357 -0.08102226 C69.75098707 -0.16130401 84.2163516 0.81570527 97.82421875 8.18359375 C98.48317139 8.52865967 99.14212402 8.87372559 99.82104492 9.22924805 C109.04491968 14.18124906 124.67639716 23.23043033 128.31640625 33.76171875 C128.38085938 34.3134375 128.4453125 34.86515625 128.51171875 35.43359375 C129.17171875 35.43359375 129.83171875 35.43359375 130.51171875 35.43359375 C131.7844555 37.75664724 133.02850513 40.08961325 134.26171875 42.43359375 C134.60976563 43.06265625 134.9578125 43.69171875 135.31640625 44.33984375 C142.94210001 59.02636508 143.11359674 74.36161072 143.04296875 90.4921875 C143.04567148 92.69304068 143.04956034 94.89389268 143.05456543 97.09474182 C143.060425 101.68282564 143.05201342 106.27059559 143.03320312 110.85864258 C143.01042971 116.69270329 143.02354978 122.52602699 143.04749298 128.36006069 C143.06205885 132.89786672 143.05729567 137.43550268 143.04698181 141.97331429 C143.04434352 144.1223567 143.04748018 146.27141537 143.05690002 148.42043877 C143.12356859 167.89928033 141.25226723 185.20401202 129.51171875 201.43359375 C129.00898438 202.13226563 128.50625 202.8309375 127.98828125 203.55078125 C118.82117956 215.87037041 106.63755635 223.6770494 92.51171875 229.43359375 C91.80917969 229.73136719 91.10664063 230.02914062 90.3828125 230.3359375 C83.05062066 233.13246608 75.25744899 233.58742154 67.51171875 234.43359375 C67.51171875 242.68359375 67.51171875 250.93359375 67.51171875 259.43359375 C70.48171875 259.76359375 73.45171875 260.09359375 76.51171875 260.43359375 C92.46956006 262.73347154 108.96892159 265.17361024 123.51171875 272.43359375 C124.72585425 272.99502378 125.94077338 273.55476064 127.15625 274.11328125 C142.84420226 281.46025091 157.323083 292.1977401 167.51171875 306.43359375 C167.51171875 307.42359375 167.51171875 308.41359375 167.51171875 309.43359375 C168.17171875 309.43359375 168.83171875 309.43359375 169.51171875 309.43359375 C177.31339983 322.92221452 185.91000466 338.45530015 185.51171875 354.43359375 C182.74719842 355.81585391 180.46558245 355.52884762 177.38671875 355.49609375 C176.29101562 355.48707031 175.1953125 355.47804688 174.06640625 355.46875 C173.22335937 355.45714844 172.3803125 355.44554687 171.51171875 355.43359375 C171.70805908 356.41005859 171.90439941 357.38652344 172.10668945 358.39257812 C172.85138079 362.09761084 173.59469673 365.80291848 174.33764648 369.50830078 C174.6562955 371.09658947 174.9752927 372.68480837 175.29467773 374.27294922 C176.93777744 382.44445923 178.56223769 390.61778336 180.0859375 398.8125 C181.33178723 405.51221814 182.65484953 412.19312619 184.01171875 418.87109375 C191.41117117 455.63468892 191.41117117 455.63468892 189.51171875 459.43359375 C183.3818303 459.57946034 177.25187011 459.72166053 171.12182617 459.86083984 C169.04791108 459.90839865 166.97401651 459.95686305 164.90014648 460.00634766 C161.87358763 460.07839108 158.84697206 460.1471715 155.8203125 460.21484375 C154.31010025 460.25037354 154.31010025 460.25037354 152.76937866 460.28662109 C147.51859921 460.39781173 142.27943638 460.43603931 137.02783203 460.359375 C135.98200455 460.34676636 134.93617706 460.33415771 133.85865784 460.32116699 C131.86764713 460.29266969 129.87676387 460.25144972 127.88633728 460.19543457 C122.83689396 460.1261704 119.66923936 460.25054592 115.51171875 463.43359375 C89.42587512 474.6266781 61.80920919 479.99443652 33.51171875 480.43359375 C32.79467773 480.44874023 32.07763672 480.46388672 31.33886719 480.47949219 C27.42484534 480.55697886 23.51748241 480.55495489 19.60351562 480.47509766 C18.14401411 480.44613929 16.68433078 480.42564489 15.22460938 480.41162109 C-5.81241275 480.16077544 -26.66243518 476.48601958 -46.48828125 469.43359375 C-48.009823 468.91751721 -49.53198837 468.40327658 -51.0546875 467.890625 C-52.59554105 467.36471168 -54.13591734 466.83739769 -55.67578125 466.30859375 C-56.3836377 466.0669751 -57.09149414 465.82535645 -57.82080078 465.57641602 C-60.69918294 464.56172204 -63.27470761 463.57776802 -65.81262207 461.86453247 C-69.0894051 460.11211357 -71.24021664 460.07712944 -74.94335938 460.10888672 C-76.87060852 460.11406815 -76.87060852 460.11406815 -78.83679199 460.11935425 C-80.23104062 460.13799866 -81.62528701 460.15681175 -83.01953125 460.17578125 C-84.45771545 460.18392496 -85.89590875 460.19058548 -87.33410645 460.1958313 C-91.11347771 460.21291602 -94.89248782 460.24714297 -98.67169189 460.28588867 C-104.71992238 460.34516786 -110.76833458 460.37904586 -116.8167572 460.41165543 C-118.92451696 460.42556666 -121.03209009 460.44716739 -123.13977051 460.46994019 C-124.42460327 460.47969879 -125.70943604 460.4894574 -127.03320312 460.49951172 C-128.16173706 460.51078094 -129.290271 460.52205017 -130.45300293 460.53366089 C-133.25758624 460.44119931 -135.76336407 460.07809418 -138.48828125 459.43359375 C-140.00582748 453.50136759 -138.85018354 448.93262777 -137.375 443.05859375 C-135.78938925 436.57644935 -134.67670206 429.99786263 -133.48828125 423.43359375 C-133.21102293 421.90883863 -132.93367628 420.38409957 -132.65625 418.859375 C-132.18890763 416.28835523 -131.72169889 413.71731127 -131.25463867 411.14624023 C-130.66630239 407.90860953 -130.07731048 404.67109846 -129.48828125 401.43359375 C-129.35619263 400.7068042 -129.224104 399.98001465 -129.0880127 399.23120117 C-128.17308514 394.19793297 -127.2550099 389.16525132 -126.3338623 384.13311768 C-126.02246348 382.42947128 -125.71198387 380.72565658 -125.40246582 379.02166748 C-124.96217186 376.59862463 -124.51854289 374.17621287 -124.07421875 371.75390625 C-123.87906174 370.67372223 -123.87906174 370.67372223 -123.67996216 369.57171631 C-122.80067828 364.80327345 -121.70354151 360.12798933 -120.48828125 355.43359375 C-121.33132812 355.45679688 -122.174375 355.48 -123.04296875 355.50390625 C-124.13867188 355.52195312 -125.234375 355.54 -126.36328125 355.55859375 C-127.45382813 355.58179688 -128.544375 355.605 -129.66796875 355.62890625 C-132.48828125 355.43359375 -132.48828125 355.43359375 -134.48828125 353.43359375 C-133.96289966 343.62647078 -130.38623242 334.36030104 -126.48828125 325.43359375 C-125.87533203 324.02787109 -125.87533203 324.02787109 -125.25 322.59375 C-121.37048923 314.27739029 -116.29060604 307.46698901 -110.48828125 300.43359375 C-109.81667969 299.60730469 -109.14507812 298.78101563 -108.453125 297.9296875 C-100.56503817 288.61623795 -91.36337317 281.85603541 -80.48828125 276.43359375 C-79.03421875 275.66208984 -79.03421875 275.66208984 -77.55078125 274.875 C-65.92512775 268.80483457 -52.83879283 263.71194448 -39.48828125 264.43359375 C-39.48828125 263.77359375 -39.48828125 263.11359375 -39.48828125 262.43359375 C-28.59828125 260.45359375 -28.59828125 260.45359375 -17.48828125 258.43359375 C-17.15828125 250.51359375 -16.82828125 242.59359375 -16.48828125 234.43359375 C-18.79828125 234.22734375 -21.10828125 234.02109375 -23.48828125 233.80859375 C-43.98445243 231.48911179 -63.22489965 220.55474337 -76.42578125 204.80859375 C-90.4721767 186.78821809 -91.96365212 167.16157049 -91.921875 145.12890625 C-91.92644901 142.99388465 -91.93175815 140.8588645 -91.9377594 138.72384644 C-91.94664117 134.27107728 -91.94432413 129.81848795 -91.93432617 125.36572266 C-91.92284501 119.70540779 -91.94306092 114.04571763 -91.97224331 108.3854847 C-91.99073248 103.98237268 -91.99028766 99.57940687 -91.98460579 95.17626572 C-91.98445412 93.09141031 -91.99036862 91.00654399 -92.00289726 88.92172623 C-92.08302593 73.4062281 -91.316658 57.86323427 -83.67578125 43.93359375 C-83.3303125 43.27689697 -82.98484375 42.6202002 -82.62890625 41.94360352 C-77.98731844 33.34795246 -71.1896128 22.66737093 -61.48828125 19.43359375 C-61.48828125 18.77359375 -61.48828125 18.11359375 -61.48828125 17.43359375 C-56.46653321 12.82298297 -49.87801086 10.04583118 -43.73828125 7.24609375 C-42.66827881 6.74698486 -42.66827881 6.74698486 -41.57666016 6.23779297 C-27.92199888 0.19770619 -14.6599886 -0.02853575 0 0 Z " fill="#A5B0B6" transform="translate(178.48828125,66.56640625)"/>
<path d="M0 0 C2.07301503 -0.00457234 4.14602854 -0.00988101 6.21903992 -0.0158844 C10.54672433 -0.02477525 14.87422382 -0.02243918 19.2019043 -0.01245117 C24.70544177 -0.00097743 30.20833604 -0.0211697 35.71178913 -0.05036831 C39.98876396 -0.06885312 44.26558819 -0.06841337 48.542593 -0.06273079 C50.56966236 -0.06257902 52.59674288 -0.06850208 54.62377357 -0.08102226 C69.75098707 -0.16130401 84.2163516 0.81570527 97.82421875 8.18359375 C98.48317139 8.52865967 99.14212402 8.87372559 99.82104492 9.22924805 C109.04491968 14.18124906 124.67639716 23.23043033 128.31640625 33.76171875 C128.38085938 34.3134375 128.4453125 34.86515625 128.51171875 35.43359375 C129.17171875 35.43359375 129.83171875 35.43359375 130.51171875 35.43359375 C131.7844555 37.75664724 133.02850513 40.08961325 134.26171875 42.43359375 C134.60976563 43.06265625 134.9578125 43.69171875 135.31640625 44.33984375 C142.94210001 59.02636508 143.11359674 74.36161072 143.04296875 90.4921875 C143.04567148 92.69304068 143.04956034 94.89389268 143.05456543 97.09474182 C143.060425 101.68282564 143.05201342 106.27059559 143.03320312 110.85864258 C143.01042971 116.69270329 143.02354978 122.52602699 143.04749298 128.36006069 C143.06205885 132.89786672 143.05729567 137.43550268 143.04698181 141.97331429 C143.04434352 144.1223567 143.04748018 146.27141537 143.05690002 148.42043877 C143.12356859 167.89928033 141.25226723 185.20401202 129.51171875 201.43359375 C129.00898438 202.13226563 128.50625 202.8309375 127.98828125 203.55078125 C121.23697453 212.6238043 113.2740967 218.79161256 103.51171875 224.43359375 C102.66996094 224.92214844 101.82820312 225.41070312 100.9609375 225.9140625 C93.8483321 229.59448502 86.9001366 230.39529963 79.0390625 231.07421875 C75.6695074 231.20709393 75.6695074 231.20709393 73.51171875 232.43359375 C71.20171875 232.43359375 68.89171875 232.43359375 66.51171875 232.43359375 C66.51171875 241.34359375 66.51171875 250.25359375 66.51171875 259.43359375 C39.12171875 259.43359375 11.73171875 259.43359375 -16.48828125 259.43359375 C-16.48828125 251.18359375 -16.48828125 242.93359375 -16.48828125 234.43359375 C-18.79828125 234.22734375 -21.10828125 234.02109375 -23.48828125 233.80859375 C-43.98445243 231.48911179 -63.22489965 220.55474337 -76.42578125 204.80859375 C-90.4721767 186.78821809 -91.96365212 167.16157049 -91.921875 145.12890625 C-91.92644901 142.99388465 -91.93175815 140.8588645 -91.9377594 138.72384644 C-91.94664117 134.27107728 -91.94432413 129.81848795 -91.93432617 125.36572266 C-91.92284501 119.70540779 -91.94306092 114.04571763 -91.97224331 108.3854847 C-91.99073248 103.98237268 -91.99028766 99.57940687 -91.98460579 95.17626572 C-91.98445412 93.09141031 -91.99036862 91.00654399 -92.00289726 88.92172623 C-92.08302593 73.4062281 -91.316658 57.86323427 -83.67578125 43.93359375 C-83.3303125 43.27689697 -82.98484375 42.6202002 -82.62890625 41.94360352 C-77.98731844 33.34795246 -71.1896128 22.66737093 -61.48828125 19.43359375 C-61.48828125 18.77359375 -61.48828125 18.11359375 -61.48828125 17.43359375 C-56.46653321 12.82298297 -49.87801086 10.04583118 -43.73828125 7.24609375 C-42.66827881 6.74698486 -42.66827881 6.74698486 -41.57666016 6.23779297 C-27.92199888 0.19770619 -14.6599886 -0.02853575 0 0 Z " fill="#F6AC69" transform="translate(178.48828125,66.56640625)"/>
<path d="M0 0 C-4.79297555 1.7992558 -9.32905166 2.56781066 -14.375 3.125 C-16.89125 3.41375 -19.4075 3.7025 -22 4 C-22 12.25 -22 20.5 -22 29 C-19.03 29.33 -16.06 29.66 -13 30 C-11.46430052 30.23129141 -9.93050476 30.47715268 -8.40234375 30.75390625 C-7.66435547 30.88603516 -6.92636719 31.01816406 -6.16601562 31.15429688 C-5.43060547 31.28900391 -4.69519531 31.42371094 -3.9375 31.5625 C-3.16728516 31.70107422 -2.39707031 31.83964844 -1.60351562 31.98242188 C0.26480455 32.3189516 2.13247494 32.65908555 4 33 C4 33.33 4 33.66 4 34 C2.35 34 0.7 34 -1 34 C-1.12375 34.66 -1.2475 35.32 -1.375 36 C-2 39 -2 39 -3.0625 42.5625 C-6.38550926 55.98040859 -2.281137 68.54206276 2.93017578 80.8371582 C4.35122528 84.20840996 5.4367873 87.38032815 6 91 C4.99582031 91.36351562 3.99164063 91.72703125 2.95703125 92.1015625 C-5.90439304 95.34519463 -14.47642422 98.9364348 -23 103 C-28.93663777 105.76029654 -34.88599961 108.37747888 -40.984375 110.7578125 C-43.49831124 111.79334582 -45.97500522 112.87507012 -48.453125 113.9921875 C-49.65086548 114.53202271 -49.65086548 114.53202271 -50.87280273 115.08276367 C-52.47335171 115.80751941 -54.0719039 116.53670459 -55.66821289 117.27075195 C-65.29955147 121.63177873 -65.29955147 121.63177873 -70.1015625 119.84765625 C-71.26429688 119.25855469 -72.42703125 118.66945313 -73.625 118.0625 C-74.9540181 117.40667734 -76.28484132 116.75450352 -77.6171875 116.10546875 C-78.32327148 115.7604834 -79.02935547 115.41549805 -79.75683594 115.06005859 C-83.69759614 113.19776203 -87.72420412 111.54331913 -91.75 109.875 C-98.55971909 107.03772953 -105.30825841 104.10725877 -112 101 C-119.59928522 97.49348848 -127.25636664 94.17583567 -135 91 C-133.92152322 87.60232094 -132.81597811 84.65649248 -131.125 81.5 C-126.40715186 72.06430373 -124.64417647 63.00600304 -124.625 52.5625 C-124.62338867 51.72235352 -124.62177734 50.88220703 -124.62011719 50.01660156 C-124.71014663 44.99695998 -125.39854723 40.75951763 -127 36 C-128.98 35.67 -130.96 35.34 -133 35 C-132.7834375 35.680625 -132.566875 36.36125 -132.34375 37.0625 C-127.28665212 54.66869262 -130.24726598 70.65017479 -138 87 C-138.66 87.99 -139.32 88.98 -140 90 C-140.66 90 -141.32 90 -142 90 C-142.07347656 90.55171875 -142.14695312 91.1034375 -142.22265625 91.671875 C-143.29461188 94.88235517 -145.16325892 96.76107056 -147.4375 99.25 C-148.24058594 100.14203125 -149.04367188 101.0340625 -149.87109375 101.953125 C-152 104 -152 104 -154 104 C-154 104.66 -154 105.32 -154 106 C-167.70586855 118.00423702 -186.1459985 123.26313821 -204.03637695 123.6730957 C-205.69386549 123.71904962 -207.34856272 123.85122187 -209 124 C-209.495 124.99 -209.495 124.99 -210 126 C-211.95901454 125.88617347 -213.9172338 125.75858875 -215.875 125.625 C-216.96554688 125.55539062 -218.05609375 125.48578125 -219.1796875 125.4140625 C-222 125 -222 125 -224 123 C-223.47461841 113.19287703 -219.89795117 103.92670729 -216 95 C-215.59136719 94.06285156 -215.18273437 93.12570312 -214.76171875 92.16015625 C-210.88220798 83.84379654 -205.80232479 77.03339526 -200 70 C-199.32839844 69.17371094 -198.65679687 68.34742188 -197.96484375 67.49609375 C-190.07675692 58.1826442 -180.87509192 51.42244166 -170 46 C-169.030625 45.48566406 -168.06125 44.97132813 -167.0625 44.44140625 C-155.4368465 38.37124082 -142.35051158 33.27835073 -129 34 C-129 33.34 -129 32.68 -129 32 C-110.68737789 27.87759242 -92.94157967 27.4679523 -74.29467773 27.66705322 C-71.30631672 27.69442665 -68.31803486 27.70289905 -65.32956791 27.71061993 C-61.68972308 27.72070224 -58.04995031 27.74039932 -54.41015625 27.76171875 C-53.09934586 27.76910568 -51.78853546 27.77649261 -50.43800354 27.78410339 C-41.25495379 27.87720903 -32.15925427 28.36857932 -23 29 C-23 20.09 -23 11.18 -23 2 C-12.74368231 -0.27918171 -12.74368231 -0.27918171 -8.125 -0.6875 C-7.22007812 -0.77386719 -6.31515625 -0.86023438 -5.3828125 -0.94921875 C-3 -1 -3 -1 0 0 Z " fill="#BECBD3" transform="translate(268,297)"/>
<path d="M0 0 C10.64548279 0.88712357 20.41235429 3.27837327 30 8 C31.21830524 8.5621628 32.437099 9.12326749 33.65625 9.68359375 C49.33872924 17.03338945 63.81341697 27.76701447 74 42 C74 42.99 74 43.98 74 45 C74.66 45 75.32 45 76 45 C83.80168108 58.48862077 92.39828591 74.0217064 92 90 C89.23547967 91.38226016 86.9538637 91.09525387 83.875 91.0625 C82.77929688 91.05347656 81.68359375 91.04445313 80.5546875 91.03515625 C79.29011719 91.01775391 79.29011719 91.01775391 78 91 C77.505 92.98 77.505 92.98 77 95 C76.67 93.68 76.34 92.36 76 91 C74.69546875 90.82984375 73.3909375 90.6596875 72.046875 90.484375 C50.76796754 87.58956291 30.96521258 81.35338841 16 65 C16 64.34 16 63.68 16 63 C15.34 63 14.68 63 14 63 C11 59.53846154 11 59.53846154 11 57 C10.34 57 9.68 57 9 57 C0.69874152 40.53550871 -4.42701267 26.07012837 -0.4375 7.5078125 C0.00806907 4.95374691 0.07418001 2.58702774 0 0 Z " fill="#BFCBD3" transform="translate(272,331)"/>
<path d="M0 0 C27.06 0 54.12 0 82 0 C82 8.58 82 17.16 82 26 C54.94 26 27.88 26 0 26 C0 17.42 0 8.84 0 0 Z " fill="#DB863A" transform="translate(163,300)"/>
<path d="M0 0 C0.87648193 -0.00428513 1.75296387 -0.00857025 2.65600586 -0.01298523 C4.50861751 -0.01872671 6.36125171 -0.01923013 8.21386719 -0.01489258 C11.05182202 -0.01173065 13.88873644 -0.03520035 16.7265625 -0.06054688 C18.52604035 -0.06281965 20.32552101 -0.06352347 22.125 -0.0625 C22.97505615 -0.07170975 23.8251123 -0.08091949 24.70092773 -0.09040833 C30.6163414 -0.04382226 30.6163414 -0.04382226 32.78686523 1.63264465 C34.74490168 4.19315205 34.459953 6.1873994 34.0625 9.30078125 C30.38162647 11.75469694 27.61894412 11.52880884 23.375 11.42578125 C22.67310547 11.41675781 21.97121094 11.40773438 21.24804688 11.3984375 C19.51938475 11.37491829 17.79089855 11.33904838 16.0625 11.30078125 C16.07821045 12.53231934 16.0939209 13.76385742 16.11010742 15.03271484 C16.16430589 19.5910796 16.19881322 24.14941575 16.22729492 28.70800781 C16.24240462 30.68299138 16.26289328 32.65794129 16.28881836 34.6328125 C16.32510619 37.46753231 16.34220416 40.30180951 16.35546875 43.13671875 C16.37095261 44.02322113 16.38643646 44.90972351 16.40238953 45.8230896 C16.40261612 46.64378937 16.40284271 47.46448914 16.40307617 48.31005859 C16.40973801 49.03397797 16.41639984 49.75789734 16.42326355 50.50375366 C16.0625 52.30078125 16.0625 52.30078125 13.0625 54.30078125 C9.9375 54.05078125 9.9375 54.05078125 7.0625 53.30078125 C5.37053496 49.91685117 5.94263451 46.07600334 5.96484375 42.35546875 C5.9662587 41.47045685 5.96767365 40.58544495 5.96913147 39.6736145 C5.9747386 36.84096934 5.98729229 34.00840261 6 31.17578125 C6.00501408 29.25781364 6.00957715 27.33984479 6.01367188 25.421875 C6.02471034 20.71481343 6.04197975 16.00781065 6.0625 11.30078125 C5.01449219 11.33558594 3.96648437 11.37039063 2.88671875 11.40625 C1.50782853 11.43439062 0.12892098 11.46169049 -1.25 11.48828125 C-2.28543945 11.52598633 -2.28543945 11.52598633 -3.34179688 11.56445312 C-8.43721371 11.63829975 -8.43721371 11.63829975 -10.89453125 9.98046875 C-12.52379769 7.35655651 -12.32076173 5.3029981 -11.9375 2.30078125 C-7.99249701 -0.32922074 -4.57943985 -0.00490995 0 0 Z " fill="#8E999D" transform="translate(192.9375,456.69921875)"/>
<path d="M0 0 C0.90161865 -0.0065712 1.8032373 -0.0131424 2.73217773 -0.01991272 C5.71232194 -0.03959753 8.69241565 -0.05130256 11.67260742 -0.0612793 C12.69614508 -0.06535482 13.71968273 -0.06943035 14.77423668 -0.07362938 C20.20023774 -0.09447759 25.62621367 -0.10878024 31.05224609 -0.11816406 C36.61872968 -0.1291778 42.18480794 -0.16352289 47.75114918 -0.20333576 C52.06242032 -0.22967117 56.37359777 -0.2378712 60.68494225 -0.24144554 C62.73435872 -0.24627417 64.78377209 -0.25777977 66.8331089 -0.27648354 C97.08920202 -0.535283 97.08920202 -0.535283 105.96557617 7.17700195 C105.22952148 7.15379883 104.4934668 7.1305957 103.73510742 7.10668945 C102.27137695 7.07961914 102.27137695 7.07961914 100.77807617 7.05200195 C99.81514648 7.02879883 98.8522168 7.0055957 97.86010742 6.98168945 C94.83744839 7.18564755 92.69787632 7.90825563 89.96557617 9.17700195 C90.29557617 7.85700195 90.62557617 6.53700195 90.96557617 5.17700195 C84.4482396 3.51603918 78.56517677 2.89594978 71.85595703 2.94995117 C70.88903931 2.94965912 69.92212158 2.94936707 68.92590332 2.94906616 C65.7606478 2.95044875 62.59563383 2.96595918 59.43041992 2.98168945 C57.2236799 2.98542339 55.0169382 2.98826857 52.81019592 2.99026489 C47.02506874 2.99787132 41.24004328 3.01749399 35.45495605 3.03967285 C29.54249446 3.06019588 23.6300163 3.06928038 17.7175293 3.0793457 C6.13350043 3.10074281 -5.45045321 3.13484244 -17.03442383 3.17700195 C-11.7010402 -0.37858713 -6.20758588 0.01974854 0 0 Z " fill="#EFC299" transform="translate(166.034423828125,66.822998046875)"/>
<path d="M0 0 C3.64594609 5.46891913 3.15797529 11.20277828 3.17700195 17.56933594 C3.18357315 18.52786972 3.19014435 19.4864035 3.19691467 20.47398376 C3.21660876 23.64411508 3.2283069 26.8141989 3.23828125 29.984375 C3.24235678 31.07285988 3.2464323 32.16134476 3.25063133 33.28281403 C3.27148395 39.05361235 3.28578444 44.82438701 3.29516602 50.59521484 C3.30617782 56.51582597 3.34051946 62.4360558 3.38033772 68.35653305 C3.4066736 72.94149402 3.41487322 77.52636687 3.41844749 82.11139679 C3.42327637 84.29116618 3.43478267 86.47093264 3.45348549 88.65062714 C3.55687191 101.50750797 3.19856523 113.72610344 -1 126 C-1.99 126.99 -1.99 126.99 -3 128 C-3.08371175 123.14471858 -2.85183663 118.79158104 -2 114 C-1.96377667 112.33372702 -1.95100158 110.66594626 -2 109 C-1.01 108.505 -1.01 108.505 0 108 C0.02318475 95.21290185 0.04094638 82.42580871 0.05181217 69.63869381 C0.05702756 63.7009348 0.06410085 57.76319018 0.07543945 51.82543945 C0.08631603 46.09367799 0.09228697 40.36193037 0.09487724 34.63015938 C0.09672288 32.44493962 0.10032694 30.25972061 0.10573006 28.07450676 C0.11300376 25.01051073 0.11398826 21.94657166 0.11352539 18.88256836 C0.11712067 17.98201218 0.12071594 17.08145599 0.12442017 16.15361023 C0.11825499 12.37456285 0.02946949 8.74290474 -0.56959534 5.00733948 C-1 2 -1 2 0 0 Z " fill="#E6AB76" transform="translate(318,126)"/>
<path d="M0 0 C-4.79297555 1.7992558 -9.32905166 2.56781066 -14.375 3.125 C-16.89125 3.41375 -19.4075 3.7025 -22 4 C-22 12.25 -22 20.5 -22 29 C-20.02 29.495 -20.02 29.495 -18 30 C-26.34221431 31.0763702 -34.62727224 31.14685537 -43.02734375 31.1328125 C-44.46643592 31.13348808 -45.90552797 31.13446021 -47.34461975 31.13571167 C-50.34588722 31.13717717 -53.34712472 31.13507159 -56.34838867 31.13037109 C-60.16517753 31.1246797 -63.98189594 31.12795643 -67.79868221 31.13394356 C-70.76636775 31.13758476 -73.73403703 31.13639428 -76.7017231 31.13381577 C-78.10771252 31.13315604 -79.51370349 31.13394092 -80.91969109 31.13629532 C-89.00557851 31.14686706 -96.96276635 30.91850732 -105 30 C-105 29.67 -105 29.34 -105 29 C-98.01273478 27.9241321 -91.15506195 27.85504532 -84.09375 27.8671875 C-82.85564575 27.86623077 -81.6175415 27.86527405 -80.34191895 27.86428833 C-77.72631784 27.8636096 -75.11071503 27.8654424 -72.49511719 27.86962891 C-68.5409759 27.87494491 -64.5869501 27.8696923 -60.6328125 27.86328125 C-48.0411139 27.86029857 -35.55410683 27.99630872 -23 29 C-23 20.09 -23 11.18 -23 2 C-12.74368231 -0.27918171 -12.74368231 -0.27918171 -8.125 -0.6875 C-6.76761719 -0.81705078 -6.76761719 -0.81705078 -5.3828125 -0.94921875 C-3 -1 -3 -1 0 0 Z " fill="#D1C8B8" transform="translate(268,297)"/>
<path d="M0 0 C3.70259712 5.55389569 3.13859689 11.37856414 3.11352539 17.83911133 C3.11367142 18.82495209 3.11381744 19.81079285 3.1139679 20.82650757 C3.11327237 24.07837134 3.10549681 27.33017751 3.09765625 30.58203125 C3.09579079 32.83932972 3.09436749 35.09662859 3.09336853 37.35392761 C3.08955343 43.29032512 3.07973172 49.22669811 3.06866455 55.16308594 C3.0584288 61.22265287 3.05386627 67.28222378 3.04882812 73.34179688 C3.03810857 85.22787535 3.02104421 97.11393563 3 109 C2.67 109 2.34 109 2 109 C1.99191315 107.80698273 1.98382629 106.61396545 1.97549438 105.38479614 C1.89784758 94.11525098 1.81006203 82.8458238 1.71247292 71.57643318 C1.66262975 65.78340146 1.61629891 59.99038693 1.578125 54.19726562 C1.54112058 48.60156096 1.49472009 43.00600437 1.44193649 37.41042709 C1.42347286 35.28074631 1.40833561 33.15103388 1.39665604 31.02130508 C1.37965552 28.02723432 1.3505883 25.03349677 1.31884766 22.03955078 C1.31668747 21.1684819 1.31452728 20.29741302 1.31230164 19.39994812 C1.24075027 14.08065094 0.56442965 9.20788277 -0.67136574 4.02985954 C-1 2 -1 2 0 0 Z " fill="#F9DEC8" transform="translate(318,126)"/>
<path d="M0 0 C-4.79297555 1.7992558 -9.32905166 2.56781066 -14.375 3.125 C-16.89125 3.41375 -19.4075 3.7025 -22 4 C-22 12.25 -22 20.5 -22 29 C-20.68 29.33 -19.36 29.66 -18 30 C-19.65 30 -21.3 30 -23 30 C-23 20.76 -23 11.52 -23 2 C-12.74368231 -0.27918171 -12.74368231 -0.27918171 -8.125 -0.6875 C-6.76761719 -0.81705078 -6.76761719 -0.81705078 -5.3828125 -0.94921875 C-3 -1 -3 -1 0 0 Z " fill="#F9D9B7" transform="translate(268,297)"/>
<path d="M0 0 C2 0 2 0 3.625 1.1875 C5.42149467 3.55560662 5.23521845 5.09897251 5 8 C5.99 8 6.98 8 8 8 C9.32 10.97 10.64 13.94 12 17 C11.01 17 10.02 17 9 17 C4.4029226 12.16717504 0 6.86760968 0 0 Z " fill="#F1C9A1" transform="translate(94,255)"/>
<path d="M0 0 C3.36871349 5.05307023 3.14023143 10.00384356 3.09765625 15.92578125 C3.0962413 16.67337204 3.09482635 17.42096283 3.09336853 18.19120789 C3.08779764 20.56501365 3.0752506 22.93872303 3.0625 25.3125 C3.05748123 26.92773301 3.05291899 28.5429675 3.04882812 30.15820312 C3.03783775 34.10550555 3.02059332 38.05273647 3 42 C2.67 42 2.34 42 2 42 C1.98018066 41.1435791 1.96036133 40.2871582 1.93994141 39.40478516 C1.86112492 36.18027658 1.77441367 32.95609679 1.68261719 29.73193359 C1.64469755 28.34529587 1.60978547 26.9585721 1.578125 25.57177734 C1.40734382 18.18015448 1.12507608 11.039517 -0.68212891 3.83349609 C-1 2 -1 2 0 0 Z " fill="#F9E1CB" transform="translate(318,126)"/>
<path d="M0 0 C0.66 0.33 1.32 0.66 2 1 C1.01 2.485 1.01 2.485 0 4 C-0.99 4 -1.98 4 -3 4 C-3.268125 4.598125 -3.53625 5.19625 -3.8125 5.8125 C-5.00987475 8.01819033 -6.04478984 9.43583187 -8 11 C-8.99 11 -9.98 11 -11 11 C-11.2475 11.639375 -11.495 12.27875 -11.75 12.9375 C-13 15 -13 15 -15.125 15.75 C-16.053125 15.87375 -16.053125 15.87375 -17 16 C-17 14 -17 14 -15.35546875 12.30859375 C-14.64003906 11.69113281 -13.92460938 11.07367188 -13.1875 10.4375 C-12.47980469 9.81746094 -11.77210937 9.19742188 -11.04296875 8.55859375 C-9 7 -9 7 -6 6 C-6 5.34 -6 4.68 -6 4 C-4.03852126 2.61061923 -2.03833424 1.2739589 0 0 Z " fill="#F0C8A0" transform="translate(123,80)"/>
<path d="M0 0 C2.83781507 1.41890753 3.29750649 3.51658363 4.3359375 6.390625 C5.63476021 11.49423422 5.76819327 16.75637198 6 22 C3.31796173 18.85968628 2.27399039 16.12357907 1.3125 12.125 C1.06113281 11.11695313 0.80976562 10.10890625 0.55078125 9.0703125 C-0.00403668 5.97749767 -0.09825559 3.13482106 0 0 Z " fill="#ECBC8E" transform="translate(88,233)"/>
<path d="M0 0 C-0.43384548 7.03128878 -1.74321997 13.329015 -4 20 C-4.33 20 -4.66 20 -5 20 C-5.08371175 15.14471858 -4.85183663 10.79158104 -4 6 C-3.96377667 4.33372702 -3.95100158 2.66594626 -4 1 C-2 0 -2 0 0 0 Z " fill="#F0C091" transform="translate(320,234)"/>
<path d="M0 0 C0 0.66 0 1.32 0 2 C-1.0725 2.268125 -2.145 2.53625 -3.25 2.8125 C-6.65075686 3.88940634 -8.25318758 4.91621127 -11 7 C-12.32 7 -13.64 7 -15 7 C-15 7.66 -15 8.32 -15 9 C-17.64 9.33 -20.28 9.66 -23 10 C-21.19557386 6.39114772 -16.75702036 5.43994851 -13.1875 3.875 C-12.36701172 3.50246094 -11.54652344 3.12992187 -10.70117188 2.74609375 C-9.50911133 2.21822266 -9.50911133 2.21822266 -8.29296875 1.6796875 C-7.5661792 1.35726074 -6.83938965 1.03483398 -6.09057617 0.70263672 C-4 0 -4 0 0 0 Z " fill="#F2CEA9" transform="translate(148,70)"/>
<path d="M0 0 C0.33 0.66 0.66 1.32 1 2 C3.31 2 5.62 2 8 2 C4.72327085 4.90292752 2.04717391 5.58029064 -2.25 6.1875 C-3.32765625 6.34605469 -4.4053125 6.50460937 -5.515625 6.66796875 C-6.33546875 6.77753906 -7.1553125 6.88710938 -8 7 C-6.5361389 2.60841671 -4.02168662 2.12052567 0 0 Z " fill="#F0BB87" transform="translate(270,290)"/>
<path d="M0 0 C-10.37357631 7.66742597 -10.37357631 7.66742597 -16 9 C-16 8.01 -16 7.02 -16 6 C-15.01 6 -14.02 6 -13 6 C-13 5.34 -13 4.68 -13 4 C-12.01 4 -11.02 4 -10 4 C-10 3.34 -10 2.68 -10 2 C-8.71211992 1.46987262 -7.41953322 0.9511671 -6.125 0.4375 C-5.40570313 0.14746094 -4.68640625 -0.14257812 -3.9453125 -0.44140625 C-2 -1 -2 -1 0 0 Z " fill="#F2CCA5" transform="translate(294,283)"/>
<path d="M0 0 C2.21875 1.55078125 2.21875 1.55078125 4 3 C3.26394531 2.97679688 2.52789062 2.95359375 1.76953125 2.9296875 C0.30580078 2.90261719 0.30580078 2.90261719 -1.1875 2.875 C-2.63189453 2.84019531 -2.63189453 2.84019531 -4.10546875 2.8046875 C-7.12812778 3.0086456 -9.26769985 3.73125368 -12 5 C-11.66260373 2.469528 -11.3938922 1.3181437 -9.375 -0.3125 C-5.95365785 -1.30288852 -3.44391627 -0.79948056 0 0 Z " fill="#F2C293" transform="translate(268,71)"/>
<path d="M0 0 C6.70518586 -0.19818283 12.65176798 -0.30844801 19 2 C19 2.66 19 3.32 19 4 C16.39442509 3.71815415 13.79099602 3.42497289 11.1875 3.125 C10.44951172 3.04636719 9.71152344 2.96773438 8.95117188 2.88671875 C5.28493819 2.45539714 3.12048255 2.0803217 0 0 Z " fill="#F4CEA8" transform="translate(143,297)"/>
<path d="M0 0 C0.33 0 0.66 0 1 0 C1.40850553 7.08076251 -0.09579269 13.19925959 -2 20 C-2.33 20 -2.66 20 -3 20 C-3.40850553 12.91923749 -1.90420731 6.80074041 0 0 Z " fill="#EFCAA8" transform="translate(91,119)"/>
<path d="M0 0 C4.06225548 0.57823096 6.84762346 1.89117737 10.3125 4.0625 C11.19550781 4.61035156 12.07851563 5.15820312 12.98828125 5.72265625 C13.65214844 6.14417969 14.31601562 6.56570312 15 7 C11.3286919 8.22376937 10.40346492 7.61664584 7 6 C4.2805761 4.18705073 2.25740623 2.33524782 0 0 Z " fill="#F6D0AD" transform="translate(272,74)"/>
<path d="M0 0 C1 3 1 3 0.00390625 5.04296875 C-0.47175781 5.75066406 -0.94742187 6.45835937 -1.4375 7.1875 C-1.91058594 7.90292969 -2.38367188 8.61835938 -2.87109375 9.35546875 C-3.24363281 9.89816406 -3.61617188 10.44085938 -4 11 C-5.33332095 8.3333581 -4.67102033 6.83319697 -4 4 C-4.99 3.67 -5.98 3.34 -7 3 C-7 2.34 -7 1.68 -7 1 C-5.68 1 -4.36 1 -3 1 C-3 1.66 -3 2.32 -3 3 C-2.01 2.01 -1.02 1.02 0 0 Z " fill="#F5C99D" transform="translate(313,256)"/>
<path d="M0 0 C0.99 0.33 1.98 0.66 3 1 C2.01 1.66 1.02 2.32 0 3 C-1.20450304 5.55183404 -1.20450304 5.55183404 -2 8 C-2.33 7.34 -2.66 6.68 -3 6 C-4.32 6.99 -5.64 7.98 -7 9 C-7.66 8.67 -8.32 8.34 -9 8 C-6.03 5.36 -3.06 2.72 0 0 Z " fill="#DCE2E5" transform="translate(87,349)"/>
<path d="M0 0 C3.94139078 1.66751148 6.7892812 4.22710649 10 7 C7 8 7 8 4.8125 7.0625 C4.214375 6.711875 3.61625 6.36125 3 6 C3 5.34 3 4.68 3 4 C2.34 4 1.68 4 1 4 C0.67 2.68 0.34 1.36 0 0 Z " fill="#F2C99F" transform="translate(287,82)"/>
<path d="M0 0 C1.32 0 2.64 0 4 0 C4 0.66 4 1.32 4 2 C5.093125 2.103125 6.18625 2.20625 7.3125 2.3125 C11.05975155 3.01114012 11.65962741 3.31397238 14 6 C8.83805777 5.04408477 4.30837002 4.19653259 0 1 C0 0.67 0 0.34 0 0 Z " fill="#F3D5B4" transform="translate(129,291)"/>
<path d="M0 0 C2.31 0.33 4.62 0.66 7 1 C7 1.99 7 2.98 7 4 C7.66 4 8.32 4 9 4 C9.33 4.99 9.66 5.98 10 7 C5.56541027 5.6062718 3.12621626 3.39417765 0 0 Z " fill="#F3CBA1" transform="translate(113,281)"/>
<path d="M0 0 C0.93065133 2.60582371 1.14917407 3.64198224 0.0625 6.25 C-0.4634375 7.11625 -0.4634375 7.11625 -1 8 C-1.66 7.67 -2.32 7.34 -3 7 C-3 7.99 -3 8.98 -3 10 C-3.99 10.33 -4.98 10.66 -6 11 C-4.54955729 6.89041233 -2.48889248 3.56741255 0 0 Z " fill="#DAE1E4" transform="translate(61,376)"/>
<path d="M0 0 C0.33 0 0.66 0 1 0 C1.16682272 4.92127034 1.24828052 8.50343896 -1 13 C-1.33 13 -1.66 13 -2 13 C-2.16682272 8.07872966 -2.24828052 4.49656104 0 0 Z " fill="#F0C99D" transform="translate(317,241)"/>
<path d="M0 0 C3.50281042 4.67041389 3.5344992 6.41399038 4 12 C3.01 11.67 2.02 11.34 1 11 C0.67 7.37 0.34 3.74 0 0 Z " fill="#F3CAA4" transform="translate(314,114)"/>
<path d="M0 0 C0.33 0.66 0.66 1.32 1 2 C1.66 2 2.32 2 3 2 C3 2.99 3 3.98 3 5 C6.96 5 10.92 5 15 5 C14.67 5.66 14.34 6.32 14 7 C12.04098546 6.88617347 10.0827662 6.75858875 8.125 6.625 C7.03445312 6.55539062 5.94390625 6.48578125 4.8203125 6.4140625 C2 6 2 6 0 4 C0 2.68 0 1.36 0 0 Z " fill="#E3E8EC" transform="translate(44,416)"/>
<path d="M0 0 C0.33 1.32 0.66 2.64 1 4 C0.34 4 -0.32 4 -1 4 C-1 5.98 -1 7.96 -1 10 C-2.98 10.99 -2.98 10.99 -5 12 C-4.54738642 10.56068883 -4.08767021 9.12361001 -3.625 7.6875 C-3.24214844 6.48673828 -3.24214844 6.48673828 -2.8515625 5.26171875 C-2 3 -2 3 0 0 Z " fill="#F5D1A8" transform="translate(97,107)"/>
<path d="M0 0 C2.13586678 3.20380017 2.23132175 4.01939967 2.125 7.6875 C2.10695313 8.49574219 2.08890625 9.30398437 2.0703125 10.13671875 C2.04710937 10.75160156 2.02390625 11.36648437 2 12 C-0.31509559 8.52735662 -0.62582455 6.11592992 -1 2 C-0.67 1.34 -0.34 0.68 0 0 Z " fill="#F0C79F" transform="translate(318,126)"/>
<path d="M0 0 C0.103125 0.639375 0.20625 1.27875 0.3125 1.9375 C0.539375 2.618125 0.76625 3.29875 1 4 C1.99 4.33 2.98 4.66 4 5 C4 6.98 4 8.96 4 11 C0.85041169 7.57653445 0.43820891 4.55737263 0 0 Z " fill="#F3D2B4" transform="translate(90,244)"/>
<path d="M0 0 C3.26460973 1.80412643 4.88929795 2.83394693 7 6 C4.69 5.67 2.38 5.34 0 5 C0 3.33333333 0 1.66666667 0 0 Z " fill="#D7DEE1" transform="translate(326,354)"/>
<path d="M0 0 C0.66 0.33 1.32 0.66 2 1 C1.01 2.485 1.01 2.485 0 4 C-0.99 4 -1.98 4 -3 4 C-3 4.66 -3 5.32 -3 6 C-3.99 6 -4.98 6 -6 6 C-6 5.34 -6 4.68 -6 4 C-4.03852126 2.61061923 -2.03833424 1.2739589 0 0 Z " fill="#F2D5B6" transform="translate(123,80)"/>
<path d="M0 0 C2.4375 0.75 2.4375 0.75 5 2 C5.8125 4.125 5.8125 4.125 6 6 C3.37812506 4.95125002 2.20628639 4.35068687 0.75 1.875 C0.5025 1.25625 0.255 0.6375 0 0 Z " fill="#F1D2AD" transform="translate(105,273)"/>
<path d="M0 0 C2.31 1.98 4.62 3.96 7 6 C6.67 6.66 6.34 7.32 6 8 C3.5625 6.8125 3.5625 6.8125 1 5 C0.1875 2.3125 0.1875 2.3125 0 0 Z " fill="#F5D3AF" transform="translate(299,92)"/>
</svg>
